<svg width="375" height="866" viewBox="0 0 375 866" fill="none" xmlns="http://www.w3.org/2000/svg">
<path d="M-185.006 672.01C-164.929 676.194 -142.237 677.135 -122.134 672.711C-104.182 668.768 -94.8825 659.72 -80.7643 651.332C-48.1499 631.995 0.395991 632.596 31.1452 653.995C47.0249 665.044 58.993 679.337 75.9867 689.446C106.218 707.422 144.428 696.252 178.57 703.158C191.316 705.74 205.563 709.463 215.355 716.61C253.254 744.334 163.882 772.739 139.894 780.266C94.431 794.558 55.6513 795.579 8.29701 790.675C-0.0962027 789.814 -8.48939 789.254 -16.8826 790.395C-56.6726 795.779 -73.5886 805.428 -111.384 817.298C-149.179 829.169 -185.99 827.287 -185.99 827.287" stroke="#222225" stroke-miterlimit="10"/>
<path d="M-184.928 642.124C-163.194 646.888 -138.61 647.969 -116.85 642.924C-97.3953 638.421 -87.3442 628.091 -72.0343 618.543C-36.7 596.484 15.8638 618.143 49.1776 642.565C66.3785 655.176 79.3309 671.47 97.7494 683C130.493 703.498 171.889 690.767 208.856 698.634C222.663 701.577 238.102 705.82 248.672 713.987C289.731 745.615 192.924 778.004 166.942 786.611C117.696 802.926 75.7042 817.318 24.4124 811.713C15.3197 810.712 4.10005 818.639 -4.99259 806.709C-48.0985 812.854 -64.2862 815.297 -105.216 828.848C-146.146 842.4 -186.014 840.259 -186.014 840.259" stroke="#222225" stroke-miterlimit="10"/>
<path d="M559.113 608.214C530.152 605.892 498.962 603.77 471.321 596.664C432.853 586.775 397.207 568.659 361.977 554.407C338.999 545.099 307.11 532.027 283.2 548.341C272.967 555.328 267.398 565.457 263.149 575.465C252.684 600.127 240.171 624.088 220.95 645.567C209.759 658.058 200.381 668.407 181.445 673.552C163.234 678.516 142.562 678.396 124.039 674.532C85.1561 666.405 54.5365 637.2 36.8175 610.536C25.6265 593.681 16.6893 565.196 21.9998 546.34C23.7355 540.234 29.0978 532.608 37.0506 530.125C47.3608 526.883 58.1372 532.828 67.1263 536.751C82.1511 543.317 98.9376 547.441 116.113 548.862C159.581 552.445 174.684 527.323 192.377 501.24C209.863 475.457 228.437 448.434 263.382 434.621C281.075 427.615 300.064 424.593 319.156 420.889C372.934 410.48 424.485 395.287 476.528 380.714C504.454 372.907 532.302 364.98 560.098 356.873" stroke="#222225" stroke-miterlimit="10"/>
<path d="M322.344 864.96C322.344 845.743 371.071 828.068 378.065 818.84C394.722 796.8 343.663 774.04 325.504 764.352C292.657 746.816 260.975 717.23 261.726 684.742C261.881 677.535 263.928 670.109 269.575 664.404C288.227 645.527 334.053 660.76 356.175 667.406C387.961 676.975 418.477 690.226 442.931 708.823C455.158 718.131 465.753 728.74 473.991 740.391C481.84 751.48 484.69 766.614 498.653 774.34C521.734 787.112 551.421 774.781 560.125 755.824" stroke="#222225" stroke-miterlimit="10"/>
<path d="M-185.005 580.53C-185.005 580.53 -120.347 600.507 -99.4412 576.686C-78.5618 552.865 -65.6093 535.17 -44.7299 533.628C-21.2341 531.907 4.51541 529.425 22.4676 516.273C33.1922 508.426 37.9587 497.937 46.067 488.749C53.9421 479.801 64.0191 471.734 73.9666 464.147C82.3339 457.762 94.9497 453.018 100.027 444.47C106.84 433 94.3279 421.31 82.3857 415.184C57.5688 402.473 26.0165 409.639 5.99199 424.473C-41.7509 459.844 -130.294 458.302 -142.236 436.763C-154.178 415.264 -187 401.432 -187 401.432" stroke="#222225" stroke-miterlimit="10"/>
<path d="M-183.839 597.405C-183.839 597.405 -112.367 622.967 -89.286 592.48C-66.2047 562.013 -51.9051 539.394 -28.8238 537.432C-8.09981 535.67 13.6086 533.328 31.483 524.36C76.195 501.921 181.188 427.155 111.685 385.959C84.2514 369.704 49.3833 378.872 27.2605 397.829C-25.508 443.049 -123.377 441.087 -136.563 413.563C-149.748 386.039 -186.041 368.343 -186.041 368.343" stroke="#222225" stroke-miterlimit="10"/>
<path d="M148.987 361.197C148.21 365.961 146.915 370.665 145.153 375.269C141.63 384.437 135.543 396.728 146.371 403.994C155.645 410.22 172.664 410.32 182.871 406.036C201.523 398.209 207.921 381.695 222.635 370.605C241.623 356.292 262.917 357.894 287.397 356.513C316.022 354.891 345.036 344.182 359.361 324.965C373.687 305.748 368.946 277.863 345.062 265.553C328.327 256.905 306.697 257.085 286.569 257.586C257.659 258.286 228.775 259.007 199.865 259.708C182.223 260.148 137.978 254.903 126.761 268.275C122.046 273.88 121.917 281.206 124.352 287.612C128.911 299.523 138.988 309.772 143.832 321.842C148.961 334.573 151.163 347.945 148.987 361.197Z" stroke="#222225" stroke-miterlimit="10"/>
<path d="M-185.006 329.169C-146.253 349.107 -126.617 392.365 -72.527 386.219C-52.088 383.897 -33.1255 376.371 -16.6241 367.002C-4.68188 360.236 20.2128 346.965 21.3267 334.294C22.2334 324.044 14.5655 317.499 9.12545 308.831C0.861767 295.7 -8.02363 279.045 3.86675 265.893C11.7419 257.186 31.4037 253.282 43.7604 250.54C63.7331 246.096 104.145 238.97 106.01 218.692C106.684 211.465 101.14 204.78 94.9745 199.315C72.5408 179.377 32.9062 164.244 -1.96187 167.927C-18.7483 169.709 -34.2135 179.377 -48.8239 185.563C-60.0149 190.287 -72.242 194.27 -84.9873 194.01C-144.387 192.869 -119.648 100.828 -186.949 105.452" stroke="#222225" stroke-miterlimit="10"/>
<path d="M563 236.247C563 236.247 513.755 246.236 490.881 249.319C459.018 253.602 438.32 246.116 413.788 231.823C381.044 212.746 340.788 206.501 300.505 208.963C279.108 210.264 258.41 214.168 238.437 220.173C228.231 223.236 218.128 223.636 207.455 225.678C194.088 228.22 180.824 232.244 166.784 231.042C155.93 230.122 144.894 225.077 141.76 216.99C139.04 210.004 142.641 202.557 146.63 195.952C161.188 171.85 184.348 152.393 200.512 129.093C206.263 120.806 209.035 110.897 217.273 103.65C227.091 95.0228 241.494 92.4005 254.939 88.7573C270.171 84.6137 300.298 74.0644 301.257 59.6718C302.137 46.7204 267.684 42.3564 254.939 38.0326C237.841 32.2275 218.413 25.7019 200.512 31.0266C165.981 41.2956 99.9232 74.0643 -6.28711 1" stroke="#222225" stroke-miterlimit="10"/>
<path d="M-119.569 56.0483C-119.439 57.8099 -119.284 59.5514 -119.102 61.2329C-117.911 72.4027 -115.217 83.4725 -115.372 94.6623C-115.605 110.756 -118.869 132.916 -102.782 145.327C-85.0374 158.999 -62.2151 155.135 -47.7602 140.963C-36.1288 129.553 -22.5287 121.005 -5.87183 114.159C11.8472 106.893 34.799 105.812 50.86 96.9443C64.7192 89.2976 71.7653 71.9423 58.9942 61.313C51.8703 55.3878 41.6897 52.305 31.6904 49.8829C14.3081 45.6992 -2.99638 40.8149 -19.3165 34.5294C-38.8489 27.0028 -48.2524 11.5892 -72.4994 10.8286C-107.86 9.70758 -121.253 32.1874 -119.595 56.0684L-119.569 56.0483Z" stroke="#222225" stroke-miterlimit="10"/>
<path d="M-85.9956 65.6969C-86.2287 78.4081 -86.5655 95.2229 -83.2238 107.574C-81.4104 114.26 -76.6698 120.825 -68.8724 124.068C-53.8993 130.314 -39.9884 119.244 -29.0565 112.738C-13.7467 103.65 4.41273 97.3047 21.3028 90.1384C59.8753 73.764 -23.746 48.5818 -37.9419 42.8768C-54.2879 36.3111 -64.1059 35.5103 -77.6024 45.9595C-84.0268 52.3452 -85.8661 58.9309 -85.9697 65.6969H-85.9956Z" stroke="#222225" stroke-miterlimit="10"/>
<path d="M560.126 346.844C520.595 356.413 480.779 367.843 440.186 373.528C389.076 380.674 338.613 390.643 289.29 403.274C247.349 414.024 211.937 433.12 194.788 465.969C191.706 471.854 188.157 477.84 181.939 481.983C175.696 486.107 166.086 487.848 159.195 484.405C136.709 473.216 156.941 443.429 168.728 432.72C194.996 408.879 230.718 391.083 270.094 382.216C298.589 375.79 331.411 374.929 357.135 362.418C384.439 349.126 399.282 317.318 389.749 293.718C384.128 279.825 370.813 268.095 353.689 262.07C342.498 258.126 312.63 247.397 326.645 233.765C331.463 229.061 340.271 227.74 347.861 228.941C373.092 232.944 391.511 253.362 414.721 262.13C439.564 271.498 469.485 277.283 497.255 275.001C502.073 274.601 558.157 269.937 558.157 266.133" stroke="#222225" stroke-miterlimit="10"/>
<path d="M287.526 864.199C293.743 848.205 302.913 832.091 318.223 820C323.352 815.957 338.662 810.872 340.994 806.088C350.138 787.332 284.857 778.664 272.812 779.385C253.331 780.526 235.327 787.091 221.028 797.26C205.977 807.97 198.283 823.143 183.362 833.853C171.99 842 156.757 850.267 141.422 853.13C124.713 856.272 105.699 850.347 90.0003 845.763C69.4577 839.778 49.485 832.171 27.932 829.048C1.43125 825.205 -24.9659 828.688 -38.5919 847.344C-45.1459 856.312 -53.565 861.217 -66.6211 865" stroke="#222225" stroke-miterlimit="10"/>
<path d="M218.232 850.588C217.558 849.907 216.963 849.126 216.496 848.205C207.015 829.809 229.423 813.195 249.137 807.289C254.24 805.768 294.496 791.656 294.496 801.945C294.496 811.353 283.771 820.3 277.373 826.726C269.99 834.133 237.117 869.384 218.232 850.588Z" stroke="#222225" stroke-miterlimit="10"/>
<path d="M236.338 838.677C236.002 838.337 235.717 837.956 235.484 837.496C230.743 828.328 241.934 820.041 251.752 817.098C254.291 816.337 274.367 809.291 274.367 814.436C274.367 819.12 266.259 820.941 263.072 824.144C259.394 827.847 245.768 848.065 236.338 838.677Z" stroke="#222225" stroke-miterlimit="10"/>
<path d="M314.288 634.798C331.852 642.564 358.638 640.983 376.797 643.145C399.723 645.867 412.106 652.373 426.457 665.865C437.57 676.314 446.637 688.185 457.387 698.894C467.698 709.183 482.256 730.542 501.504 731.322C521.917 732.163 527.305 711.185 529.326 698.894C532.46 679.857 526.631 658.378 508.213 644.806C482.36 625.79 452.44 610.176 420.68 597.665C393.273 586.875 354.26 569.12 323.433 581.23C304.755 588.557 291.052 606.673 299.989 622.627C303.123 628.212 308.149 632.095 314.288 634.818V634.798Z" stroke="#222225" stroke-miterlimit="10"/>
<path d="M324.051 601.268C305.374 619.644 324.958 628.992 348.143 630.474C364.101 631.495 379.695 634.918 395.73 635.819C403.398 636.259 441.194 636.539 429.407 623.908C419.019 612.798 398.062 607.974 383.296 600.988C368.116 593.802 347.962 585.114 331.46 595.163C329.543 596.324 326.771 598.566 324.051 601.248V601.268Z" stroke="#222225" stroke-miterlimit="10"/>
<path d="M348.043 607.033C338.303 616.622 348.509 621.486 360.607 622.267C368.922 622.807 377.057 624.589 385.398 625.049C389.387 625.269 409.101 625.43 402.936 618.844C397.521 613.059 386.59 610.536 378.896 606.893C370.995 603.15 360.477 598.626 351.877 603.851C350.867 604.451 349.442 605.632 348.017 607.033H348.043Z" stroke="#222225" stroke-miterlimit="10"/>
<path d="M58.8649 268.495C49.1506 272.899 40.1874 280.626 35.6023 285.671C18.4273 304.687 44.125 323.204 40.3947 343.361C39.1253 350.167 24.7999 371.526 41.8195 373.628C45.9124 374.128 50.0313 372.887 53.7876 371.526C65.4448 367.282 104.043 337.036 114.82 351.929C118.084 356.433 126.114 364.36 133.368 360.697C143.807 355.412 133.575 338.777 130.337 333.012C124.016 321.782 114.509 312.074 105.727 301.985C97.4892 292.557 94.5101 278.504 85.4693 270.037C78.0346 263.091 68.113 264.292 58.8649 268.475V268.495Z" stroke="#222225" stroke-miterlimit="10"/>
<path d="M71.2201 293.718C66.3241 295.94 61.7907 299.843 59.4852 302.385C50.807 311.974 63.7854 321.322 61.9203 331.511C61.2726 334.954 54.0451 345.723 62.6456 346.784C64.718 347.045 66.7904 346.404 68.6815 345.723C74.5619 343.582 94.0424 328.328 99.4825 335.835C101.114 338.117 105.182 342.1 108.834 340.259C114.119 337.596 108.938 329.189 107.306 326.286C104.119 320.621 99.327 315.717 94.8714 310.633C90.7266 305.868 89.1982 298.782 84.6389 294.518C80.8827 291.015 75.883 291.616 71.2201 293.738V293.718Z" stroke="#222225" stroke-miterlimit="10"/>
<path d="M78.6293 308.851C76.6087 309.772 74.7436 311.373 73.811 312.414C70.2361 316.358 75.5725 320.201 74.7954 324.385C74.5363 325.806 71.5573 330.23 75.0803 330.67C75.9352 330.77 76.7901 330.51 77.5672 330.23C79.9764 329.349 88.0069 323.064 90.2347 326.166C90.9083 327.107 92.5662 328.749 94.0946 327.988C96.2706 326.887 94.1464 323.444 93.4729 322.243C92.1517 319.921 90.1829 317.899 88.3696 315.797C86.6599 313.836 86.0381 310.933 84.173 309.171C82.6187 307.73 80.5722 307.97 78.6552 308.851H78.6293Z" stroke="#222225" stroke-miterlimit="10"/>
<path d="M106.555 81.7912C106.555 81.7912 106.477 81.8513 106.451 81.8913C100.182 88.2569 100.545 96.324 97.5137 103.69C93.3949 113.719 85.4938 115.801 73.4739 119.124C60.0552 122.827 43.8646 122.947 31.2488 127.652C24.384 130.214 18.6849 135.538 19.1771 141.424C20.2651 153.714 45.2893 156.617 57.387 158.158C69.3291 159.68 81.3231 161.742 92.4364 165.565C101.192 168.568 115.233 180.838 124.403 180.058C143.262 178.436 147.821 148.73 152.38 138.181C164.634 109.856 193.44 71.322 235.717 66.6779C241.804 65.9973 248.98 63.5351 249.265 58.791C250.042 45.5193 195.279 50.1634 186.575 51.1042C166.525 53.3062 147.122 58.851 130.05 67.2584C122.149 71.1418 112.331 75.9661 106.555 81.7912Z" stroke="#222225" stroke-miterlimit="10"/>
<path d="M124.517 124.109C134.464 126.411 147.12 146.147 136.182 155.136L121.934 161.141C121.934 161.141 111.572 167.146 102.505 160.14C88.266 148.129 106.645 119.973 124.517 124.109Z" stroke="#222225" stroke-miterlimit="10"/>
<path d="M113.498 148.83C112.669 145.327 121.632 133.136 126.71 134.317C131.787 135.499 135.336 145.708 128.73 148.05L122.124 150.412C122.124 150.412 114.508 153.154 113.498 148.85V148.83Z" stroke="#222225" stroke-miterlimit="10"/>
<path d="M130.336 88.2571C126.994 94.8429 127.823 100.608 135.724 102.249C151.163 105.452 168.856 89.2179 176.473 80.9507C181.472 75.5059 187.171 70.3814 178.027 66.0375C161.266 58.0705 137.123 74.8453 130.31 88.2571H130.336Z" stroke="#222225" stroke-miterlimit="10"/>
<path d="M141.787 86.035C139.948 89.6382 140.414 92.801 144.74 93.7018C153.211 95.4633 162.9 86.5555 167.096 82.0115C169.842 79.0289 172.951 76.2064 167.951 73.8443C158.755 69.4805 145.517 78.6686 141.787 86.035Z" stroke="#222225" stroke-miterlimit="10"/>
<path d="M165.076 453.158C164.713 453.939 164.402 454.719 164.143 455.52C162.874 459.664 161.863 471.354 169.22 472.495C182.069 474.457 202.431 442.268 200.514 434.101C199.011 427.595 192.82 429.157 187.043 432.94C179.168 438.085 168.961 444.911 165.076 453.158Z" stroke="#222225" stroke-miterlimit="10"/>
<path d="M338.715 246.136C336.643 240.591 343.378 234.405 351.124 236.887C355.398 238.249 362.367 245.015 360.424 248.738C357.238 254.883 342.912 252.561 339.493 247.637C339.156 247.156 338.897 246.656 338.715 246.136Z" stroke="#222225" stroke-miterlimit="10"/>
<path d="M287.656 338.256C297.681 335.094 306.048 316.037 317.576 312.274C328.793 308.61 336.15 286.191 310.944 281.887C285.739 277.583 246.182 277.983 244.602 294.338C243.022 310.712 241.105 320.441 264.031 324.684C274.418 326.606 271.206 328.828 275.429 333.472C279.91 338.397 283.9 339.437 287.656 338.236V338.256Z" stroke="#222225" stroke-miterlimit="10"/>
<path d="M287.656 317.619C290.221 317.118 292.889 315.937 295.531 313.875C301.904 308.931 316.255 294.999 299.365 292.116C287.164 290.034 268.046 290.214 267.269 298.161C266.311 308.07 276.103 319.861 287.682 317.619H287.656Z" stroke="#222225" stroke-miterlimit="10"/>
<path d="M166.057 295.579C163.622 306.048 171.368 315.617 173.078 325.666C174.969 336.715 171.342 347.885 174.658 359.015C176.186 364.18 177.456 369.044 185.227 368.063C191.107 367.322 201.392 358.875 205.899 355.932C220.328 346.524 231.623 336.896 227.349 321.682C224.11 310.172 216.183 292.657 201.91 286.491C193.828 282.988 183.336 283.088 175.357 286.731C169.399 289.454 166.809 292.396 166.057 295.559V295.579Z" stroke="#222225" stroke-miterlimit="10"/>
<path d="M192.301 314.115C187.638 320 186.11 330.43 187.068 334.513C188.519 340.759 198.182 342.68 204.321 339.117C210.383 335.594 211.652 324.444 210.901 319.18C210.409 315.797 208.233 312.354 204.295 310.772C199.062 308.671 195.099 310.572 192.301 314.115Z" stroke="#222225" stroke-miterlimit="10"/>
<path d="M144.609 283.048C144.506 292.276 154.505 301.524 157.121 310.292C162.199 327.167 162.717 344.562 163.261 361.797C163.546 371.186 161.966 390.302 181.42 387.18C205.071 383.376 220.07 361.797 230.821 346.844C239.37 334.954 250.25 337.056 263.332 342.941C279.911 350.387 287.941 352.97 303.666 341.92C309.442 337.856 314.39 332.672 320.789 329.169C327.524 325.505 336.85 324.565 342.005 319.2C356.719 303.866 345.658 283.268 325.659 275.101C306.619 267.334 283.201 267.414 262.244 267.054C235.484 266.594 208.569 266.133 181.835 267.034C169.193 267.454 154.142 265.753 146.992 275.962C145.335 278.324 144.661 280.686 144.635 283.048H144.609Z" stroke="#222225" stroke-miterlimit="10"/>
<path d="M-143.039 453.598C-148.117 450.435 -153.609 447.973 -160.681 448.674C-166.665 449.274 -172.001 452.677 -173.918 457.081C-178.4 467.41 -169.462 480.321 -165.059 489.81C-159.256 502.281 -157.805 516.073 -156.355 529.264C-155.292 539.013 -157.65 550.083 -152.987 559.371C-142.003 581.27 -115.865 571.502 -101.436 557.469C-87.8359 544.258 -72.7852 531.847 -56.2578 520.797C-35.0416 506.605 -7.09017 500.839 14.4369 487.187C28.6846 478.16 54.2787 462.626 57.7241 447.553C59.641 439.185 52.8021 431.258 42.5697 428.656C16.2502 421.95 -16.2864 448.594 -37.2435 457.842C-55.8433 466.049 -78.8728 471.594 -100.892 469.692C-112.057 468.731 -122.808 465.829 -131.978 460.764C-135.734 458.682 -139.283 455.96 -143.039 453.598Z" stroke="#222225" stroke-miterlimit="10"/>
<path d="M-131.822 487.788C-134.542 496.436 -131.278 506.325 -129.025 514.812C-127.496 520.597 -129.62 534.049 -122.419 537.852C-111.202 543.778 -96.9542 525.962 -92.0582 520.497C-77.8364 504.663 -57.501 492.272 -34.601 484.726C-14.421 478.08 10.3182 475.257 24.2551 460.785C33.1405 451.556 21.6646 450.295 11.7948 452.077C-3.95538 454.919 -14.8873 465.068 -28.2284 471.394C-41.1808 477.539 -56.128 481.042 -71.3083 481.503C-87.6284 482.023 -102.99 477.84 -119.414 479.181C-126.693 479.781 -130.346 483.024 -131.822 487.768V487.788Z" stroke="#222225" stroke-miterlimit="10"/>
<path d="M560.125 402.953C530.619 411.221 500.932 419.128 471.115 426.734C437.335 435.382 401.742 443.549 366.718 450.535C334.467 456.961 299.573 456.441 271.828 472.975C247.063 487.748 241.312 507.045 227.919 527.303C213.879 548.542 195.383 569.1 169.219 582.391C152.121 591.079 133.444 594.402 113.368 591.179C92.3328 587.816 73.7848 592.66 87.4108 611.957C102.513 633.396 134.506 645.347 165.126 636.659C200.512 626.61 210.693 593.381 228.204 570.681C274.522 510.668 371.796 507.626 445.625 537.472C481.477 551.965 520.879 560.352 560.099 568.219" stroke="#222225" stroke-miterlimit="10"/>
<path d="M513.392 531.026C529.841 531.346 541.292 527.163 533.261 512.129C521.319 489.83 512.382 480.602 524.298 462.926C536.24 445.251 532.251 423.712 494.455 440.626C447.567 461.605 385.577 451.816 342.108 477.179C337.989 479.581 334 482.343 332.005 486.006C322.136 504.182 365.656 506.845 378.997 508.246C406.327 511.108 431.144 514.952 457.67 521.558C466.996 523.88 493.756 530.646 513.392 531.026Z" stroke="#222225" stroke-miterlimit="10"/>
<path d="M263.124 503.942C263.124 510.948 272.91 511.049 278.298 512.69C287.002 515.312 296.431 509.828 302.985 506.084C308.244 503.082 320.834 494.674 314.28 490.45C311.12 488.409 293.349 488.929 289.126 489.109C281.277 489.45 269.859 486.967 265.715 492.932L263.124 503.942Z" stroke="#222225" stroke-miterlimit="10"/>
<path d="M116.424 612.818C116.424 612.818 130.361 632.795 153.235 625.109C176.109 617.422 193.025 599.746 180.099 599.746C169.996 599.746 162.354 604.551 153.08 606.532C145.93 608.054 143.003 607.173 135.931 605.932C130.128 604.911 109.3 602.589 116.424 612.818Z" stroke="#222225" stroke-miterlimit="10"/>
<path d="M-160.241 704.759C-165.033 707.782 -168.841 712.066 -171.328 718.251C-177.26 733.164 -175.602 754.243 -159.179 765.032C-147.754 772.539 -135.398 773.98 -121.642 777.203C-107.602 780.486 -94.2607 786.591 -79.2099 786.691C-63.1748 786.791 -46.6992 781.507 -32.2701 776.642C-6.15793 767.855 19.7989 760.808 48.0871 757.005C79.3803 752.801 111.451 753.902 143.055 751.941C147.174 751.68 151.733 751.28 154.505 748.898C156.758 746.956 157.199 743.873 155.567 741.591C146.759 729.421 119.507 727.699 103.886 724.556C79.4839 719.652 53.2681 715.308 33.3213 702.637C23.6069 696.472 14.8251 689.285 4.07454 684.241C-37.9174 664.584 -81.1787 691.047 -123.585 695.971C-137.807 697.613 -150.889 698.854 -160.215 704.739L-160.241 704.759Z" stroke="#222225" stroke-miterlimit="10"/>
<path d="M-119.622 720.853C-125.322 725.777 -128.145 732.683 -126.876 739.229C-123.197 757.986 -92.4999 762.91 -72.1905 762.61C-55.5854 762.37 -40.4051 757.265 -25.2766 752.521C-6.96177 746.776 42.3095 747.897 30.5745 721.914C26.7147 713.367 13.1146 711.505 2.10497 712.266C-15.4586 713.487 -31.416 720.673 -48.9278 721.734C-70.7916 723.075 -94.4169 706.42 -114.985 717.65C-116.695 718.571 -118.249 719.652 -119.622 720.853Z" stroke="#222225" stroke-miterlimit="10"/>
<path d="M-10.1476 730.622C-10.4585 731.342 -10.588 732.003 -10.4844 732.543C-9.55182 737.928 2.44218 741.331 6.01707 735.826C7.88223 732.924 9.43652 723.335 4.22962 721.594C-0.329655 720.072 -8.30839 726.418 -10.1217 730.642L-10.1476 730.622Z" stroke="#222225" stroke-miterlimit="10"/>
<path d="M319.286 698.674C295.168 723.336 340.062 749.038 362.703 760.008C375.344 766.133 386.328 770.897 394.903 780.646C404.798 791.856 409.435 804.987 414.046 817.919C418.735 831.09 430.392 844.982 450.624 841.479C461.634 839.578 463.162 832.451 468.265 825.806C475.182 816.818 483.213 809.692 494.714 804.487C504.299 800.163 510.827 797.12 502.382 788.493C485.57 771.398 459.872 760.929 443.397 743.834C432.335 732.343 422.44 721.114 407.855 711.966C390.525 701.116 337.912 679.597 319.26 698.654L319.286 698.674Z" stroke="#222225" stroke-miterlimit="10"/>
<path d="M367.03 741.371C383.842 748.497 396.276 759.267 406.431 771.678C414.151 781.126 422.363 795.739 439.512 795.599C469.95 795.338 445.988 765.712 438.009 756.464C424.746 741.091 410.368 725.537 390.214 715.108C375.293 707.381 345.606 704.018 341.202 722.655C338.534 733.985 356.538 737.027 366.123 740.991C366.434 741.111 366.745 741.251 367.055 741.371H367.03Z" stroke="#222225" stroke-miterlimit="10"/>
<path d="M368.118 864.199C367.988 858.754 365.657 850.627 370.346 846.023C379.853 836.735 399.852 842.62 411.302 846.023C428.969 851.248 441.559 857.934 461.402 854.15C477.074 851.168 486.737 841.039 501.503 836.855C509.792 834.513 521.424 834.613 528.703 839.517C538.132 845.863 536.086 857.313 545.23 864.199" stroke="#222225" stroke-miterlimit="10"/>
<path d="M504.583 93.301C506.241 98.4855 508.547 103.63 512.122 108.775C531.084 136.239 534.841 178.136 493.056 194.91C472.047 203.338 458.188 195.571 439.717 188.885C401.508 175.073 359.412 170.989 317.679 174.432C296.696 176.174 275.998 179.637 255.689 184.021C238.643 187.704 220.717 197.032 202.506 196.312C196.496 196.071 190.279 193.929 187.274 189.886C176.29 175.113 217.194 146.448 230.587 138.981C247.269 129.713 266.569 123.548 286.541 120.044C305.426 116.722 325.425 114.86 342.911 108.014C365.681 99.1061 362.832 80.2695 355.267 63.1544C353.532 59.211 351.33 55.3676 350.397 51.264C349.465 47.1604 349.983 42.6364 353.221 39.3335C362.857 29.4848 380.369 36.491 392.13 38.8931C408.139 42.156 426.04 44.6582 442.671 43.8375C454.924 43.2369 468.446 37.0715 480.621 40.2143C504.48 46.3597 499.869 78.568 504.583 93.301Z" stroke="#222225" stroke-miterlimit="10"/>
<path d="M397.365 76.8065C393.634 83.072 395.655 90.6987 394.049 97.5447C391.795 107.133 387.961 116.301 376.977 122.006C359.984 130.854 337.472 127.871 318.38 131.134C307.682 132.956 257.115 141.403 265.793 155.876C271.415 165.284 298.667 159.759 308.433 158.498C334.493 155.135 361.149 151.492 387.65 153.534C411.794 155.396 441.999 173.772 465.521 167.206C494.949 158.979 470.391 116.642 462.023 102.769C453.552 88.737 425.005 52.8454 400.784 72.883C399.307 74.1041 398.194 75.4253 397.365 76.8065Z" stroke="#222225" stroke-miterlimit="10"/>
<path d="M215.201 165.144C203.207 168.988 194.875 189.566 215.21 188.205C224.821 187.564 234.38 172.971 230.235 166.346C227.956 162.702 224.407 162.102 220.676 163.303L215.201 165.144Z" stroke="#222225" stroke-miterlimit="10"/>
<path d="M79.6143 1.68047C83.3187 9.86767 89.6913 17.9748 98.5249 23.3996C118.135 35.4302 147.796 26.9427 168.935 23.0793C199.166 17.5544 230.977 14.5918 261.26 21.7181C283.15 26.8626 301.827 40.0542 325.09 41.1552C350.58 42.3763 334.105 13.0705 335.27 1.28012" stroke="#222225" stroke-miterlimit="10"/>
<path d="M-167.597 243.093C-167.571 245.175 -167.545 247.277 -167.597 249.359C-168.167 275.341 -176.715 303.987 -149.904 324.324C-134.749 335.815 -111.176 341.64 -90.5814 336.475C-75.427 332.672 -62.7077 325.165 -61.7751 312.794C-59.9618 288.773 -57.1381 267.615 -31.8031 251.641C-22.7363 245.936 -12.193 241.732 -0.976146 239.19C18.7375 234.706 56.4033 234.806 32.3635 210.424C23.9185 201.857 1.51074 195.551 -10.8977 202.337C-27.2179 211.265 -46.1026 220.533 -65.1428 225.518C-74.7276 228.02 -85.2968 228.901 -94.9335 226.498C-111.901 222.255 -121.123 206.781 -128.817 195.551C-135.086 186.423 -147.21 171.91 -160.551 185.763C-164.203 189.546 -165.602 194.31 -166.613 198.954C-169.747 213.547 -167.856 228.38 -167.597 243.093Z" stroke="#222225" stroke-miterlimit="10"/>
</svg>
