<svg width="292" height="30" viewBox="0 0 292 30" fill="none" xmlns="http://www.w3.org/2000/svg">
<path d="M284.924 16.3301V14.291H291.656V16.3301H284.924Z" fill="#222225"/>
<path d="M274.588 16.3301V14.291H281.32V16.3301H274.588Z" fill="#222225"/>
<path d="M264.252 16.3301V14.291H270.984V16.3301H264.252Z" fill="#222225"/>
<path d="M253.916 16.3301V14.291H260.648V16.3301H253.916Z" fill="#222225"/>
<path d="M243.58 16.3301V14.291H250.312V16.3301H243.58Z" fill="#222225"/>
<path d="M233.244 16.3301V14.291H239.977V16.3301H233.244Z" fill="#222225"/>
<path d="M222.908 16.3301V14.291H229.641V16.3301H222.908Z" fill="#222225"/>
<path d="M212.572 16.3301V14.291H219.305V16.3301H212.572Z" fill="#222225"/>
<path d="M202.236 16.3301V14.291H208.969V16.3301H202.236Z" fill="#222225"/>
<path d="M191.9 16.3301V14.291H198.633V16.3301H191.9Z" fill="#222225"/>
<path d="M181.564 16.3301V14.291H188.297V16.3301H181.564Z" fill="#222225"/>
<path d="M171.229 16.3301V14.291H177.961V16.3301H171.229Z" fill="#222225"/>
<path d="M160.893 16.3301V14.291H167.625V16.3301H160.893Z" fill="#222225"/>
<path d="M150.557 16.3301V14.291H157.289V16.3301H150.557Z" fill="#222225"/>
<path d="M140.221 16.3301V14.291H146.953V16.3301H140.221Z" fill="#222225"/>
<path d="M129.885 16.3301V14.291H136.617V16.3301H129.885Z" fill="#222225"/>
<path d="M119.549 16.3301V14.291H126.281V16.3301H119.549Z" fill="#222225"/>
<path d="M109.213 16.3301V14.291H115.945V16.3301H109.213Z" fill="#222225"/>
<path d="M98.877 16.3301V14.291H105.609V16.3301H98.877Z" fill="#222225"/>
<path d="M88.541 16.3301V14.291H95.2734V16.3301H88.541Z" fill="#222225"/>
<path d="M78.2051 16.3301V14.291H84.9375V16.3301H78.2051Z" fill="#222225"/>
<path d="M67.8691 16.3301V14.291H74.6016V16.3301H67.8691Z" fill="#222225"/>
<path d="M57.5332 16.3301V14.291H64.2656V16.3301H57.5332Z" fill="#222225"/>
<path d="M47.1973 16.3301V14.291H53.9297V16.3301H47.1973Z" fill="#222225"/>
<path d="M36.8613 16.3301V14.291H43.5938V16.3301H36.8613Z" fill="#222225"/>
<path d="M13.7461 29.5137L23.7832 0H26.0508L16.0137 29.5137H13.7461Z" fill="#222225"/>
<path d="M0 29.5137L10.0371 0H12.3047L2.26758 29.5137H0Z" fill="#222225"/>
</svg>
