<svg width="1920" height="772" viewBox="0 0 1920 772" fill="none" xmlns="http://www.w3.org/2000/svg">
<path d="M1491.13 768.952C1500.43 748.336 1502.52 725.032 1492.69 704.389C1483.93 685.953 1463.82 676.403 1445.18 661.905C1402.21 628.413 1403.54 578.56 1451.1 546.983C1475.65 530.676 1507.41 518.386 1529.88 500.935C1569.82 469.89 1545 430.652 1560.35 395.59C1566.09 382.502 1574.36 367.87 1590.24 357.815C1651.85 318.896 1714.97 410.673 1731.7 435.307C1763.46 481.994 1765.73 521.818 1754.83 570.446C1752.92 579.066 1751.67 587.685 1754.21 596.304C1766.17 637.165 1787.62 654.536 1813.99 693.349C1840.37 732.162 1836.19 769.963 1836.19 769.963" stroke="#222225" stroke-miterlimit="10"/>
<path d="M1424.72 768.872C1435.31 746.553 1437.71 721.307 1426.5 698.961C1416.49 678.983 1393.54 668.661 1372.32 652.939C1323.3 616.654 1371.43 562.675 1425.7 528.465C1453.72 510.801 1489.93 497.5 1515.56 478.586C1561.11 444.96 1532.82 402.45 1550.3 364.488C1556.84 350.309 1566.27 334.454 1584.42 323.601C1654.7 281.436 1726.67 380.849 1745.8 407.531C1782.06 458.102 1814.04 501.224 1801.58 553.897C1799.36 563.234 1816.97 574.756 1790.46 584.093C1804.12 628.359 1809.55 644.983 1839.66 687.014C1869.78 729.046 1865.02 769.987 1865.02 769.987" stroke="#222225" stroke-miterlimit="10"/>
<path d="M1349.36 4.80335C1344.2 34.5447 1339.49 66.5738 1323.7 94.9584C1301.72 134.463 1261.47 171.067 1229.79 207.247C1209.11 230.843 1180.06 263.59 1216.31 288.144C1231.84 298.652 1254.35 304.371 1276.59 308.734C1331.39 319.481 1384.64 332.33 1432.37 352.069C1460.13 363.561 1483.13 373.191 1494.56 392.638C1505.59 411.339 1505.32 432.568 1496.74 451.588C1478.68 491.518 1413.78 522.962 1354.52 541.158C1317.07 552.65 1253.77 561.828 1211.87 556.375C1198.3 554.592 1181.35 549.086 1175.83 540.919C1168.63 530.331 1181.84 519.264 1190.56 510.033C1205.15 494.604 1214.31 477.366 1217.47 459.729C1225.43 415.09 1169.61 399.581 1111.64 381.412C1054.35 363.455 994.297 344.381 963.603 308.495C948.034 290.325 941.317 270.826 933.087 251.22C909.956 195.994 876.193 143.055 843.809 89.6114C826.46 60.9342 808.845 32.3367 790.829 3.79249" stroke="#222225" stroke-miterlimit="10"/>
<path d="M1919.91 247.947C1877.21 247.947 1837.93 197.908 1817.42 190.725C1768.44 173.62 1717.87 226.053 1696.34 244.701C1657.37 278.433 1591.62 310.967 1519.43 310.196C1503.41 310.036 1486.91 307.935 1474.23 302.135C1432.28 282.982 1466.13 235.922 1480.9 213.204C1502.17 180.563 1531.61 149.226 1572.94 124.113C1593.62 111.557 1617.2 100.676 1643.09 92.217C1667.73 84.1565 1701.36 81.2302 1718.53 66.8916C1746.91 43.189 1719.51 12.7028 1677.39 3.76446" stroke="#222225" stroke-miterlimit="10"/>
<path d="M1287.84 768.952C1287.84 768.952 1332.24 702.552 1279.3 681.084C1226.37 659.643 1187.04 646.342 1183.62 624.9C1179.79 600.772 1174.28 574.329 1145.05 555.894C1127.61 544.881 1104.3 539.986 1083.89 531.659C1064 523.572 1046.08 513.224 1029.22 503.009C1015.03 494.416 1004.48 481.461 985.489 476.247C960 469.251 934.021 482.099 920.409 494.363C892.162 519.848 908.087 552.25 941.05 572.813C1019.65 621.841 1016.23 712.768 968.363 725.031C920.587 737.295 889.849 771 889.849 771" stroke="#222225" stroke-miterlimit="10"/>
<path d="M1325.34 767.754C1325.34 767.754 1382.15 694.359 1314.4 670.656C1246.7 646.953 1196.43 632.269 1192.07 608.566C1188.16 587.285 1182.95 564.992 1163.02 546.636C1113.16 500.721 947.011 392.902 855.463 464.276C819.343 492.448 839.716 528.254 881.842 550.973C982.331 605.161 977.971 705.665 916.806 719.205C855.641 732.746 816.318 770.016 816.318 770.016" stroke="#222225" stroke-miterlimit="10"/>
<path d="M800.437 425.969C811.024 426.767 821.477 428.097 831.709 429.906C852.082 433.524 879.395 439.776 895.543 428.656C909.377 419.132 909.599 401.654 900.08 391.173C882.687 372.02 845.988 365.449 821.344 350.339C789.538 330.839 793.097 308.972 790.028 283.833C786.424 254.438 762.626 224.643 719.921 209.932C677.217 195.221 615.252 200.089 587.894 224.616C568.677 241.802 569.078 264.014 570.19 284.684C571.747 314.372 573.348 344.034 574.905 373.722C575.884 391.838 564.229 437.275 593.944 448.794C606.399 453.635 622.68 453.768 636.915 451.268C663.383 446.586 686.158 436.237 712.982 431.263C741.274 425.996 770.989 423.734 800.437 425.969Z" stroke="#222225" stroke-miterlimit="10"/>
<path d="M729.265 768.953C773.57 729.156 869.699 708.992 856.043 653.446C850.883 632.457 834.157 612.984 813.338 596.038C798.303 583.775 768.81 558.21 740.652 557.066C717.877 556.135 703.331 564.009 684.069 569.596C654.888 578.082 617.878 587.206 588.652 574.996C569.302 566.909 560.627 546.718 554.533 534.029C544.658 513.518 528.822 472.019 483.76 470.103C467.701 469.412 452.844 475.105 440.7 481.436C396.394 504.473 362.764 545.175 370.949 580.982C374.909 598.22 396.394 614.101 410.139 629.105C420.638 640.597 429.49 653.153 428.912 666.242C426.376 727.241 221.841 701.836 232.116 770.948" stroke="#222225" stroke-miterlimit="10"/>
<path d="M522.771 0.81222C522.771 0.81222 544.968 51.3831 551.819 74.8729C561.338 107.594 544.701 128.849 512.94 154.041C470.547 187.666 456.669 229.006 462.14 270.373C465.031 292.346 473.706 313.602 487.051 334.112C493.857 344.593 494.746 354.968 499.284 365.928C504.933 379.655 513.874 393.275 511.205 407.694C509.159 418.84 497.949 430.173 479.978 433.392C464.453 436.185 447.905 432.487 433.226 428.39C379.667 413.44 336.429 389.657 284.651 373.058C266.234 367.152 244.215 364.305 228.112 355.846C208.94 345.764 203.112 330.973 195.016 317.166C185.808 301.524 162.365 270.586 130.382 269.601C101.601 268.697 91.903 304.078 82.2946 317.166C69.3943 334.724 54.893 354.675 66.7257 373.058C89.5457 408.518 162.365 476.354 0 585.423" stroke="#222225" stroke-miterlimit="10"/>
<path d="M122.33 701.754C126.244 701.621 130.114 701.461 133.851 701.275C158.673 700.051 183.272 697.285 208.139 697.444C243.903 697.684 293.147 701.036 320.726 684.516C351.109 666.293 342.523 642.857 311.029 628.012C285.673 616.068 266.679 602.102 251.466 584.997C235.318 566.801 232.916 543.231 213.21 526.738C196.217 512.505 157.65 505.27 134.029 518.385C120.862 525.7 114.011 536.155 108.629 546.423C99.3317 564.273 88.4777 582.044 74.5099 598.803C57.7841 618.861 23.5317 628.518 21.8414 653.418C19.3503 689.73 69.3053 703.483 122.374 701.781L122.33 701.754Z" stroke="#222225" stroke-miterlimit="10"/>
<path d="M143.77 667.277C172.017 667.517 209.383 667.862 236.83 664.431C251.687 662.569 266.278 657.7 273.484 649.693C287.363 634.317 262.764 620.032 248.306 608.805C228.111 593.083 214.01 574.435 198.085 557.091C161.697 517.48 105.737 603.352 93.0589 617.93C78.4682 634.716 76.6889 644.798 99.9093 658.658C114.1 665.255 128.735 667.144 143.77 667.251L143.77 667.277Z" stroke="#222225" stroke-miterlimit="10"/>
<path d="M162.1 641.367C176.646 643.841 193.995 643.229 207.206 640.383C249.999 631.178 218.461 601.969 194.84 590.211C166.103 575.925 136.3 603.459 133.853 618.356C131.762 631.258 144.929 638.441 162.055 641.367L162.1 641.367Z" stroke="#222225" stroke-miterlimit="10"/>
<path d="M768.543 3.76291C789.806 44.358 815.206 85.2456 827.84 126.931C843.72 179.418 865.873 231.239 893.942 281.889C917.83 324.959 960.267 361.324 1033.26 378.935C1046.34 382.1 1059.64 385.745 1068.85 392.129C1078.02 398.54 1081.89 408.41 1074.23 415.486C1049.37 438.577 983.176 417.8 959.377 405.696C906.397 378.722 866.852 342.037 847.145 301.602C832.866 272.339 830.953 238.634 803.151 212.218C773.614 184.179 702.93 168.936 650.484 178.726C619.612 184.499 593.545 198.172 580.155 215.756C571.392 227.248 547.549 257.921 517.255 243.529C506.802 238.581 503.866 229.536 506.535 221.742C515.432 195.831 560.805 176.917 580.289 153.081C601.107 127.57 613.963 96.8442 608.891 68.3266C608.002 63.3785 597.637 5.78464 589.185 5.78464" stroke="#222225" stroke-miterlimit="10"/>
<path d="M652.396 4.80141C667.298 41.6189 671.08 79.5006 674.371 117.196C675.928 135.073 700.083 146.299 724.727 153.827C737.182 157.631 751.461 159.786 762.849 164.388C776.773 170.028 786.737 180.084 805.954 179.286C826.105 178.461 804.263 159.121 799.37 152.151C766.096 104.879 734.38 56.1704 720.723 5.30685" stroke="#222225" stroke-miterlimit="10"/>
<path d="M1918.22 283.701C1882.68 277.316 1846.87 267.899 1820 252.177C1811.01 246.91 1799.72 231.188 1789.08 228.794C1747.4 219.403 1728.14 286.441 1729.74 298.811C1732.28 318.816 1746.87 337.304 1769.47 351.989C1793.27 367.445 1826.98 375.346 1850.78 390.669C1868.89 402.347 1887.26 417.989 1893.62 433.738C1900.6 450.896 1887.44 470.422 1877.25 486.543C1863.95 507.639 1847.05 528.149 1840.11 550.282C1831.57 577.496 1839.31 604.604 1880.77 618.597C1900.69 625.327 1911.59 633.973 1920 647.38" stroke="#222225" stroke-miterlimit="10"/>
<path d="M1887.97 354.861C1886.46 355.552 1884.72 356.164 1882.68 356.643C1841.8 366.379 1804.88 343.368 1791.75 323.124C1788.37 317.884 1757.01 276.544 1779.88 276.544C1800.78 276.544 1820.67 287.557 1834.95 294.128C1851.4 301.71 1929.74 335.468 1887.97 354.861Z" stroke="#222225" stroke-miterlimit="10"/>
<path d="M1861.5 336.267C1860.75 336.613 1859.9 336.905 1858.88 337.145C1838.51 342.013 1820.09 330.521 1813.55 320.439C1811.86 317.832 1796.2 297.215 1807.63 297.215C1818.04 297.215 1822.09 305.541 1829.21 308.813C1837.44 312.591 1882.37 326.584 1861.5 336.267Z" stroke="#222225" stroke-miterlimit="10"/>
<path d="M1408.44 256.219C1425.7 238.182 1422.18 210.676 1426.99 192.028C1433.04 168.485 1447.49 155.769 1477.48 141.031C1500.7 129.619 1527.08 120.308 1550.87 109.268C1573.74 98.6802 1621.2 83.7298 1622.94 63.9643C1624.81 43.0017 1578.19 37.4684 1550.87 35.3934C1508.57 32.1746 1460.84 38.1601 1430.68 57.0743C1388.42 83.6234 1353.72 114.349 1325.92 146.963C1301.94 175.108 1262.49 215.172 1289.4 246.828C1305.68 266.008 1345.94 280.081 1381.39 270.903C1393.8 267.684 1402.43 262.524 1408.48 256.219L1408.44 256.219Z" stroke="#222225" stroke-miterlimit="10"/>
<path d="M1470.67 113.1C1498.92 113.1 1536.02 103.231 1557.46 92.7228C1601.01 71.3878 1532.68 48.6163 1497.94 55.5329C1473.03 60.4809 1424.05 113.127 1470.63 113.1L1470.67 113.1Z" stroke="#222225" stroke-miterlimit="10"/>
<path d="M1499.67 92.1357C1507.81 92.1357 1518.49 89.2892 1524.67 86.2566C1537.22 80.1115 1517.56 73.5673 1507.55 75.5359C1500.39 76.9724 1486.28 92.1357 1499.67 92.1091L1499.67 92.1357Z" stroke="#222225" stroke-miterlimit="10"/>
<path d="M1333.93 246.192C1374.77 265.372 1395.54 245.261 1398.83 221.452C1401.1 205.065 1408.71 189.05 1410.71 172.584C1411.69 164.709 1412.31 125.897 1384.24 138.001C1359.55 148.668 1348.83 170.189 1333.31 185.353C1317.34 200.942 1298.03 221.638 1320.36 238.584C1322.94 240.552 1327.92 243.399 1333.88 246.192L1333.93 246.192Z" stroke="#222225" stroke-miterlimit="10"/>
<path d="M1346.74 221.556C1368.05 231.558 1378.86 221.077 1380.59 208.654C1381.79 200.114 1385.75 191.761 1386.78 183.195C1387.27 179.099 1387.62 158.854 1372.99 165.186C1360.13 170.745 1354.53 181.972 1346.43 189.873C1338.11 197.986 1328.06 208.787 1339.67 217.619C1341 218.656 1343.63 220.119 1346.74 221.582L1346.74 221.556Z" stroke="#222225" stroke-miterlimit="10"/>
<path d="M594.434 518.518C604.22 528.493 621.391 537.698 632.601 542.406C674.86 560.044 716.008 533.654 760.803 537.485C775.927 538.789 823.391 553.5 828.062 536.022C829.174 531.819 826.416 527.589 823.391 523.732C813.96 511.761 746.746 472.123 779.842 461.057C789.85 457.705 807.466 449.458 799.325 442.01C787.582 431.289 750.616 441.797 737.805 445.122C712.849 451.613 691.275 461.376 668.855 470.394C647.903 478.854 616.676 481.913 597.859 491.197C582.423 498.832 585.093 509.021 594.39 518.518L594.434 518.518Z" stroke="#222225" stroke-miterlimit="10"/>
<path d="M650.483 505.829C655.421 510.857 664.095 515.512 669.745 517.88C691.052 526.792 711.826 513.464 734.468 515.379C742.119 516.045 766.052 523.467 768.409 514.635C768.987 512.506 767.564 510.378 766.052 508.436C761.292 502.398 727.395 482.393 744.077 476.806C749.148 475.13 758 470.954 753.908 467.203C747.991 461.776 729.308 467.096 722.858 468.772C710.269 472.044 699.371 476.966 688.072 481.541C677.485 485.798 661.738 487.367 652.263 492.049C644.478 495.907 645.813 501.041 650.528 505.829L650.483 505.829Z" stroke="#222225" stroke-miterlimit="10"/>
<path d="M684.114 498.22C686.16 500.295 689.719 502.211 692.032 503.168C700.795 506.84 709.336 501.359 718.633 502.158C721.792 502.424 731.622 505.483 732.601 501.865C732.823 500.987 732.245 500.109 731.622 499.311C729.665 496.837 715.697 488.59 722.592 486.303C724.683 485.611 728.331 483.908 726.64 482.339C724.194 480.104 716.542 482.286 713.873 482.977C708.713 484.334 704.22 486.356 699.55 488.218C695.19 489.974 688.74 490.612 684.826 492.528C681.623 494.124 682.157 496.225 684.114 498.194L684.114 498.22Z" stroke="#222225" stroke-miterlimit="10"/>
<path d="M179.535 469.544C179.535 469.544 179.669 469.624 179.758 469.651C193.904 476.088 211.83 475.716 228.2 478.828C250.487 483.058 255.113 491.172 262.497 503.515C270.727 517.295 270.994 533.922 281.447 546.877C287.141 553.927 298.974 559.779 312.052 559.274C339.365 558.156 345.815 532.459 349.24 520.035C352.621 507.772 357.203 495.455 365.699 484.042C372.372 475.051 399.64 460.632 397.905 451.215C394.302 431.849 328.288 427.167 304.846 422.485C241.901 409.902 156.27 380.32 145.95 336.905C144.438 330.654 138.966 323.285 128.424 322.992C98.9312 322.194 109.251 378.431 111.342 387.37C116.235 407.96 128.557 427.885 147.24 445.416C155.87 453.53 166.591 463.612 179.535 469.544Z" stroke="#222225" stroke-miterlimit="10"/>
<path d="M273.575 451.098C278.691 440.883 322.55 427.887 342.525 439.12L355.87 453.751C355.87 453.751 369.215 464.392 353.646 473.703C326.955 488.325 264.385 469.451 273.575 451.098Z" stroke="#222225" stroke-miterlimit="10"/>
<path d="M328.511 462.414C320.727 463.265 293.636 454.06 296.261 448.846C298.885 443.632 321.572 439.988 326.777 446.771L332.026 453.555C332.026 453.555 338.12 461.376 328.556 462.414L328.511 462.414Z" stroke="#222225" stroke-miterlimit="10"/>
<path d="M193.904 445.122C208.539 448.554 221.35 447.703 224.998 439.589C232.115 423.734 196.039 405.565 177.668 397.744C165.568 392.609 154.18 386.757 144.527 396.147C126.823 413.359 164.1 438.152 193.904 445.149L193.904 445.122Z" stroke="#222225" stroke-miterlimit="10"/>
<path d="M188.967 433.364C196.974 435.252 204.002 434.773 206.004 430.331C209.919 421.632 190.123 411.683 180.026 407.373C173.398 404.553 167.125 401.361 161.876 406.495C152.179 415.939 172.597 429.533 188.967 433.364Z" stroke="#222225" stroke-miterlimit="10"/>
<path d="M1004.79 409.447C1006.53 409.82 1008.26 410.139 1010.04 410.405C1019.25 411.709 1045.23 412.746 1047.77 405.191C1052.12 391.996 980.595 371.087 962.446 373.056C947.989 374.599 951.459 380.956 959.866 386.889C971.298 394.976 986.467 405.457 1004.79 409.447Z" stroke="#222225" stroke-miterlimit="10"/>
<path d="M544.745 231.133C532.423 233.261 518.678 226.345 524.194 218.391C527.219 214.001 542.254 206.845 550.528 208.841C564.184 212.113 559.024 226.824 548.081 230.335C547.014 230.681 545.902 230.947 544.745 231.133Z" stroke="#222225" stroke-miterlimit="10"/>
<path d="M749.459 283.568C742.431 273.273 700.082 264.68 691.719 252.842C683.579 241.323 633.757 233.768 624.193 259.652C614.629 285.536 615.519 326.158 651.862 327.781C688.25 329.403 709.869 331.372 719.299 307.829C723.57 297.161 728.507 300.46 738.828 296.124C749.77 291.522 752.084 287.425 749.415 283.568L749.459 283.568Z" stroke="#222225" stroke-miterlimit="10"/>
<path d="M703.597 283.567C702.485 280.933 699.86 278.193 695.279 275.48C684.291 268.936 653.331 254.198 646.925 271.543C642.299 284.073 642.699 303.705 660.359 304.503C682.378 305.487 708.579 295.432 703.597 283.54L703.597 283.567Z" stroke="#222225" stroke-miterlimit="10"/>
<path d="M654.621 408.439C677.886 410.94 699.149 402.986 721.479 401.23C746.034 399.288 770.856 403.013 795.589 399.607C807.066 398.038 817.875 396.734 815.696 388.754C814.05 382.715 795.278 372.154 788.739 367.525C767.831 352.708 746.435 341.109 712.627 345.498C687.049 348.824 648.126 356.964 634.425 371.622C626.64 379.922 626.863 390.696 634.959 398.889C641.009 405.008 647.548 407.668 654.576 408.439L654.621 408.439Z" stroke="#222225" stroke-miterlimit="10"/>
<path d="M695.811 381.489C708.889 386.277 732.065 387.847 741.139 386.863C755.018 385.373 759.289 375.45 751.37 369.145C743.541 362.92 718.764 361.617 707.065 362.388C699.547 362.894 691.896 365.128 688.382 369.172C683.711 374.546 687.937 378.616 695.811 381.489Z" stroke="#222225" stroke-miterlimit="10"/>
<path d="M626.774 430.465C647.281 430.571 667.832 420.302 687.316 417.616C724.816 412.402 763.472 411.87 801.772 411.311C822.635 411.018 865.117 412.641 858.177 392.663C849.726 368.375 801.772 352.972 768.543 341.932C742.12 333.153 746.791 321.981 759.869 308.546C776.417 291.521 782.155 283.274 757.6 267.127C748.57 261.194 737.049 256.113 729.264 249.543C721.124 242.626 719.033 233.049 707.111 227.755C673.037 212.645 627.263 224.004 609.114 244.541C591.854 264.094 592.032 288.142 591.232 309.664C590.208 337.144 589.185 364.784 591.187 392.237C592.121 405.219 588.34 420.675 611.027 428.017C616.276 429.72 621.525 430.411 626.774 430.438L626.774 430.465Z" stroke="#222225" stroke-miterlimit="10"/>
<path d="M1005.77 725.856C998.745 731.07 993.273 736.71 994.83 743.973C996.165 750.118 1003.73 755.598 1013.51 757.566C1036.47 762.169 1065.16 752.991 1086.24 748.468C1113.96 742.509 1144.61 741.02 1173.92 739.53C1195.58 738.439 1220.18 740.86 1240.82 736.072C1289.49 724.792 1267.78 697.951 1236.6 683.133C1207.24 669.167 1179.66 653.711 1155.1 636.739C1123.57 614.952 1110.75 586.248 1080.42 564.141C1060.35 549.51 1025.84 523.227 992.339 519.689C973.745 517.72 956.13 524.743 950.347 535.251C935.445 562.279 994.652 595.692 1015.2 617.213C1033.44 636.313 1045.76 659.963 1041.54 682.575C1039.4 694.04 1032.95 705.08 1021.7 714.497C1017.07 718.355 1011.02 721.999 1005.77 725.856Z" stroke="#222225" stroke-miterlimit="10"/>
<path d="M1081.75 714.337C1100.97 717.13 1122.94 713.778 1141.8 711.464C1154.66 709.895 1184.55 712.076 1193 704.681C1206.17 693.162 1166.58 678.53 1154.44 673.503C1119.25 658.898 1091.72 638.015 1074.95 614.499C1060.18 593.776 1053.9 568.371 1021.74 554.059C1001.24 544.934 998.434 556.719 1002.39 566.854C1008.71 583.028 1031.26 594.255 1045.32 607.955C1058.98 621.256 1066.76 636.605 1067.78 652.194C1068.94 668.954 1059.64 684.729 1062.62 701.595C1063.96 709.07 1071.16 712.821 1081.71 714.337L1081.75 714.337Z" stroke="#222225" stroke-miterlimit="10"/>
<path d="M1088.87 692.233C1091.05 697.021 1099.72 700.453 1110.49 699.867C1118.41 699.442 1138.11 696.888 1139.54 690.796C1141.8 681.113 1105.11 675.446 1095.59 680.953C1089 684.757 1087.31 688.827 1088.87 692.233Z" stroke="#222225" stroke-miterlimit="10"/>
<path d="M893.23 3.76524C911.602 34.0652 929.173 64.5514 946.076 95.1706C965.293 129.86 983.443 166.411 998.967 202.378C1013.25 235.497 1012.09 271.331 1048.83 299.822C1081.66 325.253 1124.54 331.159 1169.56 344.913C1216.76 359.331 1262.44 378.325 1291.98 405.193C1311.29 422.751 1318.67 441.931 1311.51 462.548C1304.04 484.149 1314.8 503.196 1357.68 489.203C1405.32 473.694 1431.88 440.84 1412.58 409.396C1390.24 373.058 1316.4 362.603 1265.96 344.62C1132.6 297.055 1125.83 197.164 1192.16 121.347C1224.37 84.5297 1243 44.0676 1260.49 3.79176" stroke="#222225" stroke-miterlimit="10"/>
<path d="M1177.84 51.7556C1178.55 34.8632 1169.25 23.1049 1135.84 31.3516C1086.29 43.6153 1065.78 52.793 1026.5 40.556C987.223 28.2923 939.359 32.3891 976.948 71.2018C1023.57 119.352 1001.81 183.011 1058.17 227.65C1063.51 231.879 1069.65 235.976 1077.79 238.025C1118.18 248.16 1124.1 203.468 1127.21 189.768C1133.57 161.703 1142.12 136.218 1156.79 108.977C1161.95 99.4002 1176.99 71.9201 1177.84 51.7556Z" stroke="#222225" stroke-miterlimit="10"/>
<path d="M1117.65 308.76C1133.22 308.76 1133.44 298.711 1137.09 293.178C1142.92 284.24 1130.73 274.556 1122.41 267.826C1115.74 262.426 1097.05 249.497 1087.67 256.228C1083.13 259.473 1084.29 277.722 1084.69 282.058C1085.44 290.119 1079.93 301.844 1093.18 306.1L1117.65 308.76Z" stroke="#222225" stroke-miterlimit="10"/>
<path d="M1359.59 459.409C1359.59 459.409 1403.99 445.097 1386.91 421.607C1369.83 398.117 1330.55 380.746 1330.55 394.02C1330.55 404.395 1341.22 412.243 1345.63 421.767C1349.01 429.109 1347.05 432.115 1344.29 439.377C1342.02 445.336 1336.86 466.724 1359.59 459.409Z" stroke="#222225" stroke-miterlimit="10"/>
<path d="M1059.02 176.652C1063.25 176.998 1067.78 176.226 1071.83 175.189C1087.13 171.278 1099.81 163.803 1106.48 154.678C1120.14 136.083 1130.68 111.318 1127.66 91.9513C1124.41 71.2016 1087.36 69.5778 1054.93 66.4388C1018.85 62.9539 1026.77 71.972 1042.2 85.6456C1057.64 99.2926 1065.51 116.132 1062.53 132.599C1060.93 141.271 1035.71 170.826 1055.42 176.067C1056.57 176.386 1057.77 176.572 1059.02 176.652Z" stroke="#222225" stroke-miterlimit="10"/>
<path d="M1114.31 109.25C1105.77 92.9158 1074.63 84.4229 1083.18 107.913C1091.72 131.402 1096.52 138.505 1085.4 149.146" stroke="#222225" stroke-miterlimit="10"/>
<path d="M1563.91 743.52C1570.62 748.442 1580.14 752.352 1593.89 754.906C1627.03 760.998 1673.87 759.296 1697.85 742.43C1714.53 730.698 1717.73 718.009 1724.89 703.883C1732.19 689.465 1745.76 675.764 1745.98 660.309C1746.2 643.842 1734.46 626.923 1723.65 612.105C1704.12 585.29 1688.46 558.635 1680.01 529.585C1670.67 497.45 1673.11 464.516 1668.76 432.061C1668.18 427.831 1667.29 423.149 1661.99 420.303C1657.68 417.989 1650.83 417.536 1645.76 419.212C1618.71 428.257 1614.89 456.243 1607.9 472.284C1597 497.343 1587.35 524.265 1559.19 544.748C1545.49 554.724 1529.52 563.742 1518.31 574.782C1474.63 617.905 1533.44 662.33 1544.38 705.878C1548.03 720.483 1550.78 733.917 1563.86 743.494L1563.91 743.52Z" stroke="#222225" stroke-miterlimit="10"/>
<path d="M1599.67 701.809C1610.62 707.662 1625.96 710.561 1640.51 709.258C1682.19 705.48 1693.13 673.957 1692.47 653.101C1691.93 636.048 1680.59 620.46 1670.05 604.924C1657.28 586.116 1659.77 535.519 1602.03 547.569C1583.04 551.533 1578.9 565.499 1580.59 576.805C1583.3 594.842 1599.27 611.229 1601.63 629.212C1604.61 651.664 1567.6 675.925 1592.56 697.047C1594.6 698.803 1597 700.399 1599.67 701.809Z" stroke="#222225" stroke-miterlimit="10"/>
<path d="M1622.14 664.936C1634.28 671.134 1659.41 672.89 1663.68 662.728C1666.58 655.785 1670.36 636.205 1653.76 634.077C1635.53 631.763 1610.39 649.373 1616.22 660.014C1617.2 661.823 1619.33 663.499 1622.14 664.936Z" stroke="#222225" stroke-miterlimit="10"/>
<path d="M1621.38 589.387C1622.98 589.707 1624.45 589.84 1625.65 589.733C1637.62 588.776 1645.18 576.459 1632.95 572.788C1626.5 570.872 1605.19 569.276 1601.32 574.623C1597.94 579.305 1612.04 587.499 1621.43 589.361L1621.38 589.387Z" stroke="#222225" stroke-miterlimit="10"/>
<path d="M1550.39 251.086C1605.19 275.852 1662.31 229.751 1686.68 206.5C1700.29 193.518 1710.88 182.239 1732.55 173.434C1757.46 163.272 1786.64 158.51 1815.37 153.775C1844.64 148.96 1875.52 136.989 1867.73 116.212C1863.5 104.906 1847.67 103.337 1832.9 98.0961C1812.93 90.9933 1797.09 82.7467 1785.53 70.9352C1775.92 61.0924 1769.16 54.3887 1749.98 63.061C1711.99 80.3259 1688.73 106.715 1650.74 123.634C1625.21 134.993 1600.25 145.156 1579.92 160.133C1555.81 177.93 1507.99 231.959 1550.34 251.112L1550.39 251.086Z" stroke="#222225" stroke-miterlimit="10"/>
<path d="M1645.27 202.057C1661.1 184.793 1685.04 172.023 1712.62 161.595C1733.61 153.668 1766.09 145.235 1765.77 127.624C1765.2 96.3667 1699.36 120.974 1678.81 129.167C1644.65 142.788 1610.08 157.552 1586.91 178.248C1569.74 193.571 1562.26 224.057 1603.68 228.58C1628.85 231.32 1635.62 212.831 1644.42 202.989C1644.69 202.669 1645 202.35 1645.27 202.031L1645.27 202.057Z" stroke="#222225" stroke-miterlimit="10"/>
<path d="M1918.22 200.939C1906.12 201.072 1888.06 203.467 1877.83 198.652C1857.19 188.889 1870.27 168.352 1877.83 156.593C1889.44 138.451 1904.3 125.522 1895.89 105.145C1889.26 89.0503 1866.75 79.1277 1857.46 63.9644C1852.25 55.4517 1852.47 43.5073 1863.37 36.032C1877.47 26.3488 1902.92 28.4504 1918.22 19.0598" stroke="#222225" stroke-miterlimit="10"/>
<path d="M1804.56 56.995C1777.92 52.9248 1749.67 33.1594 1761.06 28.2912C1777.16 21.4278 1848.11 23.0506 1842.2 39.943C1836.55 56.1172 1820.84 59.469 1804.61 56.995L1804.56 56.995Z" stroke="#222225" stroke-miterlimit="10"/>
<path d="M1802.47 48.804C1789.57 46.8354 1775.92 37.2586 1781.39 34.9176C1789.17 31.5923 1823.51 32.3903 1820.67 40.5572C1817.91 48.3783 1810.35 50.0277 1802.47 48.804Z" stroke="#222225" stroke-miterlimit="10"/>
<path d="M205.113 60.8012C216.634 59.0987 228.066 56.7311 239.498 53.06C300.53 33.5871 393.634 29.7297 430.911 72.6392C449.639 94.2136 432.379 108.446 417.522 127.413C386.828 166.652 377.753 209.88 385.405 252.736C389.275 274.284 396.97 295.539 406.712 316.396C414.897 333.9 435.626 352.309 434.025 371.01C433.491 377.182 428.732 383.566 419.746 386.652C386.917 397.932 323.217 355.927 306.624 342.173C286.028 325.041 272.327 305.223 264.543 284.712C257.158 265.319 253.021 244.782 237.808 226.826C218.013 203.442 176.154 206.369 138.12 214.137C129.357 215.919 120.816 218.18 111.697 219.138C102.578 220.096 92.5248 219.563 85.185 216.238C63.2991 206.342 78.8683 188.359 84.2064 176.282C91.4572 159.841 97.0176 141.459 95.1938 124.381C93.8593 111.798 80.1584 97.9114 87.1423 85.4083C100.799 60.9076 172.373 65.6428 205.113 60.8012Z" stroke="#222225" stroke-miterlimit="10"/>
<path d="M168.459 170.906C182.382 174.737 199.331 172.662 214.544 174.311C235.852 176.625 256.225 180.563 268.903 191.842C288.565 209.293 281.937 232.41 289.187 252.016C293.235 263.003 312.007 314.931 344.169 306.019C365.076 300.246 352.799 272.26 349.996 262.231C342.523 235.47 334.427 208.096 338.964 180.882C343.101 156.088 383.937 125.07 369.347 100.915C351.064 70.6952 256.981 95.9141 226.154 104.507C194.971 113.206 115.212 142.521 159.74 167.394C162.454 168.911 165.39 170.055 168.459 170.906Z" stroke="#222225" stroke-miterlimit="10"/>
<path d="M242.657 139.941C243.636 134.115 247.284 128.422 253.689 123.607C266.856 113.684 299.596 105.757 317.568 115.946C325.174 120.255 327.265 126.906 328.288 133.157C330.824 148.773 334.471 179.818 310.673 190.937C289.143 200.966 257.47 166.729 249.953 159.254C244.036 153.375 241.634 146.565 242.702 139.967L242.657 139.941Z" stroke="#222225" stroke-miterlimit="10"/>
<path d="M270.416 147.604C270.771 145.475 272.106 143.427 274.419 141.671C279.223 138.053 291.1 135.18 297.595 138.878C300.353 140.448 301.109 142.868 301.51 145.13C302.444 150.796 303.778 162.075 295.104 166.119C287.275 169.763 275.798 157.34 273.04 154.6C270.905 152.472 270.015 149.998 270.416 147.604Z" stroke="#222225" stroke-miterlimit="10"/>
<path d="M364.766 357.973C373.306 370.289 419.036 378.846 416.011 357.963C414.588 348.094 382.159 338.278 367.435 342.534C359.339 344.875 358.004 348.52 360.674 352.35L364.766 357.973Z" stroke="#222225" stroke-miterlimit="10"/>
<path d="M1.51223 497.209C19.706 493.405 37.7218 486.861 49.7769 477.79C76.5115 457.652 57.6505 427.192 49.0651 405.485C36.7877 374.44 30.2041 341.772 46.0403 310.674C57.4725 288.196 86.7872 269.015 89.2338 245.126C91.9473 218.95 26.8234 235.869 0.622553 234.672" stroke="#222225" stroke-miterlimit="10"/>
<path d="M537.984 751.075C542.611 751.049 547.281 751.022 551.908 751.075C609.647 751.661 673.303 760.439 718.499 732.906C744.032 717.344 756.977 693.136 745.5 671.987C737.048 656.424 720.367 643.363 692.876 642.405C639.496 640.543 592.477 637.643 556.979 611.626C544.301 602.315 534.959 591.488 529.31 579.97C519.346 559.725 519.568 521.046 465.387 545.733C446.348 554.405 432.336 577.416 447.416 590.158C467.256 606.918 487.851 626.311 498.928 645.863C504.488 655.706 506.446 666.56 501.108 676.456C491.677 693.88 457.291 703.351 432.336 711.252C412.051 717.69 379.801 730.139 410.583 743.84C418.991 747.59 429.578 749.027 439.898 750.064C472.327 753.283 505.289 751.341 537.984 751.075Z" stroke="#222225" stroke-miterlimit="10"/>
<path d="M550.128 720.084C586.605 720.084 699.46 718.488 694.922 684.623C692.787 668.715 653.197 656.371 631.133 651.343C609.247 646.369 584.781 647.486 561.961 645.172C538.34 642.778 533.714 660.415 531.668 670.55C530.111 678.238 529.799 686.192 526.596 693.747C524.061 699.68 507.024 705.585 509.337 712.502C512.673 722.478 537.717 720.057 550.128 720.057L550.128 720.084Z" stroke="#222225" stroke-miterlimit="10"/>
<path d="M597.726 695.396C612.094 696.221 654.754 701.275 643.944 683.877C638.473 675.045 618.766 664.431 601.017 666.586C581 669.033 576.151 693.241 597.726 695.396Z" stroke="#222225" stroke-miterlimit="10"/>
</svg>
