<svg width="117" height="63" viewBox="0 0 117 63" fill="none" xmlns="http://www.w3.org/2000/svg">
<path d="M83.4875 61.3536H82.8102L82.4268 60.7952L62.9924 32.4885L62.4924 31.7603L62.9924 31.032L82.4268 2.72535L82.8102 2.16695H83.4875H111.653H114.048L112.726 4.16363L94.4659 31.7603L112.726 59.3569L114.048 61.3536H111.653H83.4875ZM23.0078 61.3536H22.3305L21.9471 60.7952L2.5126 32.4885L2.0126 31.7603L2.5126 31.032L12.2298 16.8787L21.9471 2.72535L22.3305 2.16695H23.0078H51.1737H53.5679L52.2467 4.16363L33.9862 31.7603L52.2467 59.3569L53.5679 61.3536H51.1737H23.0078Z" stroke="#808389" stroke-width="2.57333"/>
</svg>
