<svg width="156" height="204" viewBox="0 0 156 204" fill="none" xmlns="http://www.w3.org/2000/svg">
<path d="M117.59 27.6151H106.193L103.833 36H100.469L111.013 0H112.72L123.314 36H119.975L117.59 27.6151ZM107.071 24.5272H116.737L111.992 7.93305L111.891 6.60251L111.791 7.93305L107.071 24.5272Z" fill="#222225"/>
<path d="M92.5854 36V19.5565H78.8029V36H75.5645V0H78.8029V16.4686H92.5854V0H95.8239V36H92.5854Z" fill="#222225"/>
<path d="M69.3639 13.3305C69.3639 14.5523 69.1296 15.6987 68.661 16.7699C68.2091 17.841 67.5815 18.7782 66.7781 19.5816C65.9748 20.3849 65.0292 21.0209 63.9413 21.4895C62.8702 21.9414 61.7237 22.1674 60.502 22.1674H52.343V36H49.1045V0H60.502C61.7237 0 62.8702 0.23431 63.9413 0.702929C65.0292 1.15481 65.9748 1.78243 66.7781 2.58577C67.5815 3.38912 68.2091 4.33473 68.661 5.42259C69.1296 6.49372 69.3639 7.64017 69.3639 8.86192V13.3305ZM66.1254 8.86192C66.1254 8.05858 65.9748 7.31381 65.6735 6.62761C65.3723 5.92469 64.9539 5.31381 64.4183 4.79498C63.8995 4.25941 63.2886 3.841 62.5857 3.53975C61.8995 3.23849 61.1547 3.08787 60.3514 3.08787H52.343V19.0795H60.3514C61.1547 19.0795 61.8995 18.9289 62.5857 18.6276C63.2886 18.3264 63.8995 17.9163 64.4183 17.3975C64.9539 16.8787 65.3723 16.2761 65.6735 15.59C65.9748 14.887 66.1254 14.1339 66.1254 13.3305V8.86192Z" fill="#222225"/>
<path d="M26.937 36V0H30.1755V32.9121H43.9579V36H26.937Z" fill="#222225"/>
<path d="M17.1213 27.6151H5.72385L3.36402 36H0L10.5439 0H12.251L22.8452 36H19.5063L17.1213 27.6151ZM6.60251 24.5272H16.2678L11.523 7.93305L11.4226 6.60251L11.3222 7.93305L6.60251 24.5272Z" fill="#222225"/>
<path d="M116.45 83.403C116.45 84.5916 116.222 85.7069 115.767 86.749C115.327 87.791 114.716 88.7029 113.935 89.4844C113.153 90.2659 112.241 90.8847 111.199 91.3406C110.157 91.7802 109.042 92 107.853 92H105.362C104.174 92 103.05 91.7802 101.992 91.3406C100.95 90.8847 100.038 90.2659 99.2563 89.4844C98.4748 88.7029 97.8561 87.791 97.4002 86.749C96.9605 85.7069 96.7407 84.5916 96.7407 83.403V64.597C96.7407 63.4084 96.9605 62.2931 97.4002 61.251C97.8561 60.209 98.4748 59.2972 99.2563 58.5156C100.038 57.7341 100.95 57.1235 101.992 56.6839C103.05 56.228 104.174 56 105.362 56H107.853C109.042 56 110.157 56.228 111.199 56.6839C112.241 57.1235 113.153 57.7341 113.935 58.5156C114.716 59.2972 115.327 60.209 115.767 61.251C116.222 62.2931 116.45 63.4084 116.45 64.597V83.403ZM113.3 64.597C113.3 63.8155 113.153 63.0909 112.86 62.4233C112.567 61.7395 112.168 61.1452 111.663 60.6404C111.159 60.1357 110.564 59.7368 109.88 59.4437C109.213 59.1506 108.488 59.0041 107.707 59.0041H105.509C104.727 59.0041 103.994 59.1506 103.311 59.4437C102.643 59.7368 102.049 60.1357 101.528 60.6404C101.023 61.1452 100.624 61.7395 100.331 62.4233C100.038 63.0909 99.8913 63.8155 99.8913 64.597V83.403C99.8913 84.1845 100.038 84.9172 100.331 85.6011C100.624 86.2687 101.023 86.863 101.528 87.384C102.049 87.8887 102.643 88.2877 103.311 88.5807C103.994 88.8738 104.727 89.0204 105.509 89.0204H107.707C108.488 89.0204 109.213 88.8738 109.88 88.5807C110.564 88.2877 111.159 87.8887 111.663 87.384C112.168 86.863 112.567 86.2687 112.86 85.6011C113.153 84.9172 113.3 84.1845 113.3 83.403V64.597Z" fill="#222225"/>
<path d="M81.5496 83.818L81.6473 85.1124L81.745 83.818L89.5116 56.4883H92.7599L82.4533 91.5113H80.7925L70.5347 56.4883H73.8074L81.5496 83.818Z" fill="#222225"/>
<path d="M65.0151 83.3539H53.9269L51.6311 91.5113H48.3584L58.6162 56.4883H60.277L70.5836 91.5113H67.3353L65.0151 83.3539ZM54.7817 80.3499H64.1847L59.5687 64.2061L59.471 62.9116L59.3733 64.2061L54.7817 80.3499Z" fill="#222225"/>
<path d="M42.2037 91.5113L32.703 76.5643H28.3801V91.5113H25.2295V56.4883H36.3421C37.5307 56.4883 38.646 56.7162 39.6881 57.1721C40.7302 57.6118 41.642 58.2223 42.4235 59.0039C43.2051 59.7854 43.8157 60.7054 44.2553 61.7637C44.7112 62.8058 44.9391 63.9211 44.9391 65.1097V67.9428C44.9391 69.1314 44.7112 70.2549 44.2553 71.3132C43.8157 72.3553 43.2051 73.2671 42.4235 74.0487C41.642 74.8302 40.7302 75.4489 39.6881 75.9048C38.646 76.3445 37.5307 76.5643 36.3421 76.5643L45.8428 91.5113H42.2037ZM41.7885 65.1097C41.7885 64.3282 41.642 63.6036 41.3489 62.936C41.0558 62.2522 40.6569 61.6579 40.1522 61.1531C39.6474 60.6321 39.0531 60.2251 38.3692 59.932C37.7017 59.6389 36.9771 59.4924 36.1956 59.4924H28.3801V73.5602H36.1956C36.9771 73.5602 37.7017 73.4137 38.3692 73.1206C39.0531 72.8275 39.6474 72.4286 40.1522 71.9238C40.6569 71.4028 41.0558 70.8085 41.3489 70.1409C41.642 69.4571 41.7885 68.7244 41.7885 67.9428V65.1097Z" fill="#222225"/>
<path d="M19.7096 82.9143C19.7096 84.1029 19.4817 85.2183 19.0258 86.2603C18.5862 87.3024 17.9756 88.2142 17.194 88.9957C16.4125 89.7773 15.4925 90.396 14.4342 90.8519C13.3921 91.2915 12.2768 91.5113 11.0882 91.5113H0V56.4883H11.0882C12.2768 56.4883 13.3921 56.7162 14.4342 57.1721C15.4925 57.6118 16.4125 58.2223 17.194 59.0039C17.9756 59.7854 18.5862 60.7054 19.0258 61.7637C19.4817 62.8058 19.7096 63.9211 19.7096 65.1097V65.4516C19.7096 66.282 19.5957 67.0799 19.3677 67.8451C19.156 68.5941 18.8467 69.2942 18.4396 69.9455C18.0326 70.5968 17.5522 71.1911 16.9986 71.7284C16.445 72.2495 15.8263 72.6891 15.1425 73.0473C15.8263 73.4055 16.445 73.8533 16.9986 74.3906C17.5522 74.9116 18.0326 75.5059 18.4396 76.1735C18.8467 76.8248 19.156 77.5331 19.3677 78.2983C19.5957 79.0473 19.7096 79.837 19.7096 80.6674V82.9143ZM16.559 80.1545C16.559 79.3729 16.4125 78.6484 16.1194 77.9808C15.8263 77.297 15.4193 76.7027 14.8982 76.1979C14.3935 75.6932 13.7992 75.2942 13.1153 75.0012C12.4478 74.7081 11.7232 74.5615 10.9417 74.5615H3.15061V88.5073H10.9417C11.7232 88.5073 12.4478 88.3607 13.1153 88.0677C13.7992 87.7746 14.3935 87.3757 14.8982 86.8709C15.4193 86.3662 15.8263 85.78 16.1194 85.1124C16.4125 84.4286 16.559 83.6959 16.559 82.9143V80.1545ZM16.559 65.1097C16.559 64.3282 16.4125 63.6036 16.1194 62.936C15.8263 62.2522 15.4193 61.6579 14.8982 61.1531C14.3935 60.6321 13.7992 60.2251 13.1153 59.932C12.4478 59.6389 11.7232 59.4924 10.9417 59.4924H3.15061V71.5575H10.9417C11.7232 71.5575 12.4478 71.4109 13.1153 71.1179C13.7992 70.8248 14.3935 70.4259 14.8982 69.9211C15.4193 69.4001 15.8263 68.8058 16.1194 68.1382C16.4125 67.4544 16.559 66.7217 16.559 65.9401V65.1097Z" fill="#222225"/>
<path d="M136.062 147.512V112.489H155.772V115.493H139.213V128.51H152.622V131.515H139.213V144.508H155.772V147.512H136.062Z" fill="#222225"/>
<path d="M124.877 147.512V112.489H128.028V147.512H124.877Z" fill="#222225"/>
<path d="M103.311 147.512V112.489H106.461V144.508H119.87V147.512H103.311Z" fill="#222225"/>
<path d="M94.152 147.512L84.6513 132.565H80.3283V147.512H77.1777V112.489H88.2904C89.479 112.489 90.5943 112.717 91.6363 113.173C92.6784 113.612 93.5902 114.223 94.3718 115.004C95.1533 115.786 95.7639 116.706 96.2035 117.764C96.6594 118.806 96.8874 119.922 96.8874 121.11V123.943C96.8874 125.132 96.6594 126.255 96.2035 127.314C95.7639 128.356 95.1533 129.268 94.3718 130.049C93.5902 130.831 92.6784 131.449 91.6363 131.905C90.5943 132.345 89.479 132.565 88.2904 132.565L97.791 147.512H94.152ZM93.7368 121.11C93.7368 120.329 93.5902 119.604 93.2971 118.937C93.0041 118.253 92.6051 117.658 92.1004 117.154C91.5956 116.633 91.0013 116.226 90.3175 115.932C89.6499 115.639 88.9254 115.493 88.1438 115.493H80.3283V129.561H88.1438C88.9254 129.561 89.6499 129.414 90.3175 129.121C91.0013 128.828 91.5956 128.429 92.1004 127.924C92.6051 127.403 93.0041 126.809 93.2971 126.141C93.5902 125.458 93.7368 124.725 93.7368 123.943V121.11Z" fill="#222225"/>
<path d="M67.6284 139.354H56.5402L54.2444 147.512H50.9717L61.2295 112.489H62.8903L73.1969 147.512H69.9486L67.6284 139.354ZM57.395 136.35H66.798L62.182 120.207L62.0843 118.912L61.9866 120.207L57.395 136.35Z" fill="#222225"/>
<path d="M43.3027 147.512V131.515H29.8943V147.512H26.7437V112.489H29.8943V128.51H43.3027V112.489H46.4533V147.512H43.3027Z" fill="#222225"/>
<path d="M19.7096 139.403C19.7096 140.592 19.4817 141.707 19.0258 142.749C18.5862 143.791 17.9756 144.703 17.194 145.484C16.4125 146.266 15.5007 146.885 14.4586 147.341C13.4166 147.78 12.3012 148 11.1126 148H8.62144C7.43284 148 6.30936 147.78 5.25102 147.341C4.20896 146.885 3.29715 146.266 2.5156 145.484C1.73406 144.703 1.11533 143.791 0.65943 142.749C0.21981 141.707 0 140.592 0 139.403V120.597C0 119.408 0.21981 118.293 0.65943 117.251C1.11533 116.209 1.73406 115.297 2.5156 114.516C3.29715 113.734 4.20896 113.123 5.25102 112.684C6.30936 112.228 7.43284 112 8.62144 112H11.1126C12.3012 112 13.4166 112.228 14.4586 112.684C15.5007 113.123 16.4125 113.734 17.194 114.516C17.9756 115.297 18.5862 116.209 19.0258 117.251C19.4817 118.293 19.7096 119.408 19.7096 120.597V122.014L16.559 122.502V120.597C16.559 119.815 16.4125 119.091 16.1194 118.423C15.8263 117.739 15.4274 117.145 14.9227 116.64C14.4179 116.136 13.8236 115.737 13.1398 115.444C12.4722 115.151 11.7476 115.004 10.9661 115.004H8.76798C7.98643 115.004 7.25373 115.151 6.56988 115.444C5.90231 115.737 5.30801 116.136 4.78697 116.64C4.28223 117.145 3.88331 117.739 3.59023 118.423C3.29715 119.091 3.15061 119.815 3.15061 120.597V139.403C3.15061 140.185 3.29715 140.917 3.59023 141.601C3.88331 142.269 4.28223 142.863 4.78697 143.384C5.30801 143.889 5.90231 144.288 6.56988 144.581C7.25373 144.874 7.98643 145.02 8.76798 145.02H10.9661C11.7476 145.02 12.4722 144.874 13.1398 144.581C13.8236 144.288 14.4179 143.889 14.9227 143.384C15.4274 142.863 15.8263 142.269 16.1194 141.601C16.4125 140.917 16.559 140.185 16.559 139.403V137.498L19.7096 138.011V139.403Z" fill="#222225"/>
<path d="M98.9142 195.403C98.9142 196.592 98.6863 197.707 98.2304 198.749C97.7908 199.791 97.1802 200.703 96.3986 201.484C95.6171 202.266 94.7053 202.885 93.6632 203.341C92.6211 203.78 91.5058 204 90.3172 204H87.826C86.6374 204 85.514 203.78 84.4556 203.341C83.4135 202.885 82.5017 202.266 81.7202 201.484C80.9386 200.703 80.3199 199.791 79.864 198.749C79.4244 197.707 79.2046 196.592 79.2046 195.403V176.597C79.2046 175.408 79.4244 174.293 79.864 173.251C80.3199 172.209 80.9386 171.297 81.7202 170.516C82.5017 169.734 83.4135 169.123 84.4556 168.684C85.514 168.228 86.6374 168 87.826 168H90.3172C91.5058 168 92.6211 168.228 93.6632 168.684C94.7053 169.123 95.6171 169.734 96.3986 170.516C97.1802 171.297 97.7908 172.209 98.2304 173.251C98.6863 174.293 98.9142 175.408 98.9142 176.597V195.403ZM95.7636 176.597C95.7636 175.815 95.6171 175.091 95.324 174.423C95.0309 173.739 94.632 173.145 94.1272 172.64C93.6225 172.136 93.0282 171.737 92.3443 171.444C91.6768 171.151 90.9522 171.004 90.1707 171.004H87.9726C87.191 171.004 86.4583 171.151 85.7745 171.444C85.1069 171.737 84.5126 172.136 83.9916 172.64C83.4868 173.145 83.0879 173.739 82.7948 174.423C82.5017 175.091 82.3552 175.815 82.3552 176.597V195.403C82.3552 196.185 82.5017 196.917 82.7948 197.601C83.0879 198.269 83.4868 198.863 83.9916 199.384C84.5126 199.889 85.1069 200.288 85.7745 200.581C86.4583 200.874 87.191 201.02 87.9726 201.02H90.1707C90.9522 201.02 91.6768 200.874 92.3443 200.581C93.0282 200.288 93.6225 199.889 94.1272 199.384C94.632 198.863 95.0309 198.269 95.324 197.601C95.6171 196.917 95.7636 196.185 95.7636 195.403V176.597Z" fill="#222225"/>
<path d="M68.5317 203.511V187.514H55.1233V203.511H51.9727V168.488H55.1233V184.51H68.5317V168.488H71.6823V203.511H68.5317Z" fill="#222225"/>
<path d="M44.9391 195.403C44.9391 196.592 44.7112 197.707 44.2553 198.749C43.8157 199.791 43.2051 200.703 42.4235 201.484C41.642 202.266 40.7302 202.885 39.6881 203.341C38.646 203.78 37.5307 204 36.3421 204H33.8509C32.6623 204 31.5389 203.78 30.4805 203.341C29.4384 202.885 28.5266 202.266 27.7451 201.484C26.9635 200.703 26.3448 199.791 25.8889 198.749C25.4493 197.707 25.2295 196.592 25.2295 195.403V176.597C25.2295 175.408 25.4493 174.293 25.8889 173.251C26.3448 172.209 26.9635 171.297 27.7451 170.516C28.5266 169.734 29.4384 169.123 30.4805 168.684C31.5389 168.228 32.6623 168 33.8509 168H36.3421C37.5307 168 38.646 168.228 39.6881 168.684C40.7302 169.123 41.642 169.734 42.4235 170.516C43.2051 171.297 43.8157 172.209 44.2553 173.251C44.7112 174.293 44.9391 175.408 44.9391 176.597V178.014L41.7885 178.502V176.597C41.7885 175.815 41.642 175.091 41.3489 174.423C41.0558 173.739 40.6569 173.145 40.1522 172.64C39.6474 172.136 39.0531 171.737 38.3692 171.444C37.7017 171.151 36.9771 171.004 36.1956 171.004H33.9975C33.2159 171.004 32.4832 171.151 31.7994 171.444C31.1318 171.737 30.5375 172.136 30.0165 172.64C29.5117 173.145 29.1128 173.739 28.8197 174.423C28.5266 175.091 28.3801 175.815 28.3801 176.597V195.403C28.3801 196.185 28.5266 196.917 28.8197 197.601C29.1128 198.269 29.5117 198.863 30.0165 199.384C30.5375 199.889 31.1318 200.288 31.7994 200.581C32.4832 200.874 33.2159 201.02 33.9975 201.02H36.1956C36.9771 201.02 37.7017 200.874 38.3692 200.581C39.0531 200.288 39.6474 199.889 40.1522 199.384C40.6569 198.863 41.0558 198.269 41.3489 197.601C41.642 196.917 41.7885 196.185 41.7885 195.403V193.498L44.9391 194.011V195.403Z" fill="#222225"/>
<path d="M0 203.511V168.488H19.7096V171.492H3.15061V184.51H16.559V187.514H3.15061V200.507H19.7096V203.511H0Z" fill="#222225"/>
</svg>
