<svg width="300" height="18" viewBox="0 0 300 18" fill="none" xmlns="http://www.w3.org/2000/svg">
<rect y="16" width="300" height="2" fill="#38383D"/>
<rect x="148" width="4" height="16" fill="#38383D"/>
<rect x="96" y="4" width="4" height="12" fill="#38383D"/>
<rect x="200" y="4" width="4" height="12" fill="#38383D"/>
<rect x="138" y="10" width="2" height="6" fill="#38383D"/>
<rect x="242" y="10" width="2" height="6" fill="#38383D"/>
<rect x="86" y="10" width="2" height="6" fill="#38383D"/>
<rect x="190" y="10" width="2" height="6" fill="#38383D"/>
<rect x="128" y="10" width="2" height="6" fill="#38383D"/>
<rect x="232" y="10" width="2" height="6" fill="#38383D"/>
<rect x="76" y="10" width="2" height="6" fill="#38383D"/>
<rect x="180" y="10" width="2" height="6" fill="#38383D"/>
<rect x="118" y="10" width="2" height="6" fill="#38383D"/>
<rect x="222" y="10" width="2" height="6" fill="#38383D"/>
<rect x="66" y="10" width="2" height="6" fill="#38383D"/>
<rect x="170" y="10" width="2" height="6" fill="#38383D"/>
<rect x="108" y="10" width="2" height="6" fill="#38383D"/>
<rect x="212" y="10" width="2" height="6" fill="#38383D"/>
<rect x="56" y="10" width="2" height="6" fill="#38383D"/>
<rect x="160" y="10" width="2" height="6" fill="#38383D"/>
</svg>
