<svg width="455" height="110" viewBox="0 0 455 110" fill="none" xmlns="http://www.w3.org/2000/svg">
<rect x="455" y="109.667" width="23.3333" height="3.88889" transform="rotate(-180 455 109.667)" fill="#FF0000"/>
<rect x="451.111" y="109.667" width="23.3333" height="3.88889" transform="rotate(-90 451.111 109.667)" fill="#FF0000"/>
<rect x="455" y="0.777832" width="23.3333" height="3.88889" transform="rotate(90 455 0.777832)" fill="#FF0000"/>
<rect x="455" y="4.6665" width="23.3333" height="3.88889" transform="rotate(180 455 4.6665)" fill="#FF0000"/>
<rect width="23.3333" height="3.88889" transform="matrix(1 -8.74228e-08 -8.74228e-08 -1 0 109.667)" fill="#FF0000"/>
<rect width="23.3333" height="3.88889" transform="matrix(4.37114e-08 -1 -1 -4.37114e-08 3.88867 109.667)" fill="#FF0000"/>
<rect width="23.3333" height="3.88889" transform="matrix(4.37114e-08 1 1 -4.37114e-08 0 0.777832)" fill="#FF0000"/>
<rect width="23.3333" height="3.88889" transform="matrix(1 8.74228e-08 8.74228e-08 -1 0 4.6665)" fill="#FF0000"/>
</svg>
