<svg width="254" height="50" viewBox="0 0 254 50" fill="none" xmlns="http://www.w3.org/2000/svg">
<path d="M243.598 49.2344V32.4297H253.055V33.8711H245.109V40.1172H251.543V41.5586H245.109V47.793H253.055V49.2344H243.598Z" fill="#38383D"/>
<path d="M236.742 37.5977H236.145L235.547 32.4297H237.34L236.742 37.5977ZM239.625 37.5977H239.027L238.43 32.4297H240.223L239.625 37.5977Z" fill="#38383D"/>
<path d="M227.766 33.6367C227.391 33.6367 227.039 33.707 226.711 33.8477C226.391 33.9883 226.109 34.1797 225.867 34.4219C225.625 34.6641 225.434 34.9492 225.293 35.2773C225.152 35.5977 225.082 35.9453 225.082 36.3203V37L223.57 36.7539V36.3203C223.57 35.75 223.676 35.2148 223.887 34.7148C224.105 34.2148 224.402 33.7773 224.777 33.4023C225.152 33.0273 225.59 32.7344 226.09 32.5234C226.59 32.3047 227.125 32.1953 227.695 32.1953H228.41C228.98 32.1953 229.516 32.2969 230.016 32.5C230.523 32.7031 230.965 32.9961 231.34 33.3789C231.715 33.7617 232.008 34.2227 232.219 34.7617C232.438 35.293 232.547 35.8945 232.547 36.5664C232.547 37.2305 232.445 37.8984 232.242 38.5703C232.047 39.2422 231.785 39.9023 231.457 40.5508C231.137 41.1992 230.766 41.8281 230.344 42.4375C229.93 43.0469 229.504 43.6211 229.066 44.1602C228.043 45.418 226.883 46.6289 225.586 47.793H232.664V49.2344H223.207V48.0391C224.668 46.8359 225.973 45.5898 227.121 44.3008C227.613 43.7461 228.094 43.1562 228.562 42.5312C229.031 41.9062 229.449 41.2656 229.816 40.6094C230.184 39.9453 230.477 39.2734 230.695 38.5938C230.922 37.9062 231.035 37.2305 231.035 36.5664C231.035 36.0742 230.961 35.6445 230.812 35.2773C230.664 34.9102 230.465 34.6055 230.215 34.3633C229.965 34.1211 229.676 33.9414 229.348 33.8242C229.027 33.6992 228.691 33.6367 228.34 33.6367H227.766Z" fill="#38383D"/>
<path d="M218.766 49.2344V47.4297H220.57V49.2344H218.766Z" fill="#38383D"/>
<path d="M216.082 45.3438C216.082 45.9141 215.973 46.4492 215.754 46.9492C215.543 47.4492 215.25 47.8867 214.875 48.2617C214.5 48.6367 214.062 48.9336 213.562 49.1523C213.062 49.3633 212.527 49.4688 211.957 49.4688H211.23C210.66 49.4688 210.125 49.3633 209.625 49.1523C209.125 48.9336 208.688 48.6367 208.312 48.2617C207.938 47.8867 207.641 47.4492 207.422 46.9492C207.211 46.4492 207.105 45.9141 207.105 45.3438V36.3203C207.105 35.75 207.211 35.2148 207.422 34.7148C207.641 34.2148 207.938 33.7773 208.312 33.4023C208.688 33.0273 209.125 32.7344 209.625 32.5234C210.125 32.3047 210.66 32.1953 211.23 32.1953H211.957C212.527 32.1953 213.062 32.3047 213.562 32.5234C214.062 32.7344 214.5 33.0273 214.875 33.4023C215.25 33.7773 215.543 34.2148 215.754 34.7148C215.973 35.2148 216.082 35.75 216.082 36.3203V36.7539L214.57 37V36.3203C214.57 35.9453 214.5 35.5977 214.359 35.2773C214.219 34.9492 214.023 34.6641 213.773 34.4219C213.531 34.1797 213.246 33.9883 212.918 33.8477C212.598 33.707 212.25 33.6367 211.875 33.6367H211.301C210.926 33.6367 210.574 33.707 210.246 33.8477C209.926 33.9883 209.645 34.1797 209.402 34.4219C209.16 34.6641 208.969 34.9492 208.828 35.2773C208.688 35.5977 208.617 35.9453 208.617 36.3203V40.5039C209 40.082 209.457 39.7461 209.988 39.4961C210.527 39.2383 211.102 39.1094 211.711 39.1094H211.957C212.527 39.1094 213.062 39.2188 213.562 39.4375C214.062 39.6484 214.5 39.9414 214.875 40.3164C215.25 40.6914 215.543 41.1289 215.754 41.6289C215.973 42.1289 216.082 42.6641 216.082 43.2344V45.3438ZM214.57 43.2344C214.57 42.8594 214.5 42.5117 214.359 42.1914C214.219 41.8633 214.023 41.5781 213.773 41.3359C213.531 41.0938 213.246 40.9023 212.918 40.7617C212.598 40.6211 212.25 40.5508 211.875 40.5508H211.301C210.926 40.5508 210.574 40.6211 210.246 40.7617C209.926 40.9023 209.645 41.0938 209.402 41.3359C209.16 41.5781 208.969 41.8633 208.828 42.1914C208.688 42.5117 208.617 42.8594 208.617 43.2344V45.3438C208.617 45.7188 208.688 46.0703 208.828 46.3984C208.969 46.7188 209.16 47.0039 209.402 47.2539C209.645 47.4961 209.926 47.6875 210.246 47.8281C210.574 47.9688 210.926 48.0391 211.301 48.0391H211.875C212.25 48.0391 212.598 47.9688 212.918 47.8281C213.246 47.6875 213.531 47.4961 213.773 47.2539C214.023 47.0039 214.219 46.7188 214.359 46.3984C214.5 46.0703 214.57 45.7188 214.57 45.3438V43.2344Z" fill="#38383D"/>
<path d="M203.977 45.3438C203.977 45.9141 203.867 46.4492 203.648 46.9492C203.438 47.4492 203.145 47.8867 202.77 48.2617C202.395 48.6367 201.957 48.9336 201.457 49.1523C200.957 49.3633 200.422 49.4688 199.852 49.4688H199.137C198.566 49.4688 198.027 49.3633 197.52 49.1523C197.02 48.9336 196.582 48.6367 196.207 48.2617C195.832 47.8867 195.535 47.4492 195.316 46.9492C195.105 46.4492 195 45.9141 195 45.3438V45.0859H196.512V45.3438C196.512 45.7188 196.582 46.0703 196.723 46.3984C196.863 46.7188 197.055 47.0039 197.297 47.2539C197.547 47.4961 197.832 47.6875 198.152 47.8281C198.48 47.9688 198.832 48.0391 199.207 48.0391H199.781C200.156 48.0391 200.504 47.9688 200.824 47.8281C201.152 47.6875 201.438 47.4961 201.68 47.2539C201.922 47.0039 202.113 46.7188 202.254 46.3984C202.395 46.0703 202.465 45.7188 202.465 45.3438V42.0859C202.465 41.7109 202.395 41.3633 202.254 41.043C202.113 40.7148 201.922 40.4297 201.68 40.1875C201.438 39.9375 201.152 39.7422 200.824 39.6016C200.504 39.4609 200.156 39.3906 199.781 39.3906H199.207C198.832 39.3906 198.48 39.4609 198.152 39.6016C197.832 39.7422 197.547 39.9375 197.297 40.1875C197.055 40.4297 196.863 40.7148 196.723 41.043C196.582 41.3633 196.512 41.7109 196.512 42.0859H195L195.961 32.4297H203.145V33.8711H197.379L196.828 39.0391C197.188 38.6953 197.605 38.4297 198.082 38.2422C198.559 38.0469 199.07 37.9492 199.617 37.9492H199.852C200.422 37.9492 200.957 38.0586 201.457 38.2773C201.957 38.4883 202.395 38.7812 202.77 39.1562C203.145 39.5312 203.438 39.9727 203.648 40.4805C203.867 40.9805 203.977 41.5156 203.977 42.0859V45.3438Z" fill="#38383D"/>
<path d="M190.922 37.5977H190.312V32.4297H192.117L190.922 37.5977Z" fill="#38383D"/>
<path d="M187.184 45.3438C187.184 45.9141 187.074 46.4492 186.855 46.9492C186.645 47.4492 186.352 47.8867 185.977 48.2617C185.602 48.6367 185.164 48.9336 184.664 49.1523C184.164 49.3633 183.629 49.4688 183.059 49.4688H182.332C181.762 49.4688 181.227 49.3633 180.727 49.1523C180.227 48.9336 179.789 48.6367 179.414 48.2617C179.039 47.8867 178.742 47.4492 178.523 46.9492C178.312 46.4492 178.207 45.9141 178.207 45.3438V36.3203C178.207 35.75 178.312 35.2148 178.523 34.7148C178.742 34.2148 179.039 33.7773 179.414 33.4023C179.789 33.0273 180.227 32.7344 180.727 32.5234C181.227 32.3047 181.762 32.1953 182.332 32.1953H183.059C183.629 32.1953 184.164 32.3047 184.664 32.5234C185.164 32.7344 185.602 33.0273 185.977 33.4023C186.352 33.7773 186.645 34.2148 186.855 34.7148C187.074 35.2148 187.184 35.75 187.184 36.3203V36.7539L185.672 37V36.3203C185.672 35.9453 185.602 35.5977 185.461 35.2773C185.32 34.9492 185.125 34.6641 184.875 34.4219C184.633 34.1797 184.348 33.9883 184.02 33.8477C183.699 33.707 183.352 33.6367 182.977 33.6367H182.402C182.027 33.6367 181.676 33.707 181.348 33.8477C181.027 33.9883 180.746 34.1797 180.504 34.4219C180.262 34.6641 180.07 34.9492 179.93 35.2773C179.789 35.5977 179.719 35.9453 179.719 36.3203V40.5039C180.102 40.082 180.559 39.7461 181.09 39.4961C181.629 39.2383 182.203 39.1094 182.812 39.1094H183.059C183.629 39.1094 184.164 39.2188 184.664 39.4375C185.164 39.6484 185.602 39.9414 185.977 40.3164C186.352 40.6914 186.645 41.1289 186.855 41.6289C187.074 42.1289 187.184 42.6641 187.184 43.2344V45.3438ZM185.672 43.2344C185.672 42.8594 185.602 42.5117 185.461 42.1914C185.32 41.8633 185.125 41.5781 184.875 41.3359C184.633 41.0938 184.348 40.9023 184.02 40.7617C183.699 40.6211 183.352 40.5508 182.977 40.5508H182.402C182.027 40.5508 181.676 40.6211 181.348 40.7617C181.027 40.9023 180.746 41.0938 180.504 41.3359C180.262 41.5781 180.07 41.8633 179.93 42.1914C179.789 42.5117 179.719 42.8594 179.719 43.2344V45.3438C179.719 45.7188 179.789 46.0703 179.93 46.3984C180.07 46.7188 180.262 47.0039 180.504 47.2539C180.746 47.4961 181.027 47.6875 181.348 47.8281C181.676 47.9688 182.027 48.0391 182.402 48.0391H182.977C183.352 48.0391 183.699 47.9688 184.02 47.8281C184.348 47.6875 184.633 47.4961 184.875 47.2539C185.125 47.0039 185.32 46.7188 185.461 46.3984C185.602 46.0703 185.672 45.7188 185.672 45.3438V43.2344Z" fill="#38383D"/>
<path d="M175.078 45.3438C175.078 45.9141 174.969 46.4492 174.75 46.9492C174.539 47.4492 174.246 47.8867 173.871 48.2617C173.496 48.6367 173.059 48.9336 172.559 49.1523C172.059 49.3633 171.523 49.4688 170.953 49.4688H170.238C169.668 49.4688 169.129 49.3633 168.621 49.1523C168.121 48.9336 167.684 48.6367 167.309 48.2617C166.934 47.8867 166.637 47.4492 166.418 46.9492C166.207 46.4492 166.102 45.9141 166.102 45.3438V44.9102L167.613 44.6758V45.3438C167.613 45.7188 167.684 46.0703 167.824 46.3984C167.965 46.7188 168.156 47.0039 168.398 47.2539C168.648 47.4961 168.934 47.6875 169.254 47.8281C169.582 47.9688 169.934 48.0391 170.309 48.0391H170.883C171.258 48.0391 171.605 47.9688 171.926 47.8281C172.254 47.6875 172.539 47.4961 172.781 47.2539C173.023 47.0039 173.215 46.7188 173.355 46.3984C173.496 46.0703 173.566 45.7188 173.566 45.3438V43.9492C173.566 43.5742 173.496 43.2266 173.355 42.9062C173.215 42.5781 173.023 42.293 172.781 42.0508C172.539 41.8086 172.254 41.6172 171.926 41.4766C171.605 41.3359 171.258 41.2656 170.883 41.2656H169.758V39.8242H170.883C171.258 39.8242 171.605 39.7539 171.926 39.6133C172.254 39.4727 172.539 39.2812 172.781 39.0391C173.023 38.7969 173.215 38.5156 173.355 38.1953C173.496 37.8672 173.566 37.5156 173.566 37.1406V36.3203C173.566 35.9453 173.496 35.5977 173.355 35.2773C173.215 34.9492 173.023 34.6641 172.781 34.4219C172.539 34.1797 172.254 33.9883 171.926 33.8477C171.605 33.707 171.258 33.6367 170.883 33.6367H170.309C169.934 33.6367 169.582 33.707 169.254 33.8477C168.934 33.9883 168.648 34.1797 168.398 34.4219C168.156 34.6641 167.965 34.9492 167.824 35.2773C167.684 35.5977 167.613 35.9453 167.613 36.3203V37L166.102 36.7539V36.3203C166.102 35.75 166.207 35.2148 166.418 34.7148C166.637 34.2148 166.934 33.7773 167.309 33.4023C167.684 33.0273 168.121 32.7344 168.621 32.5234C169.129 32.3047 169.668 32.1953 170.238 32.1953H170.953C171.523 32.1953 172.059 32.3047 172.559 32.5234C173.059 32.7344 173.496 33.0273 173.871 33.4023C174.246 33.7773 174.539 34.2148 174.75 34.7148C174.969 35.2148 175.078 35.75 175.078 36.3203V36.8945C175.078 37.293 175.023 37.6758 174.914 38.043C174.812 38.4023 174.664 38.7383 174.469 39.0508C174.281 39.3633 174.055 39.6484 173.789 39.9062C173.523 40.1562 173.227 40.3711 172.898 40.5508C173.227 40.7227 173.523 40.9375 173.789 41.1953C174.055 41.4453 174.281 41.7266 174.469 42.0391C174.664 42.3516 174.812 42.6914 174.914 43.0586C175.023 43.418 175.078 43.7969 175.078 44.1953V45.3438Z" fill="#38383D"/>
<path d="M156.07 35.5352C156.07 35.0742 156.156 34.6406 156.328 34.2344C156.508 33.8281 156.746 33.4766 157.043 33.1797C157.348 32.875 157.703 32.6367 158.109 32.4648C158.516 32.2852 158.949 32.1953 159.41 32.1953C159.871 32.1953 160.305 32.2852 160.711 32.4648C161.117 32.6367 161.469 32.875 161.766 33.1797C162.07 33.4766 162.309 33.8281 162.48 34.2344C162.66 34.6406 162.75 35.0742 162.75 35.5352C162.75 35.9961 162.66 36.4297 162.48 36.8359C162.309 37.2344 162.07 37.5859 161.766 37.8906C161.469 38.1875 161.117 38.4258 160.711 38.6055C160.305 38.7773 159.871 38.8633 159.41 38.8633C158.949 38.8633 158.516 38.7773 158.109 38.6055C157.703 38.4258 157.348 38.1875 157.043 37.8906C156.746 37.5859 156.508 37.2344 156.328 36.8359C156.156 36.4297 156.07 35.9961 156.07 35.5352ZM157.418 35.5352C157.418 35.8086 157.469 36.0703 157.57 36.3203C157.68 36.5625 157.824 36.7773 158.004 36.9648C158.184 37.1445 158.395 37.2891 158.637 37.3984C158.879 37.5 159.137 37.5508 159.41 37.5508C159.684 37.5508 159.941 37.5 160.184 37.3984C160.426 37.2891 160.637 37.1445 160.816 36.9648C160.996 36.7773 161.137 36.5625 161.238 36.3203C161.348 36.0703 161.402 35.8086 161.402 35.5352C161.402 35.2539 161.348 34.9922 161.238 34.75C161.137 34.5078 160.996 34.2969 160.816 34.1172C160.637 33.9297 160.426 33.7852 160.184 33.6836C159.941 33.5742 159.684 33.5195 159.41 33.5195C159.137 33.5195 158.879 33.5742 158.637 33.6836C158.395 33.7852 158.184 33.9297 158.004 34.1172C157.824 34.2969 157.68 34.5078 157.57 34.75C157.469 34.9922 157.418 35.2539 157.418 35.5352Z" fill="#38383D"/>
<path d="M146.602 49.2344H145.02L151.312 33.8711H145.477V36.1094H143.965V32.4297H153.176V33.1562L146.602 49.2344Z" fill="#38383D"/>
<path d="M140.836 45.3438C140.836 45.9141 140.727 46.4492 140.508 46.9492C140.297 47.4492 140.004 47.8867 139.629 48.2617C139.254 48.6367 138.816 48.9336 138.316 49.1523C137.816 49.3633 137.281 49.4688 136.711 49.4688H135.996C135.426 49.4688 134.887 49.3633 134.379 49.1523C133.879 48.9336 133.441 48.6367 133.066 48.2617C132.691 47.8867 132.395 47.4492 132.176 46.9492C131.965 46.4492 131.859 45.9141 131.859 45.3438V44.9102L133.371 44.6758V45.3438C133.371 45.7188 133.441 46.0703 133.582 46.3984C133.723 46.7188 133.914 47.0039 134.156 47.2539C134.406 47.4961 134.691 47.6875 135.012 47.8281C135.34 47.9688 135.691 48.0391 136.066 48.0391H136.641C137.016 48.0391 137.363 47.9688 137.684 47.8281C138.012 47.6875 138.297 47.4961 138.539 47.2539C138.781 47.0039 138.973 46.7188 139.113 46.3984C139.254 46.0703 139.324 45.7188 139.324 45.3438V43.9492C139.324 43.5742 139.254 43.2266 139.113 42.9062C138.973 42.5781 138.781 42.293 138.539 42.0508C138.297 41.8086 138.012 41.6172 137.684 41.4766C137.363 41.3359 137.016 41.2656 136.641 41.2656H135.516V39.8242H136.641C137.016 39.8242 137.363 39.7539 137.684 39.6133C138.012 39.4727 138.297 39.2812 138.539 39.0391C138.781 38.7969 138.973 38.5156 139.113 38.1953C139.254 37.8672 139.324 37.5156 139.324 37.1406V36.3203C139.324 35.9453 139.254 35.5977 139.113 35.2773C138.973 34.9492 138.781 34.6641 138.539 34.4219C138.297 34.1797 138.012 33.9883 137.684 33.8477C137.363 33.707 137.016 33.6367 136.641 33.6367H136.066C135.691 33.6367 135.34 33.707 135.012 33.8477C134.691 33.9883 134.406 34.1797 134.156 34.4219C133.914 34.6641 133.723 34.9492 133.582 35.2773C133.441 35.5977 133.371 35.9453 133.371 36.3203V37L131.859 36.7539V36.3203C131.859 35.75 131.965 35.2148 132.176 34.7148C132.395 34.2148 132.691 33.7773 133.066 33.4023C133.441 33.0273 133.879 32.7344 134.379 32.5234C134.887 32.3047 135.426 32.1953 135.996 32.1953H136.711C137.281 32.1953 137.816 32.3047 138.316 32.5234C138.816 32.7344 139.254 33.0273 139.629 33.4023C140.004 33.7773 140.297 34.2148 140.508 34.7148C140.727 35.2148 140.836 35.75 140.836 36.3203V36.8945C140.836 37.293 140.781 37.6758 140.672 38.043C140.57 38.4023 140.422 38.7383 140.227 39.0508C140.039 39.3633 139.812 39.6484 139.547 39.9062C139.281 40.1562 138.984 40.3711 138.656 40.5508C138.984 40.7227 139.281 40.9375 139.547 41.1953C139.812 41.4453 140.039 41.7266 140.227 42.0391C140.422 42.3516 140.57 42.6914 140.672 43.0586C140.781 43.418 140.836 43.7969 140.836 44.1953V45.3438Z" fill="#38383D"/>
<path d="M121.922 49.2344L114.914 37L114.773 36.2734V49.2344H113.262V32.4297H114.047L121.055 44.6758L121.207 45.3906V32.4297H122.719V49.2344H121.922Z" fill="#38383D"/>
<path d="M106.406 37.5977H105.809L105.211 32.4297H107.004L106.406 37.5977ZM109.289 37.5977H108.691L108.094 32.4297H109.887L109.289 37.5977Z" fill="#38383D"/>
<path d="M102.07 45.3438C102.07 45.9141 101.961 46.4492 101.742 46.9492C101.531 47.4492 101.238 47.8867 100.863 48.2617C100.488 48.6367 100.051 48.9336 99.5508 49.1523C99.0508 49.3633 98.5156 49.4688 97.9453 49.4688H97.2305C96.6602 49.4688 96.1211 49.3633 95.6133 49.1523C95.1133 48.9336 94.6758 48.6367 94.3008 48.2617C93.9258 47.8867 93.6289 47.4492 93.4102 46.9492C93.1992 46.4492 93.0938 45.9141 93.0938 45.3438V44.9102L94.6055 44.6758V45.3438C94.6055 45.7188 94.6758 46.0703 94.8164 46.3984C94.957 46.7188 95.1484 47.0039 95.3906 47.2539C95.6406 47.4961 95.9258 47.6875 96.2461 47.8281C96.5742 47.9688 96.9258 48.0391 97.3008 48.0391H97.875C98.25 48.0391 98.5977 47.9688 98.918 47.8281C99.2461 47.6875 99.5312 47.4961 99.7734 47.2539C100.016 47.0039 100.207 46.7188 100.348 46.3984C100.488 46.0703 100.559 45.7188 100.559 45.3438V43.9492C100.559 43.5742 100.488 43.2266 100.348 42.9062C100.207 42.5781 100.016 42.293 99.7734 42.0508C99.5312 41.8086 99.2461 41.6172 98.918 41.4766C98.5977 41.3359 98.25 41.2656 97.875 41.2656H96.75V39.8242H97.875C98.25 39.8242 98.5977 39.7539 98.918 39.6133C99.2461 39.4727 99.5312 39.2812 99.7734 39.0391C100.016 38.7969 100.207 38.5156 100.348 38.1953C100.488 37.8672 100.559 37.5156 100.559 37.1406V36.3203C100.559 35.9453 100.488 35.5977 100.348 35.2773C100.207 34.9492 100.016 34.6641 99.7734 34.4219C99.5312 34.1797 99.2461 33.9883 98.918 33.8477C98.5977 33.707 98.25 33.6367 97.875 33.6367H97.3008C96.9258 33.6367 96.5742 33.707 96.2461 33.8477C95.9258 33.9883 95.6406 34.1797 95.3906 34.4219C95.1484 34.6641 94.957 34.9492 94.8164 35.2773C94.6758 35.5977 94.6055 35.9453 94.6055 36.3203V37L93.0938 36.7539V36.3203C93.0938 35.75 93.1992 35.2148 93.4102 34.7148C93.6289 34.2148 93.9258 33.7773 94.3008 33.4023C94.6758 33.0273 95.1133 32.7344 95.6133 32.5234C96.1211 32.3047 96.6602 32.1953 97.2305 32.1953H97.9453C98.5156 32.1953 99.0508 32.3047 99.5508 32.5234C100.051 32.7344 100.488 33.0273 100.863 33.4023C101.238 33.7773 101.531 34.2148 101.742 34.7148C101.961 35.2148 102.07 35.75 102.07 36.3203V36.8945C102.07 37.293 102.016 37.6758 101.906 38.043C101.805 38.4023 101.656 38.7383 101.461 39.0508C101.273 39.3633 101.047 39.6484 100.781 39.9062C100.516 40.1562 100.219 40.3711 99.8906 40.5508C100.219 40.7227 100.516 40.9375 100.781 41.1953C101.047 41.4453 101.273 41.7266 101.461 42.0391C101.656 42.3516 101.805 42.6914 101.906 43.0586C102.016 43.418 102.07 43.7969 102.07 44.1953V45.3438Z" fill="#38383D"/>
<path d="M88.6172 49.2344V47.4297H90.4219V49.2344H88.6172Z" fill="#38383D"/>
<path d="M85.9219 45.3438C85.9219 45.9141 85.8125 46.4492 85.5938 46.9492C85.3828 47.4492 85.0898 47.8867 84.7148 48.2617C84.3398 48.6367 83.9023 48.9336 83.4023 49.1523C82.9023 49.3633 82.3672 49.4688 81.7969 49.4688H81.082C80.5117 49.4688 79.9727 49.3633 79.4648 49.1523C78.9648 48.9336 78.5273 48.6367 78.1523 48.2617C77.7773 47.8867 77.4805 47.4492 77.2617 46.9492C77.0508 46.4492 76.9453 45.9141 76.9453 45.3438V36.3203C76.9453 35.75 77.0508 35.2148 77.2617 34.7148C77.4805 34.2148 77.7773 33.7773 78.1523 33.4023C78.5273 33.0273 78.9648 32.7344 79.4648 32.5234C79.9727 32.3047 80.5117 32.1953 81.082 32.1953H81.7969C82.3672 32.1953 82.9023 32.3047 83.4023 32.5234C83.9023 32.7344 84.3398 33.0273 84.7148 33.4023C85.0898 33.7773 85.3828 34.2148 85.5938 34.7148C85.8125 35.2148 85.9219 35.75 85.9219 36.3203V45.3438ZM84.4102 36.3203C84.4102 35.9453 84.3398 35.5977 84.1992 35.2773C84.0586 34.9492 83.8672 34.6641 83.625 34.4219C83.3828 34.1797 83.0977 33.9883 82.7695 33.8477C82.4492 33.707 82.1016 33.6367 81.7266 33.6367H81.1523C80.7773 33.6367 80.4258 33.707 80.0977 33.8477C79.7773 33.9883 79.4922 34.1797 79.2422 34.4219C79 34.6641 78.8086 34.9492 78.668 35.2773C78.5273 35.5977 78.457 35.9453 78.457 36.3203V45.3438C78.457 45.7188 78.5273 46.0703 78.668 46.3984C78.8086 46.7188 79 47.0039 79.2422 47.2539C79.4922 47.4961 79.7773 47.6875 80.0977 47.8281C80.4258 47.9688 80.7773 48.0391 81.1523 48.0391H81.7266C82.1016 48.0391 82.4492 47.9688 82.7695 47.8281C83.0977 47.6875 83.3828 47.4961 83.625 47.2539C83.8672 47.0039 84.0586 46.7188 84.1992 46.3984C84.3398 46.0703 84.4102 45.7188 84.4102 45.3438V36.3203Z" fill="#38383D"/>
<path d="M73.5703 45.3438C73.5703 45.9141 73.4609 46.4492 73.2422 46.9492C73.0312 47.4492 72.7383 47.8867 72.3633 48.2617C71.9883 48.6367 71.5508 48.9336 71.0508 49.1523C70.5508 49.3633 70.0156 49.4688 69.4453 49.4688H68.7305C68.1602 49.4688 67.6211 49.3633 67.1133 49.1523C66.6133 48.9336 66.1758 48.6367 65.8008 48.2617C65.4258 47.8867 65.1289 47.4492 64.9102 46.9492C64.6992 46.4492 64.5938 45.9141 64.5938 45.3438V36.3203C64.5938 35.75 64.6992 35.2148 64.9102 34.7148C65.1289 34.2148 65.4258 33.7773 65.8008 33.4023C66.1758 33.0273 66.6133 32.7344 67.1133 32.5234C67.6211 32.3047 68.1602 32.1953 68.7305 32.1953H69.4453C70.0156 32.1953 70.5508 32.3047 71.0508 32.5234C71.5508 32.7344 71.9883 33.0273 72.3633 33.4023C72.7383 33.7773 73.0312 34.2148 73.2422 34.7148C73.4609 35.2148 73.5703 35.75 73.5703 36.3203V45.3438ZM72.0586 36.3203C72.0586 35.9453 71.9883 35.5977 71.8477 35.2773C71.707 34.9492 71.5156 34.6641 71.2734 34.4219C71.0312 34.1797 70.7461 33.9883 70.418 33.8477C70.0977 33.707 69.75 33.6367 69.375 33.6367H68.8008C68.4258 33.6367 68.0742 33.707 67.7461 33.8477C67.4258 33.9883 67.1406 34.1797 66.8906 34.4219C66.6484 34.6641 66.457 34.9492 66.3164 35.2773C66.1758 35.5977 66.1055 35.9453 66.1055 36.3203V45.3438C66.1055 45.7188 66.1758 46.0703 66.3164 46.3984C66.457 46.7188 66.6484 47.0039 66.8906 47.2539C67.1406 47.4961 67.4258 47.6875 67.7461 47.8281C68.0742 47.9688 68.4258 48.0391 68.8008 48.0391H69.375C69.75 48.0391 70.0977 47.9688 70.418 47.8281C70.7461 47.6875 71.0312 47.4961 71.2734 47.2539C71.5156 47.0039 71.707 46.7188 71.8477 46.3984C71.9883 46.0703 72.0586 45.7188 72.0586 45.3438V36.3203Z" fill="#38383D"/>
<path d="M60.5156 37.5977H59.9062V32.4297H61.7109L60.5156 37.5977Z" fill="#38383D"/>
<path d="M56.5312 45.3438C56.5312 45.9141 56.4219 46.4492 56.2031 46.9492C55.9922 47.4492 55.6992 47.8867 55.3242 48.2617C54.9492 48.6367 54.5117 48.9336 54.0117 49.1523C53.5117 49.3633 52.9766 49.4688 52.4062 49.4688H51.6914C51.1211 49.4688 50.582 49.3633 50.0742 49.1523C49.5742 48.9336 49.1367 48.6367 48.7617 48.2617C48.3867 47.8867 48.0898 47.4492 47.8711 46.9492C47.6602 46.4492 47.5547 45.9141 47.5547 45.3438V45.0859H49.0664V45.3438C49.0664 45.7188 49.1367 46.0703 49.2773 46.3984C49.418 46.7188 49.6094 47.0039 49.8516 47.2539C50.1016 47.4961 50.3867 47.6875 50.707 47.8281C51.0352 47.9688 51.3867 48.0391 51.7617 48.0391H52.3359C52.7109 48.0391 53.0586 47.9688 53.3789 47.8281C53.707 47.6875 53.9922 47.4961 54.2344 47.2539C54.4766 47.0039 54.668 46.7188 54.8086 46.3984C54.9492 46.0703 55.0195 45.7188 55.0195 45.3438V42.0859C55.0195 41.7109 54.9492 41.3633 54.8086 41.043C54.668 40.7148 54.4766 40.4297 54.2344 40.1875C53.9922 39.9375 53.707 39.7422 53.3789 39.6016C53.0586 39.4609 52.7109 39.3906 52.3359 39.3906H51.7617C51.3867 39.3906 51.0352 39.4609 50.707 39.6016C50.3867 39.7422 50.1016 39.9375 49.8516 40.1875C49.6094 40.4297 49.418 40.7148 49.2773 41.043C49.1367 41.3633 49.0664 41.7109 49.0664 42.0859H47.5547L48.5156 32.4297H55.6992V33.8711H49.9336L49.3828 39.0391C49.7422 38.6953 50.1602 38.4297 50.6367 38.2422C51.1133 38.0469 51.625 37.9492 52.1719 37.9492H52.4062C52.9766 37.9492 53.5117 38.0586 54.0117 38.2773C54.5117 38.4883 54.9492 38.7812 55.3242 39.1562C55.6992 39.5312 55.9922 39.9727 56.2031 40.4805C56.4219 40.9805 56.5312 41.5156 56.5312 42.0859V45.3438Z" fill="#38383D"/>
<path d="M42.9961 46.3281V49.2344H41.4844V46.3281H34.7344V45.6133L42.1992 32.4297H42.9961V44.8867H44.4375V46.3281H42.9961ZM41.4844 36.5664L36.8555 44.8867H41.4844V36.5664Z" fill="#38383D"/>
<path d="M25.6641 35.5352C25.6641 35.0742 25.75 34.6406 25.9219 34.2344C26.1016 33.8281 26.3398 33.4766 26.6367 33.1797C26.9414 32.875 27.2969 32.6367 27.7031 32.4648C28.1094 32.2852 28.543 32.1953 29.0039 32.1953C29.4648 32.1953 29.8984 32.2852 30.3047 32.4648C30.7109 32.6367 31.0625 32.875 31.3594 33.1797C31.6641 33.4766 31.9023 33.8281 32.0742 34.2344C32.2539 34.6406 32.3438 35.0742 32.3438 35.5352C32.3438 35.9961 32.2539 36.4297 32.0742 36.8359C31.9023 37.2344 31.6641 37.5859 31.3594 37.8906C31.0625 38.1875 30.7109 38.4258 30.3047 38.6055C29.8984 38.7773 29.4648 38.8633 29.0039 38.8633C28.543 38.8633 28.1094 38.7773 27.7031 38.6055C27.2969 38.4258 26.9414 38.1875 26.6367 37.8906C26.3398 37.5859 26.1016 37.2344 25.9219 36.8359C25.75 36.4297 25.6641 35.9961 25.6641 35.5352ZM27.0117 35.5352C27.0117 35.8086 27.0625 36.0703 27.1641 36.3203C27.2734 36.5625 27.418 36.7773 27.5977 36.9648C27.7773 37.1445 27.9883 37.2891 28.2305 37.3984C28.4727 37.5 28.7305 37.5508 29.0039 37.5508C29.2773 37.5508 29.5352 37.5 29.7773 37.3984C30.0195 37.2891 30.2305 37.1445 30.4102 36.9648C30.5898 36.7773 30.7305 36.5625 30.832 36.3203C30.9414 36.0703 30.9961 35.8086 30.9961 35.5352C30.9961 35.2539 30.9414 34.9922 30.832 34.75C30.7305 34.5078 30.5898 34.2969 30.4102 34.1172C30.2305 33.9297 30.0195 33.7852 29.7773 33.6836C29.5352 33.5742 29.2773 33.5195 29.0039 33.5195C28.7305 33.5195 28.4727 33.5742 28.2305 33.6836C27.9883 33.7852 27.7773 33.9297 27.5977 34.1172C27.418 34.2969 27.2734 34.5078 27.1641 34.75C27.0625 34.9922 27.0117 35.2539 27.0117 35.5352Z" fill="#38383D"/>
<path d="M22.2891 45.3438C22.2891 45.9141 22.1797 46.4492 21.9609 46.9492C21.75 47.4492 21.457 47.8867 21.082 48.2617C20.707 48.6367 20.2695 48.9336 19.7695 49.1523C19.2695 49.3633 18.7344 49.4688 18.1641 49.4688H17.4492C16.8789 49.4688 16.3398 49.3633 15.832 49.1523C15.332 48.9336 14.8945 48.6367 14.5195 48.2617C14.1445 47.8867 13.8477 47.4492 13.6289 46.9492C13.418 46.4492 13.3125 45.9141 13.3125 45.3438V45.0859H14.8242V45.3438C14.8242 45.7188 14.8945 46.0703 15.0352 46.3984C15.1758 46.7188 15.3672 47.0039 15.6094 47.2539C15.8594 47.4961 16.1445 47.6875 16.4648 47.8281C16.793 47.9688 17.1445 48.0391 17.5195 48.0391H18.0938C18.4688 48.0391 18.8164 47.9688 19.1367 47.8281C19.4648 47.6875 19.75 47.4961 19.9922 47.2539C20.2344 47.0039 20.4258 46.7188 20.5664 46.3984C20.707 46.0703 20.7773 45.7188 20.7773 45.3438V42.0859C20.7773 41.7109 20.707 41.3633 20.5664 41.043C20.4258 40.7148 20.2344 40.4297 19.9922 40.1875C19.75 39.9375 19.4648 39.7422 19.1367 39.6016C18.8164 39.4609 18.4688 39.3906 18.0938 39.3906H17.5195C17.1445 39.3906 16.793 39.4609 16.4648 39.6016C16.1445 39.7422 15.8594 39.9375 15.6094 40.1875C15.3672 40.4297 15.1758 40.7148 15.0352 41.043C14.8945 41.3633 14.8242 41.7109 14.8242 42.0859H13.3125L14.2734 32.4297H21.457V33.8711H15.6914L15.1406 39.0391C15.5 38.6953 15.918 38.4297 16.3945 38.2422C16.8711 38.0469 17.3828 37.9492 17.9297 37.9492H18.1641C18.7344 37.9492 19.2695 38.0586 19.7695 38.2773C20.2695 38.4883 20.707 38.7812 21.082 39.1562C21.457 39.5312 21.75 39.9727 21.9609 40.4805C22.1797 40.9805 22.2891 41.5156 22.2891 42.0859V45.3438Z" fill="#38383D"/>
<path d="M10.1719 45.3438C10.1719 45.9141 10.0625 46.4492 9.84375 46.9492C9.63281 47.4492 9.33984 47.8867 8.96484 48.2617C8.58984 48.6367 8.15234 48.9336 7.65234 49.1523C7.15234 49.3633 6.61719 49.4688 6.04688 49.4688H5.33203C4.76172 49.4688 4.22266 49.3633 3.71484 49.1523C3.21484 48.9336 2.77734 48.6367 2.40234 48.2617C2.02734 47.8867 1.73047 47.4492 1.51172 46.9492C1.30078 46.4492 1.19531 45.9141 1.19531 45.3438V45.0859H2.70703V45.3438C2.70703 45.7188 2.77734 46.0703 2.91797 46.3984C3.05859 46.7188 3.25 47.0039 3.49219 47.2539C3.74219 47.4961 4.02734 47.6875 4.34766 47.8281C4.67578 47.9688 5.02734 48.0391 5.40234 48.0391H5.97656C6.35156 48.0391 6.69922 47.9688 7.01953 47.8281C7.34766 47.6875 7.63281 47.4961 7.875 47.2539C8.11719 47.0039 8.30859 46.7188 8.44922 46.3984C8.58984 46.0703 8.66016 45.7188 8.66016 45.3438V42.0859C8.66016 41.7109 8.58984 41.3633 8.44922 41.043C8.30859 40.7148 8.11719 40.4297 7.875 40.1875C7.63281 39.9375 7.34766 39.7422 7.01953 39.6016C6.69922 39.4609 6.35156 39.3906 5.97656 39.3906H5.40234C5.02734 39.3906 4.67578 39.4609 4.34766 39.6016C4.02734 39.7422 3.74219 39.9375 3.49219 40.1875C3.25 40.4297 3.05859 40.7148 2.91797 41.043C2.77734 41.3633 2.70703 41.7109 2.70703 42.0859H1.19531L2.15625 32.4297H9.33984V33.8711H3.57422L3.02344 39.0391C3.38281 38.6953 3.80078 38.4297 4.27734 38.2422C4.75391 38.0469 5.26562 37.9492 5.8125 37.9492H6.04688C6.61719 37.9492 7.15234 38.0586 7.65234 38.2773C8.15234 38.4883 8.58984 38.7812 8.96484 39.1562C9.33984 39.5312 9.63281 39.9727 9.84375 40.4805C10.0625 40.9805 10.1719 41.5156 10.1719 42.0859V45.3438Z" fill="#38383D"/>
<path d="M75.7969 14.1094C75.7969 14.6797 75.6875 15.2148 75.4688 15.7148C75.2578 16.2148 74.9648 16.6523 74.5898 17.0273C74.2148 17.4023 73.7734 17.6992 73.2656 17.918C72.7656 18.1289 72.2305 18.2344 71.6602 18.2344H66.3398V1.42969H71.6602C72.2305 1.42969 72.7656 1.53906 73.2656 1.75781C73.7734 1.96875 74.2148 2.26172 74.5898 2.63672C74.9648 3.01172 75.2578 3.45312 75.4688 3.96094C75.6875 4.46094 75.7969 4.99609 75.7969 5.56641V14.1094ZM74.2852 5.56641C74.2852 5.19141 74.2148 4.84375 74.0742 4.52344C73.9336 4.19531 73.7383 3.91016 73.4883 3.66797C73.2461 3.41797 72.9609 3.22266 72.6328 3.08203C72.3125 2.94141 71.9648 2.87109 71.5898 2.87109H67.8516V16.793H71.5898C71.9648 16.793 72.3125 16.7227 72.6328 16.582C72.9609 16.4414 73.2461 16.25 73.4883 16.0078C73.7383 15.7656 73.9336 15.4844 74.0742 15.1641C74.2148 14.8359 74.2852 14.4844 74.2852 14.1094V5.56641Z" fill="#38383D"/>
<path d="M53.9883 18.2344V1.42969H63.4453V2.87109H55.5V9.11719H61.9336V10.5586H55.5V16.793H63.4453V18.2344H53.9883Z" fill="#38383D"/>
<path d="M49.1602 14.3203H43.8398L42.7383 18.2344H41.168L46.0898 1.42969H46.8867L51.832 18.2344H50.2734L49.1602 14.3203ZM44.25 12.8789H48.7617L46.5469 5.13281L46.5 4.51172L46.4531 5.13281L44.25 12.8789Z" fill="#38383D"/>
<path d="M37.1602 2.87109V18.2344H35.6484V2.87109H31.6406V1.42969H41.168V2.87109H37.1602Z" fill="#38383D"/>
<path d="M27.7148 18.2344V10.5586H21.2812V18.2344H19.7695V1.42969H21.2812V9.11719H27.7148V1.42969H29.2266V18.2344H27.7148Z" fill="#38383D"/>
<path d="M9.16406 19.6758L15.8555 0H17.3672L10.6758 19.6758H9.16406Z" fill="#38383D"/>
<path d="M0 19.6758L6.69141 0H8.20312L1.51172 19.6758H0Z" fill="#38383D"/>
</svg>
