<svg width="300" height="374" viewBox="0 0 300 374" fill="none" xmlns="http://www.w3.org/2000/svg">
<rect y="372" width="300" height="2" fill="#38383D"/>
<rect x="148" y="356" width="4" height="16" fill="#38383D"/>
<rect x="96" y="360" width="4" height="12" fill="#38383D"/>
<rect x="200" y="360" width="4" height="12" fill="#38383D"/>
<rect x="138" y="366" width="2" height="6" fill="#38383D"/>
<rect x="242" y="366" width="2" height="6" fill="#38383D"/>
<rect x="86" y="366" width="2" height="6" fill="#38383D"/>
<rect x="190" y="366" width="2" height="6" fill="#38383D"/>
<rect x="128" y="366" width="2" height="6" fill="#38383D"/>
<rect x="232" y="366" width="2" height="6" fill="#38383D"/>
<rect x="76" y="366" width="2" height="6" fill="#38383D"/>
<rect x="180" y="366" width="2" height="6" fill="#38383D"/>
<rect x="118" y="366" width="2" height="6" fill="#38383D"/>
<rect x="222" y="366" width="2" height="6" fill="#38383D"/>
<rect x="66" y="366" width="2" height="6" fill="#38383D"/>
<rect x="170" y="366" width="2" height="6" fill="#38383D"/>
<rect x="108" y="366" width="2" height="6" fill="#38383D"/>
<rect x="212" y="366" width="2" height="6" fill="#38383D"/>
<rect x="56" y="366" width="2" height="6" fill="#38383D"/>
<rect x="160" y="366" width="2" height="6" fill="#38383D"/>
<path d="M246.109 188.286L201.345 215.706L175.558 199.383V179.778L224.193 149.075V128.822L257.953 108.57V57.4291L211.23 0H184.698L163.341 33.7084H193.557L114.986 100.755L142.218 52.2966H106.733L137.788 0H84.7698L38 57.4753V108.616L71.7601 128.869V149.121L120.395 179.824V199.43L94.6087 215.752L49.844 188.332V159.941L38 151.711V201.002L85.8423 230.687V259.587L102.629 277.944L115.173 261.298V288.486L125.384 300H170.662L181.014 288.486V261.298L193.371 277.944L210.158 259.587V230.687L258 201.002V151.711L246.156 159.895V188.286H246.109ZM157.839 256.628L148 249.738L138.161 256.628L124.778 250.062L138.114 217.324L148 211.267L157.886 217.324L171.222 250.062L157.839 256.628Z" fill="#38383D"/>
</svg>
