<svg width="290" height="160" viewBox="0 0 290 160" fill="none" xmlns="http://www.w3.org/2000/svg">
<path d="M187.274 115.994L153.858 86.2442L161.935 65.6605L208.118 63.5728L225.151 74.7617L218.247 103.076L187.306 115.994H187.274ZM157.246 85.4286L187.86 112.7L215.836 101.021L221.894 76.0339L207.336 66.4434L163.922 68.4006L157.246 85.4286Z" fill="#38383D"/>
<path d="M289.963 146.495C289.865 145.777 289.474 145.386 289.181 145.158L258.599 120.627L255.18 117.887L249.838 115.505L253.453 110.09V101.902C254.365 102.457 255.44 102.816 256.613 102.816H257.166C260.456 102.816 263.159 100.108 263.159 96.8136V69.5753C263.159 66.2806 260.456 63.5731 257.166 63.5731H256.613C255.44 63.5731 254.365 63.8993 253.453 64.4865V56.1356L246.516 51.5687L249.838 48.3392L272.18 10.8906C272.376 10.5644 272.604 10.0425 272.474 9.32484C272.148 7.56332 269.673 5.4756 267.914 4.17077C267.491 3.84456 267.002 3.48573 266.513 3.15952C266.22 2.96379 265.927 2.80069 265.634 2.60497C263.094 1.00655 258.697 -1.24428 257.199 0.84345L233.196 31.6374L230.525 35.0626L228.538 39.7274L214.339 30.3652H170.762L164.671 27.9187L167.57 24.6566V19.8287L163.662 16.0121H126.306L122.397 19.8287V24.6566L125.329 27.9839L119.206 30.3652H75.6614L61.4615 39.6947L59.6377 35.3562L32.7686 0.84345C31.1076 -1.50524 25.7012 1.65897 23.4865 3.15952C23.1283 3.38786 22.77 3.64883 22.4443 3.9098C20.6856 5.14939 17.8847 7.43284 17.4939 9.32484C17.3636 10.0425 17.5916 10.5644 17.7545 10.7928L39.9011 48.0457L43.4837 51.5361L36.514 56.103V64.4539C35.6021 63.8993 34.5273 63.5405 33.3548 63.5405H32.8012C29.5117 63.5405 26.8085 66.248 26.8085 69.5427V96.781C26.8085 100.076 29.5117 102.783 32.8012 102.783H33.3548C34.5273 102.783 35.6021 102.457 36.514 101.87V110.058L40.1291 115.473L35.1135 117.691L0.818797 145.125C0.49311 145.353 0.167425 145.745 0.0371507 146.462C-0.288535 148.387 1.60044 151.551 2.83805 153.313C3.03346 153.639 3.22887 153.933 3.45685 154.259C3.65226 154.52 3.84768 154.781 4.04309 155.042C5.57381 157.031 8.21187 160 10.2311 160C10.6219 160 10.9802 159.902 11.3059 159.674L48.4992 136.774L51.9189 133.186L54.9804 137.753L62.0803 148.42C62.3409 148.811 62.7643 149.039 63.2528 149.039H92.1737L114.679 146.169L132.103 157.88H157.93L175.354 146.169L197.989 149.039H226.747C227.203 149.039 227.594 148.844 227.92 148.485C227.92 148.485 227.92 148.485 227.92 148.42L235.02 137.753C235.02 137.753 235.085 137.655 235.117 137.59L238.049 133.218L241.208 136.513L245.051 138.862C245.051 138.862 245.051 138.862 245.116 138.862L245.246 138.96L278.629 159.576C278.955 159.804 279.345 159.902 279.736 159.902C281.723 159.902 284.231 157.195 285.729 155.237C286.022 154.911 286.283 154.552 286.543 154.226C286.771 153.9 286.967 153.606 287.162 153.28C288.4 151.519 290.289 148.354 289.963 146.43V146.495ZM253.453 69.5753C253.453 67.8464 254.886 66.4111 256.613 66.4111H257.166C258.892 66.4111 260.325 67.8464 260.325 69.5753V96.8136C260.325 98.5425 258.892 99.9778 257.166 99.9778H256.613C254.886 99.9778 253.453 98.5425 253.453 96.8136V69.5753ZM36.4488 96.8136C36.4488 98.5425 35.0484 99.9778 33.2897 99.9778H32.736C31.0099 99.9778 29.5769 98.5425 29.5769 96.8136V69.5753C29.5769 67.8464 31.0099 66.4111 32.736 66.4111H33.2897C35.0484 66.4111 36.4488 67.8464 36.4488 69.5753V96.8136ZM264.006 4.98628C264.299 5.14939 264.592 5.34511 264.918 5.54084C268.142 7.66118 269.217 9.84677 269.119 10.2708C268.728 10.597 266.253 10.4666 262.964 8.31359C259.804 6.19325 258.697 4.0729 258.795 3.55097C259.186 3.25738 261.205 3.38787 264.038 4.98628H264.006ZM256.743 6.03015C257.622 7.59594 259.283 9.25959 261.4 10.6623C263.354 11.9671 265.602 12.9131 267.523 13.1415L262.508 21.525C261.53 21.4271 259.218 20.5138 256.092 18.4586C252.867 16.3383 251.141 14.5115 250.718 13.7286L256.743 6.03015ZM248.894 16.0773C250.587 18.1977 253.714 20.3507 254.528 20.84C255.994 21.8512 258.664 23.4496 260.977 24.102L250.099 42.4349C249.122 42.4349 246.191 41.4236 242.185 38.7814C238.146 36.1391 236.094 33.823 235.769 32.9749L248.959 16.0773H248.894ZM229.776 43.9354L230.883 41.2932L232.838 36.661L233.847 35.3888C235.313 37.3461 238.016 39.5316 240.556 41.1953C241.989 42.1739 245.572 44.3921 248.503 45.0772L247.689 46.4472L244.074 50.0029L241.989 52.0254L238.081 55.842C237.365 55.7768 235.215 55.0591 232.316 53.1345C229.516 51.2751 227.952 49.6441 227.627 48.9916L229.744 43.9681L229.776 43.9354ZM125.198 23.5801V21.0031L127.446 18.8501H162.489L164.704 21.0031V23.5801L161.643 27.0379H128.292L125.231 23.5801H125.198ZM164.476 39.1076L151.807 50.166H138.095L125.459 39.1076L128.651 29.9085H161.284L164.509 39.1076H164.476ZM20.7833 10.3361C20.6856 9.84677 21.7604 7.69381 24.9847 5.54084C25.3104 5.34511 25.6035 5.14939 25.8966 4.98628C27.9484 3.77932 29.5769 3.45311 30.4562 3.45311C30.7819 3.45311 31.0099 3.45311 31.075 3.55097C31.1727 4.0729 30.0654 6.19325 26.9062 8.31359C23.6168 10.4666 21.1416 10.597 20.7833 10.3361ZM22.3792 13.1415C24.2682 12.9131 26.5154 11.9671 28.5021 10.6623C30.6191 9.25959 32.2801 7.62856 33.192 6.06277L39.1846 13.7613C38.7938 14.5115 37.0677 16.3709 33.8434 18.4913C30.6842 20.5464 28.3393 21.4924 27.3948 21.5902L22.3792 13.1741V13.1415ZM39.8034 42.4349L28.9255 24.1346C31.2379 23.4822 33.9411 21.8186 35.4067 20.84C36.1883 20.3507 39.3149 18.2303 41.041 16.11L54.1987 32.9749C53.8731 33.823 51.8212 36.1391 47.8153 38.7814C43.7442 41.4563 40.7479 42.4349 39.836 42.4349H39.8034ZM42.1809 46.4146L41.3667 45.0445C44.2979 44.3595 47.913 42.1413 49.346 41.1627C51.8538 39.499 54.5896 37.3134 56.0552 35.3562L57.0648 36.6284L59.0189 41.2605L60.1588 43.9028L62.2758 48.8938C61.9501 49.5136 60.4193 51.2099 57.5859 53.0692C54.7198 54.9612 52.5703 55.7115 51.8538 55.7441L47.9456 51.9275L45.8612 49.905L42.2135 46.382L42.1809 46.4146ZM10.7196 156.575C10.2963 156.705 8.47242 156.02 6.45316 153.639C6.19261 153.313 5.93207 152.987 5.67152 152.628C5.41097 152.301 5.21555 151.975 4.98757 151.649C3.32657 149.039 3.1963 147.082 3.45685 146.723C3.97795 146.626 6.19262 147.539 8.47242 150.67C10.7522 153.802 10.9802 156.183 10.7196 156.575ZM13.5205 154.944C13.2274 153.182 12.2829 151.029 10.7848 149.007C9.38434 147.115 7.6582 145.484 5.96464 144.603L13.6508 138.47C14.4325 138.862 16.3866 140.525 18.6664 143.624C20.8159 146.593 21.793 148.876 21.9558 149.79L13.5531 154.976L13.5205 154.944ZM24.4636 148.257C23.6168 145.68 21.4673 142.678 20.9136 141.928C19.904 140.493 17.9173 138.014 15.9632 136.611L32.736 123.139C33.5828 123.465 36.0906 125.422 38.8915 129.271C41.6924 133.121 42.7997 135.959 42.7997 136.905L24.431 148.224L24.4636 148.257ZM50.2579 130.837L46.8057 134.491L45.3401 135.371C44.7213 133.023 42.93 130.054 41.1713 127.64C40.1617 126.238 37.5887 122.91 35.081 121.279L36.3511 120.268L41.5947 117.919L44.2327 116.712L48.6621 114.755C49.2809 115.049 51.0722 116.484 53.0914 119.257C55.0455 121.964 55.8923 124.019 55.99 124.737L52.2121 128.717L50.2254 130.837H50.2579ZM63.9367 146.234L58.4652 138.079L68.9197 136.415L86.4417 146.234H63.9042H63.9367ZM156.985 155.074H132.884L118.001 145.06L137.346 137.361H152.523L171.902 145.06L156.985 155.074ZM126.566 107.937L108.165 126.009L89.0797 128.88L71.1018 120.398L68.9849 112.994L50.3882 101.25V72.3807L78.4298 52.6125L116.242 51.2751L136.109 64.3886H153.794L173.66 51.2751L211.473 52.6125L239.514 72.3807V101.25L220.917 112.994L218.8 120.366L198.673 128.88L181.705 126.042L160.665 105.393L153.794 98.6404H136.011L126.534 107.97L126.566 107.937ZM137.216 101.446H152.686L160.079 108.72L151.742 134.491H138.095L129.758 108.72L137.184 101.446H137.216ZM225.933 146.234H203.395L220.917 136.415L231.372 138.079L225.9 146.234H225.933ZM233.131 135.469L220.917 133.577C220.592 133.512 220.266 133.577 220.005 133.708L197.663 146.234L175.354 143.363H175.289L154.575 135.11L162.359 111.004L180.369 128.684L199.031 131.816L221.145 122.454L223.327 114.82L242.315 102.848V70.9128L212.743 50.0355L212.384 49.8072L173.27 48.4371H172.814L152.882 61.5506H136.89L116.958 48.4045L77.811 49.7745H77.3876L47.457 70.8802V102.816L66.4445 114.788L68.6266 122.388L88.5586 131.783L109.403 128.651L127.446 110.938L135.262 135.143L114.516 143.298L92.1737 146.169L69.8317 133.642C69.5711 133.512 69.2454 133.447 68.9197 133.512L56.7065 135.404L53.8079 131.033L57.9441 126.662C58.2698 126.466 58.6606 126.042 58.7583 125.292C59.1492 122.943 56.2506 118.735 55.3386 117.495C53.7428 115.342 49.8345 110.449 47.6524 112.015L42.6043 114.266L39.2172 109.177V57.5709L45.4052 53.4933L49.7043 57.6688C50.1277 58.2885 50.8116 58.5495 51.6258 58.5495C53.9708 58.5495 57.3579 56.4944 59.0515 55.4179C60.3216 54.5698 64.5556 51.6013 65.0115 49.2852C65.1418 48.535 64.9138 48.0457 64.8812 47.9804L62.5037 42.2718L76.4105 33.138H119.401L125.231 30.8545L122.072 39.8905L136.988 52.9388H152.816L167.7 39.8905L164.574 30.8545L169.85 32.9749L213.361 33.0727L227.301 42.2392L224.923 47.8173C224.761 48.1435 224.598 48.6002 224.728 49.22C225.184 51.5687 229.418 54.5045 230.721 55.3527C232.414 56.4618 235.964 58.5821 238.179 58.5821C238.895 58.5821 239.482 58.3864 239.84 57.8319L244.334 53.4607L250.49 57.5057V109.112L247.07 114.2L242.282 112.08C239.905 110.416 235.932 115.277 234.368 117.43C233.489 118.67 230.558 122.878 230.949 125.226C231.046 125.977 231.47 126.401 231.535 126.433L235.899 131L233.033 135.339L233.131 135.469ZM244.562 135.339L243.097 134.458L239.644 130.804L237.625 128.684L233.88 124.77C233.945 124.052 234.792 121.964 236.778 119.224C238.765 116.484 240.524 115.049 241.175 114.755L245.604 116.712L248.242 117.887L253.551 120.235L254.789 121.247C252.281 122.91 249.708 126.238 248.698 127.608C246.94 130.022 245.148 133.023 244.53 135.339H244.562ZM247.07 136.905C247.07 135.991 248.21 133.121 250.978 129.271C253.779 125.389 256.287 123.432 257.134 123.139L273.907 136.611C271.952 138.046 269.998 140.525 268.956 141.928C268.402 142.678 266.285 145.647 265.439 148.224L247.037 136.937L247.07 136.905ZM276.382 154.944L267.979 149.724C268.142 148.778 269.152 146.528 271.301 143.592C273.581 140.46 275.535 138.797 276.317 138.47L283.97 144.603C282.309 145.484 280.551 147.115 279.183 149.007C277.685 151.029 276.707 153.182 276.414 154.944H276.382ZM284.915 151.649C284.719 151.975 284.524 152.269 284.263 152.628C281.918 155.825 279.671 156.771 279.248 156.607C278.922 156.216 279.15 153.802 281.43 150.703C283.514 147.898 285.631 146.723 286.348 146.723C286.413 146.723 286.445 146.723 286.445 146.723C286.706 147.082 286.543 149.072 284.915 151.649Z" fill="#38383D"/>
<path d="M102.597 115.994L71.657 103.076L64.7524 74.7617L81.7533 63.5728L127.936 65.6605L135.98 86.2442L102.565 115.994H102.597ZM74.0671 100.989L102.043 112.667L132.658 85.396L125.981 68.368L82.5675 66.3781L68.0093 75.9686L74.0671 100.956V100.989Z" fill="#38383D"/>
</svg>
