<svg width="404" height="139" viewBox="0 0 404 139" fill="none" xmlns="http://www.w3.org/2000/svg">
<path d="M92.9062 9.68555C92.9062 10.541 92.7422 11.3438 92.4141 12.0938C92.0977 12.8438 91.6582 13.5 91.0957 14.0625C90.5332 14.625 89.8711 15.0703 89.1094 15.3984C88.3594 15.7148 87.5566 15.873 86.7012 15.873H80.9883V25.5586H78.7207V0.351562H86.7012C87.5566 0.351562 88.3594 0.515625 89.1094 0.84375C89.8711 1.16016 90.5332 1.59961 91.0957 2.16211C91.6582 2.72461 92.0977 3.38672 92.4141 4.14844C92.7422 4.89844 92.9062 5.70117 92.9062 6.55664V9.68555ZM90.6387 6.55664C90.6387 5.99414 90.5332 5.47266 90.3223 4.99219C90.1113 4.5 89.8184 4.07227 89.4434 3.70898C89.0801 3.33398 88.6523 3.04102 88.1602 2.83008C87.6797 2.61914 87.1582 2.51367 86.5957 2.51367H80.9883V13.7109H86.5957C87.1582 13.7109 87.6797 13.6055 88.1602 13.3945C88.6523 13.1836 89.0801 12.8965 89.4434 12.5332C89.8184 12.1699 90.1113 11.748 90.3223 11.2676C90.5332 10.7754 90.6387 10.248 90.6387 9.68555V6.55664Z" fill="#38383D"/>
<path d="M70.6699 25.5586V0.351562H72.9375V25.5586H70.6699Z" fill="#38383D"/>
<path d="M14.1855 19.7227C14.1855 20.5781 14.0215 21.3809 13.6934 22.1309C13.377 22.8809 12.9375 23.5371 12.375 24.0996C11.8125 24.6621 11.1562 25.1074 10.4062 25.4355C9.65625 25.752 8.85352 25.9102 7.99805 25.9102H6.20508C5.34961 25.9102 4.54102 25.752 3.7793 25.4355C3.0293 25.1074 2.37305 24.6621 1.81055 24.0996C1.24805 23.5371 0.802734 22.8809 0.474609 22.1309C0.158203 21.3809 0 20.5781 0 19.7227V6.1875C0 5.33203 0.158203 4.5293 0.474609 3.7793C0.802734 3.0293 1.24805 2.37305 1.81055 1.81055C2.37305 1.24805 3.0293 0.808594 3.7793 0.492188C4.54102 0.164062 5.34961 0 6.20508 0H7.99805C8.85352 0 9.65625 0.164062 10.4062 0.492188C11.1562 0.808594 11.8125 1.24805 12.375 1.81055C12.9375 2.37305 13.377 3.0293 13.6934 3.7793C14.0215 4.5293 14.1855 5.33203 14.1855 6.1875V7.20703L11.918 7.55859V6.1875C11.918 5.625 11.8125 5.10352 11.6016 4.62305C11.3906 4.13086 11.1035 3.70312 10.7402 3.33984C10.377 2.97656 9.94922 2.68945 9.45703 2.47852C8.97656 2.26758 8.45508 2.16211 7.89258 2.16211H6.31055C5.74805 2.16211 5.2207 2.26758 4.72852 2.47852C4.24805 2.68945 3.82031 2.97656 3.44531 3.33984C3.08203 3.70312 2.79492 4.13086 2.58398 4.62305C2.37305 5.10352 2.26758 5.625 2.26758 6.1875V19.7227C2.26758 20.2852 2.37305 20.8125 2.58398 21.3047C2.79492 21.7852 3.08203 22.2129 3.44531 22.5879C3.82031 22.9512 4.24805 23.2383 4.72852 23.4492C5.2207 23.6602 5.74805 23.7656 6.31055 23.7656H7.89258C8.45508 23.7656 8.97656 23.6602 9.45703 23.4492C9.94922 23.2383 10.377 22.9512 10.7402 22.5879C11.1035 22.2129 11.3906 21.7852 11.6016 21.3047C11.8125 20.8125 11.918 20.2852 11.918 19.7227V18.3516L14.1855 18.7207V19.7227Z" fill="#38383D"/>
<path d="M403.361 19.7227C403.361 20.5781 403.186 21.3809 402.834 22.1309C402.494 22.8809 402.031 23.5371 401.445 24.0996C400.871 24.6621 400.197 25.1074 399.424 25.4355C398.662 25.752 397.854 25.9102 396.998 25.9102H395.188C394.332 25.9102 393.518 25.752 392.744 25.4355C391.982 25.1074 391.309 24.6621 390.723 24.0996C390.148 23.5371 389.686 22.8809 389.334 22.1309C388.994 21.3809 388.824 20.5781 388.824 19.7227V18.7207L391.092 18.3516V19.7227C391.092 20.2852 391.203 20.8125 391.426 21.3047C391.66 21.7852 391.971 22.2129 392.357 22.5879C392.744 22.9512 393.189 23.2383 393.693 23.4492C394.209 23.6602 394.748 23.7656 395.311 23.7656H396.893C397.455 23.7656 397.988 23.6602 398.492 23.4492C398.996 23.2383 399.441 22.9512 399.828 22.5879C400.215 22.2129 400.52 21.7852 400.742 21.3047C400.977 20.8125 401.094 20.2852 401.094 19.7227V18.9668C401.094 18.0996 400.924 17.3789 400.584 16.8047C400.244 16.2305 399.793 15.7441 399.23 15.3457C398.668 14.9355 398.029 14.5898 397.314 14.3086C396.611 14.0273 395.885 13.7461 395.135 13.4648C394.385 13.1836 393.652 12.873 392.938 12.5332C392.234 12.1934 391.602 11.7715 391.039 11.2676C390.477 10.752 390.025 10.125 389.686 9.38672C389.346 8.64844 389.176 7.74023 389.176 6.66211V6.1875C389.176 5.33203 389.334 4.5293 389.65 3.7793C389.979 3.0293 390.424 2.37305 390.986 1.81055C391.549 1.24805 392.205 0.808594 392.955 0.492188C393.717 0.164062 394.525 0 395.381 0H396.998C397.854 0 398.656 0.164062 399.406 0.492188C400.156 0.808594 400.812 1.24805 401.375 1.81055C401.938 2.37305 402.377 3.0293 402.693 3.7793C403.021 4.5293 403.186 5.33203 403.186 6.1875V6.83789L400.918 7.20703V6.1875C400.918 5.625 400.812 5.10352 400.602 4.62305C400.391 4.13086 400.104 3.70312 399.74 3.33984C399.377 2.97656 398.949 2.68945 398.457 2.47852C397.977 2.26758 397.455 2.16211 396.893 2.16211H395.486C394.924 2.16211 394.396 2.26758 393.904 2.47852C393.424 2.68945 392.996 2.97656 392.621 3.33984C392.258 3.70312 391.971 4.13086 391.76 4.62305C391.549 5.10352 391.443 5.625 391.443 6.1875V6.66211C391.443 7.4707 391.613 8.15039 391.953 8.70117C392.293 9.25195 392.744 9.72656 393.307 10.125C393.869 10.5117 394.502 10.8516 395.205 11.1445C395.92 11.4258 396.652 11.7188 397.402 12.0234C398.152 12.3164 398.879 12.6445 399.582 13.0078C400.297 13.3594 400.936 13.7988 401.498 14.3262C402.061 14.8418 402.512 15.4746 402.852 16.2246C403.191 16.9746 403.361 17.8887 403.361 18.9668V19.7227Z" fill="#38383D"/>
<path d="M384.131 19.7227C384.131 20.5781 383.967 21.3809 383.639 22.1309C383.322 22.8809 382.883 23.5371 382.32 24.0996C381.758 24.6621 381.102 25.1074 380.352 25.4355C379.602 25.752 378.799 25.9102 377.943 25.9102H376.15C375.295 25.9102 374.486 25.752 373.725 25.4355C372.975 25.1074 372.318 24.6621 371.756 24.0996C371.193 23.5371 370.748 22.8809 370.42 22.1309C370.104 21.3809 369.945 20.5781 369.945 19.7227V6.1875C369.945 5.33203 370.104 4.5293 370.42 3.7793C370.748 3.0293 371.193 2.37305 371.756 1.81055C372.318 1.24805 372.975 0.808594 373.725 0.492188C374.486 0.164062 375.295 0 376.15 0H377.943C378.799 0 379.602 0.164062 380.352 0.492188C381.102 0.808594 381.758 1.24805 382.32 1.81055C382.883 2.37305 383.322 3.0293 383.639 3.7793C383.967 4.5293 384.131 5.33203 384.131 6.1875V19.7227ZM381.863 6.1875C381.863 5.625 381.758 5.10352 381.547 4.62305C381.336 4.13086 381.049 3.70312 380.686 3.33984C380.322 2.97656 379.895 2.68945 379.402 2.47852C378.922 2.26758 378.4 2.16211 377.838 2.16211H376.256C375.693 2.16211 375.166 2.26758 374.674 2.47852C374.193 2.68945 373.766 2.97656 373.391 3.33984C373.027 3.70312 372.74 4.13086 372.529 4.62305C372.318 5.10352 372.213 5.625 372.213 6.1875V19.7227C372.213 20.2852 372.318 20.8125 372.529 21.3047C372.74 21.7852 373.027 22.2129 373.391 22.5879C373.766 22.9512 374.193 23.2383 374.674 23.4492C375.166 23.6602 375.693 23.7656 376.256 23.7656H377.838C378.4 23.7656 378.922 23.6602 379.402 23.4492C379.895 23.2383 380.322 22.9512 380.686 22.5879C381.049 22.2129 381.336 21.7852 381.547 21.3047C381.758 20.8125 381.863 20.2852 381.863 19.7227V6.1875Z" fill="#38383D"/>
<path d="M362.264 25.5586V14.0449H352.613V25.5586H350.346V0.351562H352.613V11.8828H362.264V0.351562H364.531V25.5586H362.264Z" fill="#38383D"/>
<path d="M347.498 30.709V32.7656H327.705V30.709H347.498Z" fill="#38383D"/>
<path d="M312.096 25.5586V0.351562H326.281V2.51367H314.363V11.8828H324.014V14.0449H314.363V23.3965H326.281V25.5586H312.096Z" fill="#38383D"/>
<path d="M305.117 25.5586L294.605 7.20703L294.395 6.11719V25.5586H292.127V0.351562H293.305L303.816 18.7207L304.045 19.793V0.351562H306.312V25.5586H305.117Z" fill="#38383D"/>
<path d="M286.713 19.7227C286.713 20.5781 286.549 21.3809 286.221 22.1309C285.904 22.8809 285.465 23.5371 284.902 24.0996C284.34 24.6621 283.684 25.1074 282.934 25.4355C282.184 25.752 281.381 25.9102 280.525 25.9102H278.732C277.877 25.9102 277.068 25.752 276.307 25.4355C275.557 25.1074 274.9 24.6621 274.338 24.0996C273.775 23.5371 273.33 22.8809 273.002 22.1309C272.686 21.3809 272.527 20.5781 272.527 19.7227V6.1875C272.527 5.33203 272.686 4.5293 273.002 3.7793C273.33 3.0293 273.775 2.37305 274.338 1.81055C274.9 1.24805 275.557 0.808594 276.307 0.492188C277.068 0.164062 277.877 0 278.732 0H280.525C281.381 0 282.184 0.164062 282.934 0.492188C283.684 0.808594 284.34 1.24805 284.902 1.81055C285.465 2.37305 285.904 3.0293 286.221 3.7793C286.549 4.5293 286.713 5.33203 286.713 6.1875V19.7227ZM284.445 6.1875C284.445 5.625 284.34 5.10352 284.129 4.62305C283.918 4.13086 283.631 3.70312 283.268 3.33984C282.904 2.97656 282.477 2.68945 281.984 2.47852C281.504 2.26758 280.982 2.16211 280.42 2.16211H278.838C278.275 2.16211 277.748 2.26758 277.256 2.47852C276.775 2.68945 276.348 2.97656 275.973 3.33984C275.609 3.70312 275.322 4.13086 275.111 4.62305C274.9 5.10352 274.795 5.625 274.795 6.1875V19.7227C274.795 20.2852 274.9 20.8125 275.111 21.3047C275.322 21.7852 275.609 22.2129 275.973 22.5879C276.348 22.9512 276.775 23.2383 277.256 23.4492C277.748 23.6602 278.275 23.7656 278.838 23.7656H280.42C280.982 23.7656 281.504 23.6602 281.984 23.4492C282.477 23.2383 282.904 22.9512 283.268 22.5879C283.631 22.2129 283.918 21.7852 284.129 21.3047C284.34 20.8125 284.445 20.2852 284.445 19.7227V6.1875Z" fill="#38383D"/>
<path d="M265.936 25.5586L259.098 14.8008H255.986V25.5586H253.719V0.351562H261.717C262.572 0.351562 263.375 0.515625 264.125 0.84375C264.875 1.16016 265.531 1.59961 266.094 2.16211C266.656 2.72461 267.096 3.38672 267.412 4.14844C267.74 4.89844 267.904 5.70117 267.904 6.55664V8.5957C267.904 9.45117 267.74 10.2598 267.412 11.0215C267.096 11.7715 266.656 12.4277 266.094 12.9902C265.531 13.5527 264.875 13.998 264.125 14.3262C263.375 14.6426 262.572 14.8008 261.717 14.8008L268.555 25.5586H265.936ZM265.637 6.55664C265.637 5.99414 265.531 5.47266 265.32 4.99219C265.109 4.5 264.822 4.07227 264.459 3.70898C264.096 3.33398 263.668 3.04102 263.176 2.83008C262.695 2.61914 262.174 2.51367 261.611 2.51367H255.986V12.6387H261.611C262.174 12.6387 262.695 12.5332 263.176 12.3223C263.668 12.1113 264.096 11.8242 264.459 11.4609C264.822 11.0859 265.109 10.6582 265.32 10.1777C265.531 9.68555 265.637 9.1582 265.637 8.5957V6.55664Z" fill="#38383D"/>
<path d="M248.691 19.3711C248.691 20.2266 248.527 21.0293 248.199 21.7793C247.883 22.5293 247.443 23.1855 246.881 23.748C246.318 24.3105 245.656 24.7559 244.895 25.084C244.145 25.4004 243.342 25.5586 242.486 25.5586H234.506V0.351562H242.486C243.342 0.351562 244.145 0.515625 244.895 0.84375C245.656 1.16016 246.318 1.59961 246.881 2.16211C247.443 2.72461 247.883 3.38672 248.199 4.14844C248.527 4.89844 248.691 5.70117 248.691 6.55664V19.3711ZM246.424 6.55664C246.424 5.99414 246.318 5.47266 246.107 4.99219C245.896 4.5 245.604 4.07227 245.229 3.70898C244.865 3.33398 244.438 3.04102 243.945 2.83008C243.465 2.61914 242.943 2.51367 242.381 2.51367H236.773V23.3965H242.381C242.943 23.3965 243.465 23.291 243.945 23.0801C244.438 22.8691 244.865 22.582 245.229 22.2188C245.604 21.8555 245.896 21.4336 246.107 20.9531C246.318 20.4609 246.424 19.9336 246.424 19.3711V6.55664Z" fill="#38383D"/>
<path d="M175.635 134.668C175.635 135.238 175.525 135.773 175.307 136.273C175.096 136.773 174.803 137.211 174.428 137.586C174.053 137.961 173.615 138.258 173.115 138.477C172.615 138.688 172.08 138.793 171.51 138.793H170.795C170.225 138.793 169.686 138.688 169.178 138.477C168.678 138.258 168.24 137.961 167.865 137.586C167.49 137.211 167.193 136.773 166.975 136.273C166.764 135.773 166.658 135.238 166.658 134.668V125.645C166.658 125.074 166.764 124.539 166.975 124.039C167.193 123.539 167.49 123.102 167.865 122.727C168.24 122.352 168.678 122.059 169.178 121.848C169.686 121.629 170.225 121.52 170.795 121.52H171.51C172.08 121.52 172.615 121.629 173.115 121.848C173.615 122.059 174.053 122.352 174.428 122.727C174.803 123.102 175.096 123.539 175.307 124.039C175.525 124.539 175.635 125.074 175.635 125.645V134.668ZM174.123 125.645C174.123 125.27 174.053 124.922 173.912 124.602C173.771 124.273 173.58 123.988 173.338 123.746C173.096 123.504 172.811 123.312 172.482 123.172C172.162 123.031 171.814 122.961 171.439 122.961H170.865C170.49 122.961 170.139 123.031 169.811 123.172C169.49 123.312 169.205 123.504 168.955 123.746C168.713 123.988 168.521 124.273 168.381 124.602C168.24 124.922 168.17 125.27 168.17 125.645V134.668C168.17 135.043 168.24 135.395 168.381 135.723C168.521 136.043 168.713 136.328 168.955 136.578C169.205 136.82 169.49 137.012 169.811 137.152C170.139 137.293 170.49 137.363 170.865 137.363H171.439C171.814 137.363 172.162 137.293 172.482 137.152C172.811 137.012 173.096 136.82 173.338 136.578C173.58 136.328 173.771 136.043 173.912 135.723C174.053 135.395 174.123 135.043 174.123 134.668V125.645Z" fill="#38383D"/>
<path d="M162.182 138.559V136.754H163.986V138.559H162.182Z" fill="#38383D"/>
<path d="M159.486 134.668C159.486 135.238 159.377 135.773 159.158 136.273C158.947 136.773 158.654 137.211 158.279 137.586C157.904 137.961 157.467 138.258 156.967 138.477C156.467 138.688 155.932 138.793 155.361 138.793H154.646C154.076 138.793 153.537 138.688 153.029 138.477C152.529 138.258 152.092 137.961 151.717 137.586C151.342 137.211 151.045 136.773 150.826 136.273C150.615 135.773 150.51 135.238 150.51 134.668V125.645C150.51 125.074 150.615 124.539 150.826 124.039C151.045 123.539 151.342 123.102 151.717 122.727C152.092 122.352 152.529 122.059 153.029 121.848C153.537 121.629 154.076 121.52 154.646 121.52H155.361C155.932 121.52 156.467 121.629 156.967 121.848C157.467 122.059 157.904 122.352 158.279 122.727C158.654 123.102 158.947 123.539 159.158 124.039C159.377 124.539 159.486 125.074 159.486 125.645V134.668ZM157.975 125.645C157.975 125.27 157.904 124.922 157.764 124.602C157.623 124.273 157.432 123.988 157.189 123.746C156.947 123.504 156.662 123.312 156.334 123.172C156.014 123.031 155.666 122.961 155.291 122.961H154.717C154.342 122.961 153.99 123.031 153.662 123.172C153.342 123.312 153.057 123.504 152.807 123.746C152.564 123.988 152.373 124.273 152.232 124.602C152.092 124.922 152.021 125.27 152.021 125.645V134.668C152.021 135.043 152.092 135.395 152.232 135.723C152.373 136.043 152.564 136.328 152.807 136.578C153.057 136.82 153.342 137.012 153.662 137.152C153.99 137.293 154.342 137.363 154.717 137.363H155.291C155.666 137.363 156.014 137.293 156.334 137.152C156.662 137.012 156.947 136.82 157.189 136.578C157.432 136.328 157.623 136.043 157.764 135.723C157.904 135.395 157.975 135.043 157.975 134.668V125.645Z" fill="#38383D"/>
<path d="M146.033 138.559V136.754H147.838V138.559H146.033Z" fill="#38383D"/>
<path d="M143.338 134.668C143.338 135.238 143.229 135.773 143.01 136.273C142.799 136.773 142.506 137.211 142.131 137.586C141.756 137.961 141.318 138.258 140.818 138.477C140.318 138.688 139.783 138.793 139.213 138.793H138.498C137.928 138.793 137.389 138.688 136.881 138.477C136.381 138.258 135.943 137.961 135.568 137.586C135.193 137.211 134.896 136.773 134.678 136.273C134.467 135.773 134.361 135.238 134.361 134.668V133.273C134.361 132.562 134.525 131.914 134.854 131.328C135.189 130.734 135.627 130.25 136.166 129.875C135.627 129.5 135.189 129.016 134.854 128.422C134.525 127.828 134.361 127.176 134.361 126.465V125.645C134.361 125.074 134.467 124.539 134.678 124.039C134.896 123.539 135.193 123.102 135.568 122.727C135.943 122.352 136.381 122.059 136.881 121.848C137.389 121.629 137.928 121.52 138.498 121.52H139.213C139.783 121.52 140.318 121.629 140.818 121.848C141.318 122.059 141.756 122.352 142.131 122.727C142.506 123.102 142.799 123.539 143.01 124.039C143.229 124.539 143.338 125.074 143.338 125.645V126.465C143.338 127.176 143.174 127.828 142.846 128.422C142.518 129.016 142.084 129.5 141.545 129.875C142.084 130.25 142.518 130.734 142.846 131.328C143.174 131.914 143.338 132.562 143.338 133.273V134.668ZM141.826 125.645C141.826 125.27 141.756 124.922 141.615 124.602C141.475 124.273 141.283 123.988 141.041 123.746C140.799 123.504 140.514 123.312 140.186 123.172C139.865 123.031 139.518 122.961 139.143 122.961H138.568C138.193 122.961 137.842 123.031 137.514 123.172C137.193 123.312 136.908 123.504 136.658 123.746C136.416 123.988 136.225 124.273 136.084 124.602C135.943 124.922 135.873 125.27 135.873 125.645V126.465C135.873 126.84 135.943 127.191 136.084 127.52C136.225 127.84 136.416 128.121 136.658 128.363C136.908 128.605 137.193 128.797 137.514 128.938C137.842 129.078 138.193 129.148 138.568 129.148H139.143C139.518 129.148 139.865 129.078 140.186 128.938C140.514 128.797 140.799 128.605 141.041 128.363C141.283 128.121 141.475 127.84 141.615 127.52C141.756 127.191 141.826 126.84 141.826 126.465V125.645ZM141.826 133.273C141.826 132.898 141.756 132.551 141.615 132.23C141.475 131.902 141.283 131.617 141.041 131.375C140.799 131.133 140.514 130.941 140.186 130.801C139.865 130.66 139.518 130.59 139.143 130.59H138.568C138.193 130.59 137.842 130.66 137.514 130.801C137.193 130.941 136.908 131.133 136.658 131.375C136.416 131.617 136.225 131.902 136.084 132.23C135.943 132.551 135.873 132.898 135.873 133.273V134.668C135.873 135.043 135.943 135.395 136.084 135.723C136.225 136.043 136.416 136.328 136.658 136.578C136.908 136.82 137.193 137.012 137.514 137.152C137.842 137.293 138.193 137.363 138.568 137.363H139.143C139.518 137.363 139.865 137.293 140.186 137.152C140.514 137.012 140.799 136.82 141.041 136.578C141.283 136.328 141.475 136.043 141.615 135.723C141.756 135.395 141.826 135.043 141.826 134.668V133.273Z" fill="#38383D"/>
<path d="M131.232 134.668C131.232 135.238 131.123 135.773 130.904 136.273C130.693 136.773 130.4 137.211 130.025 137.586C129.65 137.961 129.213 138.258 128.713 138.477C128.213 138.688 127.678 138.793 127.107 138.793H126.381C125.811 138.793 125.275 138.688 124.775 138.477C124.275 138.258 123.838 137.961 123.463 137.586C123.088 137.211 122.791 136.773 122.572 136.273C122.361 135.773 122.256 135.238 122.256 134.668V125.645C122.256 125.074 122.361 124.539 122.572 124.039C122.791 123.539 123.088 123.102 123.463 122.727C123.838 122.352 124.275 122.059 124.775 121.848C125.275 121.629 125.811 121.52 126.381 121.52H127.107C127.678 121.52 128.213 121.629 128.713 121.848C129.213 122.059 129.65 122.352 130.025 122.727C130.4 123.102 130.693 123.539 130.904 124.039C131.123 124.539 131.232 125.074 131.232 125.645V126.078L129.721 126.324V125.645C129.721 125.27 129.65 124.922 129.51 124.602C129.369 124.273 129.174 123.988 128.924 123.746C128.682 123.504 128.396 123.312 128.068 123.172C127.748 123.031 127.4 122.961 127.025 122.961H126.451C126.076 122.961 125.725 123.031 125.396 123.172C125.076 123.312 124.795 123.504 124.553 123.746C124.311 123.988 124.119 124.273 123.979 124.602C123.838 124.922 123.768 125.27 123.768 125.645V129.828C124.15 129.406 124.607 129.07 125.139 128.82C125.678 128.562 126.252 128.434 126.861 128.434H127.107C127.678 128.434 128.213 128.543 128.713 128.762C129.213 128.973 129.65 129.266 130.025 129.641C130.4 130.016 130.693 130.453 130.904 130.953C131.123 131.453 131.232 131.988 131.232 132.559V134.668ZM129.721 132.559C129.721 132.184 129.65 131.836 129.51 131.516C129.369 131.188 129.174 130.902 128.924 130.66C128.682 130.418 128.396 130.227 128.068 130.086C127.748 129.945 127.4 129.875 127.025 129.875H126.451C126.076 129.875 125.725 129.945 125.396 130.086C125.076 130.227 124.795 130.418 124.553 130.66C124.311 130.902 124.119 131.188 123.979 131.516C123.838 131.836 123.768 132.184 123.768 132.559V134.668C123.768 135.043 123.838 135.395 123.979 135.723C124.119 136.043 124.311 136.328 124.553 136.578C124.795 136.82 125.076 137.012 125.396 137.152C125.725 137.293 126.076 137.363 126.451 137.363H127.025C127.4 137.363 127.748 137.293 128.068 137.152C128.396 137.012 128.682 136.82 128.924 136.578C129.174 136.328 129.369 136.043 129.51 135.723C129.65 135.395 129.721 135.043 129.721 134.668V132.559Z" fill="#38383D"/>
<path d="M110.232 138.559V137.117H114.24V123.195L110.232 124.883V123.441L114.24 121.754H115.752V137.117H119.76V138.559H110.232Z" fill="#38383D"/>
<path d="M105.275 138.559V136.754H107.08V138.559H105.275Z" fill="#38383D"/>
<path d="M97.2598 122.961C96.8848 122.961 96.5332 123.031 96.2051 123.172C95.8848 123.312 95.6035 123.504 95.3613 123.746C95.1191 123.988 94.9277 124.273 94.7871 124.602C94.6465 124.922 94.5762 125.27 94.5762 125.645V126.324L93.0645 126.078V125.645C93.0645 125.074 93.1699 124.539 93.3809 124.039C93.5996 123.539 93.8965 123.102 94.2715 122.727C94.6465 122.352 95.084 122.059 95.584 121.848C96.084 121.629 96.6191 121.52 97.1895 121.52H97.9043C98.4746 121.52 99.0098 121.621 99.5098 121.824C100.018 122.027 100.459 122.32 100.834 122.703C101.209 123.086 101.502 123.547 101.713 124.086C101.932 124.617 102.041 125.219 102.041 125.891C102.041 126.555 101.939 127.223 101.736 127.895C101.541 128.566 101.279 129.227 100.951 129.875C100.631 130.523 100.26 131.152 99.8379 131.762C99.4238 132.371 98.998 132.945 98.5605 133.484C97.5371 134.742 96.377 135.953 95.0801 137.117H102.158V138.559H92.7012V137.363C94.1621 136.16 95.4668 134.914 96.6152 133.625C97.1074 133.07 97.5879 132.48 98.0566 131.855C98.5254 131.23 98.9434 130.59 99.3105 129.934C99.6777 129.27 99.9707 128.598 100.189 127.918C100.416 127.23 100.529 126.555 100.529 125.891C100.529 125.398 100.455 124.969 100.307 124.602C100.158 124.234 99.959 123.93 99.709 123.688C99.459 123.445 99.1699 123.266 98.8418 123.148C98.5215 123.023 98.1855 122.961 97.834 122.961H97.2598Z" fill="#38383D"/>
<path d="M90.2871 134.668C90.2871 135.238 90.1777 135.773 89.959 136.273C89.748 136.773 89.4551 137.211 89.0801 137.586C88.7051 137.961 88.2676 138.258 87.7676 138.477C87.2676 138.688 86.7324 138.793 86.1621 138.793H85.4355C84.8652 138.793 84.3301 138.688 83.8301 138.477C83.3301 138.258 82.8926 137.961 82.5176 137.586C82.1426 137.211 81.8457 136.773 81.627 136.273C81.416 135.773 81.3105 135.238 81.3105 134.668V134.234L82.8223 134V134.668C82.8223 135.043 82.8926 135.395 83.0332 135.723C83.1738 136.043 83.3652 136.328 83.6074 136.578C83.8496 136.82 84.1309 137.012 84.4512 137.152C84.7793 137.293 85.1309 137.363 85.5059 137.363H86.0801C86.4551 137.363 86.8027 137.293 87.123 137.152C87.4512 137.012 87.7363 136.82 87.9785 136.578C88.2285 136.328 88.4238 136.043 88.5645 135.723C88.7051 135.395 88.7754 135.043 88.7754 134.668V130.496C88.3848 130.918 87.9238 131.258 87.3926 131.516C86.8613 131.766 86.291 131.891 85.6816 131.891H85.4355C84.8652 131.891 84.3301 131.785 83.8301 131.574C83.3301 131.355 82.8926 131.059 82.5176 130.684C82.1426 130.309 81.8457 129.871 81.627 129.371C81.416 128.863 81.3105 128.324 81.3105 127.754V125.645C81.3105 125.074 81.416 124.539 81.627 124.039C81.8457 123.539 82.1426 123.102 82.5176 122.727C82.8926 122.352 83.3301 122.059 83.8301 121.848C84.3301 121.629 84.8652 121.52 85.4355 121.52H86.1621C86.7324 121.52 87.2676 121.629 87.7676 121.848C88.2676 122.059 88.7051 122.352 89.0801 122.727C89.4551 123.102 89.748 123.539 89.959 124.039C90.1777 124.539 90.2871 125.074 90.2871 125.645V134.668ZM88.7754 125.645C88.7754 125.27 88.7051 124.922 88.5645 124.602C88.4238 124.273 88.2285 123.988 87.9785 123.746C87.7363 123.504 87.4512 123.312 87.123 123.172C86.8027 123.031 86.4551 122.961 86.0801 122.961H85.5059C85.1309 122.961 84.7793 123.031 84.4512 123.172C84.1309 123.312 83.8496 123.504 83.6074 123.746C83.3652 123.988 83.1738 124.273 83.0332 124.602C82.8926 124.922 82.8223 125.27 82.8223 125.645V127.754C82.8223 128.129 82.8926 128.48 83.0332 128.809C83.1738 129.129 83.3652 129.414 83.6074 129.664C83.8496 129.906 84.1309 130.098 84.4512 130.238C84.7793 130.379 85.1309 130.449 85.5059 130.449H86.0801C86.4551 130.449 86.8027 130.379 87.123 130.238C87.4512 130.098 87.7363 129.906 87.9785 129.664C88.2285 129.414 88.4238 129.129 88.5645 128.809C88.7051 128.48 88.7754 128.129 88.7754 127.754V125.645Z" fill="#38383D"/>
<path d="M69.2871 138.559V137.117H73.2949V123.195L69.2871 124.883V123.441L73.2949 121.754H74.8066V137.117H78.8145V138.559H69.2871Z" fill="#38383D"/>
<path d="M163.916 103.668C163.916 104.238 163.807 104.773 163.588 105.273C163.377 105.773 163.084 106.211 162.709 106.586C162.334 106.961 161.896 107.258 161.396 107.477C160.896 107.688 160.361 107.793 159.791 107.793H159.076C158.506 107.793 157.967 107.688 157.459 107.477C156.959 107.258 156.521 106.961 156.146 106.586C155.771 106.211 155.475 105.773 155.256 105.273C155.045 104.773 154.939 104.238 154.939 103.668V94.6445C154.939 94.0742 155.045 93.5391 155.256 93.0391C155.475 92.5391 155.771 92.1016 156.146 91.7266C156.521 91.3516 156.959 91.0586 157.459 90.8477C157.967 90.6289 158.506 90.5195 159.076 90.5195H159.791C160.361 90.5195 160.896 90.6289 161.396 90.8477C161.896 91.0586 162.334 91.3516 162.709 91.7266C163.084 92.1016 163.377 92.5391 163.588 93.0391C163.807 93.5391 163.916 94.0742 163.916 94.6445V103.668ZM162.404 94.6445C162.404 94.2695 162.334 93.9219 162.193 93.6016C162.053 93.2734 161.861 92.9883 161.619 92.7461C161.377 92.5039 161.092 92.3125 160.764 92.1719C160.443 92.0312 160.096 91.9609 159.721 91.9609H159.146C158.771 91.9609 158.42 92.0312 158.092 92.1719C157.771 92.3125 157.486 92.5039 157.236 92.7461C156.994 92.9883 156.803 93.2734 156.662 93.6016C156.521 93.9219 156.451 94.2695 156.451 94.6445V103.668C156.451 104.043 156.521 104.395 156.662 104.723C156.803 105.043 156.994 105.328 157.236 105.578C157.486 105.82 157.771 106.012 158.092 106.152C158.42 106.293 158.771 106.363 159.146 106.363H159.721C160.096 106.363 160.443 106.293 160.764 106.152C161.092 106.012 161.377 105.82 161.619 105.578C161.861 105.328 162.053 105.043 162.193 104.723C162.334 104.395 162.404 104.043 162.404 103.668V94.6445Z" fill="#38383D"/>
<path d="M150.463 107.559V105.754H152.268V107.559H150.463Z" fill="#38383D"/>
<path d="M147.768 103.668C147.768 104.238 147.658 104.773 147.439 105.273C147.229 105.773 146.936 106.211 146.561 106.586C146.186 106.961 145.748 107.258 145.248 107.477C144.748 107.688 144.213 107.793 143.643 107.793H142.928C142.357 107.793 141.818 107.688 141.311 107.477C140.811 107.258 140.373 106.961 139.998 106.586C139.623 106.211 139.326 105.773 139.107 105.273C138.896 104.773 138.791 104.238 138.791 103.668V94.6445C138.791 94.0742 138.896 93.5391 139.107 93.0391C139.326 92.5391 139.623 92.1016 139.998 91.7266C140.373 91.3516 140.811 91.0586 141.311 90.8477C141.818 90.6289 142.357 90.5195 142.928 90.5195H143.643C144.213 90.5195 144.748 90.6289 145.248 90.8477C145.748 91.0586 146.186 91.3516 146.561 91.7266C146.936 92.1016 147.229 92.5391 147.439 93.0391C147.658 93.5391 147.768 94.0742 147.768 94.6445V103.668ZM146.256 94.6445C146.256 94.2695 146.186 93.9219 146.045 93.6016C145.904 93.2734 145.713 92.9883 145.471 92.7461C145.229 92.5039 144.943 92.3125 144.615 92.1719C144.295 92.0312 143.947 91.9609 143.572 91.9609H142.998C142.623 91.9609 142.271 92.0312 141.943 92.1719C141.623 92.3125 141.338 92.5039 141.088 92.7461C140.846 92.9883 140.654 93.2734 140.514 93.6016C140.373 93.9219 140.303 94.2695 140.303 94.6445V103.668C140.303 104.043 140.373 104.395 140.514 104.723C140.654 105.043 140.846 105.328 141.088 105.578C141.338 105.82 141.623 106.012 141.943 106.152C142.271 106.293 142.623 106.363 142.998 106.363H143.572C143.947 106.363 144.295 106.293 144.615 106.152C144.943 106.012 145.229 105.82 145.471 105.578C145.713 105.328 145.904 105.043 146.045 104.723C146.186 104.395 146.256 104.043 146.256 103.668V94.6445Z" fill="#38383D"/>
<path d="M134.314 107.559V105.754H136.119V107.559H134.314Z" fill="#38383D"/>
<path d="M131.631 103.668C131.631 104.238 131.521 104.773 131.303 105.273C131.092 105.773 130.799 106.211 130.424 106.586C130.049 106.961 129.611 107.258 129.111 107.477C128.611 107.688 128.076 107.793 127.506 107.793H126.779C126.209 107.793 125.674 107.688 125.174 107.477C124.674 107.258 124.236 106.961 123.861 106.586C123.486 106.211 123.189 105.773 122.971 105.273C122.76 104.773 122.654 104.238 122.654 103.668V94.6445C122.654 94.0742 122.76 93.5391 122.971 93.0391C123.189 92.5391 123.486 92.1016 123.861 91.7266C124.236 91.3516 124.674 91.0586 125.174 90.8477C125.674 90.6289 126.209 90.5195 126.779 90.5195H127.506C128.076 90.5195 128.611 90.6289 129.111 90.8477C129.611 91.0586 130.049 91.3516 130.424 91.7266C130.799 92.1016 131.092 92.5391 131.303 93.0391C131.521 93.5391 131.631 94.0742 131.631 94.6445V95.0781L130.119 95.3242V94.6445C130.119 94.2695 130.049 93.9219 129.908 93.6016C129.768 93.2734 129.572 92.9883 129.322 92.7461C129.08 92.5039 128.795 92.3125 128.467 92.1719C128.146 92.0312 127.799 91.9609 127.424 91.9609H126.85C126.475 91.9609 126.123 92.0312 125.795 92.1719C125.475 92.3125 125.193 92.5039 124.951 92.7461C124.709 92.9883 124.518 93.2734 124.377 93.6016C124.236 93.9219 124.166 94.2695 124.166 94.6445V98.8281C124.549 98.4062 125.006 98.0703 125.537 97.8203C126.076 97.5625 126.65 97.4336 127.26 97.4336H127.506C128.076 97.4336 128.611 97.543 129.111 97.7617C129.611 97.9727 130.049 98.2656 130.424 98.6406C130.799 99.0156 131.092 99.4531 131.303 99.9531C131.521 100.453 131.631 100.988 131.631 101.559V103.668ZM130.119 101.559C130.119 101.184 130.049 100.836 129.908 100.516C129.768 100.188 129.572 99.9023 129.322 99.6602C129.08 99.418 128.795 99.2266 128.467 99.0859C128.146 98.9453 127.799 98.875 127.424 98.875H126.85C126.475 98.875 126.123 98.9453 125.795 99.0859C125.475 99.2266 125.193 99.418 124.951 99.6602C124.709 99.9023 124.518 100.188 124.377 100.516C124.236 100.836 124.166 101.184 124.166 101.559V103.668C124.166 104.043 124.236 104.395 124.377 104.723C124.518 105.043 124.709 105.328 124.951 105.578C125.193 105.82 125.475 106.012 125.795 106.152C126.123 106.293 126.475 106.363 126.85 106.363H127.424C127.799 106.363 128.146 106.293 128.467 106.152C128.795 106.012 129.08 105.82 129.322 105.578C129.572 105.328 129.768 105.043 129.908 104.723C130.049 104.395 130.119 104.043 130.119 103.668V101.559Z" fill="#38383D"/>
<path d="M110.631 107.559V106.117H114.639V92.1953L110.631 93.8828V92.4414L114.639 90.7539H116.15V106.117H120.158V107.559H110.631Z" fill="#38383D"/>
<path d="M105.674 107.559V105.754H107.479V107.559H105.674Z" fill="#38383D"/>
<path d="M97.6582 91.9609C97.2832 91.9609 96.9316 92.0312 96.6035 92.1719C96.2832 92.3125 96.002 92.5039 95.7598 92.7461C95.5176 92.9883 95.3262 93.2734 95.1855 93.6016C95.0449 93.9219 94.9746 94.2695 94.9746 94.6445V95.3242L93.4629 95.0781V94.6445C93.4629 94.0742 93.5684 93.5391 93.7793 93.0391C93.998 92.5391 94.2949 92.1016 94.6699 91.7266C95.0449 91.3516 95.4824 91.0586 95.9824 90.8477C96.4824 90.6289 97.0176 90.5195 97.5879 90.5195H98.3027C98.873 90.5195 99.4082 90.6211 99.9082 90.8242C100.416 91.0273 100.857 91.3203 101.232 91.7031C101.607 92.0859 101.9 92.5469 102.111 93.0859C102.33 93.6172 102.439 94.2188 102.439 94.8906C102.439 95.5547 102.338 96.2227 102.135 96.8945C101.939 97.5664 101.678 98.2266 101.35 98.875C101.029 99.5234 100.658 100.152 100.236 100.762C99.8223 101.371 99.3965 101.945 98.959 102.484C97.9355 103.742 96.7754 104.953 95.4785 106.117H102.557V107.559H93.0996V106.363C94.5605 105.16 95.8652 103.914 97.0137 102.625C97.5059 102.07 97.9863 101.48 98.4551 100.855C98.9238 100.23 99.3418 99.5898 99.709 98.9336C100.076 98.2695 100.369 97.5977 100.588 96.918C100.814 96.2305 100.928 95.5547 100.928 94.8906C100.928 94.3984 100.854 93.9688 100.705 93.6016C100.557 93.2344 100.357 92.9297 100.107 92.6875C99.8574 92.4453 99.5684 92.2656 99.2402 92.1484C98.9199 92.0234 98.584 91.9609 98.2324 91.9609H97.6582Z" fill="#38383D"/>
<path d="M84.3457 107.559H82.7637L89.0566 92.1953H83.2207V94.4336H81.709V90.7539H90.9199V91.4805L84.3457 107.559Z" fill="#38383D"/>
<path d="M69.2871 107.559V106.117H73.2949V92.1953L69.2871 93.8828V92.4414L73.2949 90.7539H74.8066V106.117H78.8145V107.559H69.2871Z" fill="#38383D"/>
<path d="M138.885 72.668C138.885 73.2383 138.775 73.7734 138.557 74.2734C138.346 74.7734 138.053 75.2109 137.678 75.5859C137.303 75.9609 136.865 76.2578 136.365 76.4766C135.865 76.6875 135.33 76.793 134.76 76.793H134.045C133.475 76.793 132.936 76.6875 132.428 76.4766C131.928 76.2578 131.49 75.9609 131.115 75.5859C130.74 75.2109 130.443 74.7734 130.225 74.2734C130.014 73.7734 129.908 73.2383 129.908 72.668V63.6445C129.908 63.0742 130.014 62.5391 130.225 62.0391C130.443 61.5391 130.74 61.1016 131.115 60.7266C131.49 60.3516 131.928 60.0586 132.428 59.8477C132.936 59.6289 133.475 59.5195 134.045 59.5195H134.76C135.33 59.5195 135.865 59.6289 136.365 59.8477C136.865 60.0586 137.303 60.3516 137.678 60.7266C138.053 61.1016 138.346 61.5391 138.557 62.0391C138.775 62.5391 138.885 63.0742 138.885 63.6445V72.668ZM137.373 63.6445C137.373 63.2695 137.303 62.9219 137.162 62.6016C137.021 62.2734 136.83 61.9883 136.588 61.7461C136.346 61.5039 136.061 61.3125 135.732 61.1719C135.412 61.0312 135.064 60.9609 134.689 60.9609H134.115C133.74 60.9609 133.389 61.0312 133.061 61.1719C132.74 61.3125 132.455 61.5039 132.205 61.7461C131.963 61.9883 131.771 62.2734 131.631 62.6016C131.49 62.9219 131.42 63.2695 131.42 63.6445V72.668C131.42 73.043 131.49 73.3945 131.631 73.7227C131.771 74.043 131.963 74.3281 132.205 74.5781C132.455 74.8203 132.74 75.0117 133.061 75.1523C133.389 75.293 133.74 75.3633 134.115 75.3633H134.689C135.064 75.3633 135.412 75.293 135.732 75.1523C136.061 75.0117 136.346 74.8203 136.588 74.5781C136.83 74.3281 137.021 74.043 137.162 73.7227C137.303 73.3945 137.373 73.043 137.373 72.668V63.6445Z" fill="#38383D"/>
<path d="M125.432 76.5586V74.7539H127.236V76.5586H125.432Z" fill="#38383D"/>
<path d="M122.736 72.668C122.736 73.2383 122.627 73.7734 122.408 74.2734C122.197 74.7734 121.904 75.2109 121.529 75.5859C121.154 75.9609 120.717 76.2578 120.217 76.4766C119.717 76.6875 119.182 76.793 118.611 76.793H117.896C117.326 76.793 116.787 76.6875 116.279 76.4766C115.779 76.2578 115.342 75.9609 114.967 75.5859C114.592 75.2109 114.295 74.7734 114.076 74.2734C113.865 73.7734 113.76 73.2383 113.76 72.668V63.6445C113.76 63.0742 113.865 62.5391 114.076 62.0391C114.295 61.5391 114.592 61.1016 114.967 60.7266C115.342 60.3516 115.779 60.0586 116.279 59.8477C116.787 59.6289 117.326 59.5195 117.896 59.5195H118.611C119.182 59.5195 119.717 59.6289 120.217 59.8477C120.717 60.0586 121.154 60.3516 121.529 60.7266C121.904 61.1016 122.197 61.5391 122.408 62.0391C122.627 62.5391 122.736 63.0742 122.736 63.6445V72.668ZM121.225 63.6445C121.225 63.2695 121.154 62.9219 121.014 62.6016C120.873 62.2734 120.682 61.9883 120.439 61.7461C120.197 61.5039 119.912 61.3125 119.584 61.1719C119.264 61.0312 118.916 60.9609 118.541 60.9609H117.967C117.592 60.9609 117.24 61.0312 116.912 61.1719C116.592 61.3125 116.307 61.5039 116.057 61.7461C115.814 61.9883 115.623 62.2734 115.482 62.6016C115.342 62.9219 115.271 63.2695 115.271 63.6445V72.668C115.271 73.043 115.342 73.3945 115.482 73.7227C115.623 74.043 115.814 74.3281 116.057 74.5781C116.307 74.8203 116.592 75.0117 116.912 75.1523C117.24 75.293 117.592 75.3633 117.967 75.3633H118.541C118.916 75.3633 119.264 75.293 119.584 75.1523C119.912 75.0117 120.197 74.8203 120.439 74.5781C120.682 74.3281 120.873 74.043 121.014 73.7227C121.154 73.3945 121.225 73.043 121.225 72.668V63.6445Z" fill="#38383D"/>
<path d="M109.283 76.5586V74.7539H111.088V76.5586H109.283Z" fill="#38383D"/>
<path d="M106.588 72.668C106.588 73.2383 106.479 73.7734 106.26 74.2734C106.049 74.7734 105.756 75.2109 105.381 75.5859C105.006 75.9609 104.568 76.2578 104.068 76.4766C103.568 76.6875 103.033 76.793 102.463 76.793H101.748C101.178 76.793 100.639 76.6875 100.131 76.4766C99.6309 76.2578 99.1934 75.9609 98.8184 75.5859C98.4434 75.2109 98.1465 74.7734 97.9277 74.2734C97.7168 73.7734 97.6113 73.2383 97.6113 72.668V63.6445C97.6113 63.0742 97.7168 62.5391 97.9277 62.0391C98.1465 61.5391 98.4434 61.1016 98.8184 60.7266C99.1934 60.3516 99.6309 60.0586 100.131 59.8477C100.639 59.6289 101.178 59.5195 101.748 59.5195H102.463C103.033 59.5195 103.568 59.6289 104.068 59.8477C104.568 60.0586 105.006 60.3516 105.381 60.7266C105.756 61.1016 106.049 61.5391 106.26 62.0391C106.479 62.5391 106.588 63.0742 106.588 63.6445V72.668ZM105.076 63.6445C105.076 63.2695 105.006 62.9219 104.865 62.6016C104.725 62.2734 104.533 61.9883 104.291 61.7461C104.049 61.5039 103.764 61.3125 103.436 61.1719C103.115 61.0312 102.768 60.9609 102.393 60.9609H101.818C101.443 60.9609 101.092 61.0312 100.764 61.1719C100.443 61.3125 100.158 61.5039 99.9082 61.7461C99.666 61.9883 99.4746 62.2734 99.334 62.6016C99.1934 62.9219 99.123 63.2695 99.123 63.6445V72.668C99.123 73.043 99.1934 73.3945 99.334 73.7227C99.4746 74.043 99.666 74.3281 99.9082 74.5781C100.158 74.8203 100.443 75.0117 100.764 75.1523C101.092 75.293 101.443 75.3633 101.818 75.3633H102.393C102.768 75.3633 103.115 75.293 103.436 75.1523C103.764 75.0117 104.049 74.8203 104.291 74.5781C104.533 74.3281 104.725 74.043 104.865 73.7227C105.006 73.3945 105.076 73.043 105.076 72.668V63.6445Z" fill="#38383D"/>
<path d="M93.1348 76.5586V74.7539H94.9395V76.5586H93.1348Z" fill="#38383D"/>
<path d="M90.4395 72.668C90.4395 73.2383 90.3301 73.7734 90.1113 74.2734C89.9004 74.7734 89.6074 75.2109 89.2324 75.5859C88.8574 75.9609 88.4199 76.2578 87.9199 76.4766C87.4199 76.6875 86.8848 76.793 86.3145 76.793H85.5996C85.0293 76.793 84.4902 76.6875 83.9824 76.4766C83.4824 76.2578 83.0449 75.9609 82.6699 75.5859C82.2949 75.2109 81.998 74.7734 81.7793 74.2734C81.5684 73.7734 81.4629 73.2383 81.4629 72.668V63.6445C81.4629 63.0742 81.5684 62.5391 81.7793 62.0391C81.998 61.5391 82.2949 61.1016 82.6699 60.7266C83.0449 60.3516 83.4824 60.0586 83.9824 59.8477C84.4902 59.6289 85.0293 59.5195 85.5996 59.5195H86.3145C86.8848 59.5195 87.4199 59.6289 87.9199 59.8477C88.4199 60.0586 88.8574 60.3516 89.2324 60.7266C89.6074 61.1016 89.9004 61.5391 90.1113 62.0391C90.3301 62.5391 90.4395 63.0742 90.4395 63.6445V72.668ZM88.9277 63.6445C88.9277 63.2695 88.8574 62.9219 88.7168 62.6016C88.5762 62.2734 88.3848 61.9883 88.1426 61.7461C87.9004 61.5039 87.6152 61.3125 87.2871 61.1719C86.9668 61.0312 86.6191 60.9609 86.2441 60.9609H85.6699C85.2949 60.9609 84.9434 61.0312 84.6152 61.1719C84.2949 61.3125 84.0098 61.5039 83.7598 61.7461C83.5176 61.9883 83.3262 62.2734 83.1855 62.6016C83.0449 62.9219 82.9746 63.2695 82.9746 63.6445V72.668C82.9746 73.043 83.0449 73.3945 83.1855 73.7227C83.3262 74.043 83.5176 74.3281 83.7598 74.5781C84.0098 74.8203 84.2949 75.0117 84.6152 75.1523C84.9434 75.293 85.2949 75.3633 85.6699 75.3633H86.2441C86.6191 75.3633 86.9668 75.293 87.2871 75.1523C87.6152 75.0117 87.9004 74.8203 88.1426 74.5781C88.3848 74.3281 88.5762 74.043 88.7168 73.7227C88.8574 73.3945 88.9277 73.043 88.9277 72.668V63.6445Z" fill="#38383D"/>
<path d="M69.2871 76.5586V75.1172H73.2949V61.1953L69.2871 62.8828V61.4414L73.2949 59.7539H74.8066V75.1172H78.8145V76.5586H69.2871Z" fill="#38383D"/>
<path d="M11.498 134.668C11.498 135.238 11.3887 135.773 11.1699 136.273C10.959 136.773 10.666 137.211 10.291 137.586C9.91602 137.961 9.47852 138.258 8.97852 138.477C8.47852 138.688 7.94336 138.793 7.37305 138.793H6.17773C5.60742 138.793 5.06836 138.688 4.56055 138.477C4.06055 138.258 3.62305 137.961 3.24805 137.586C2.87305 137.211 2.57617 136.773 2.35742 136.273C2.14648 135.773 2.04102 135.238 2.04102 134.668V125.645C2.04102 125.074 2.14648 124.539 2.35742 124.039C2.57617 123.539 2.87305 123.102 3.24805 122.727C3.62305 122.352 4.06055 122.059 4.56055 121.848C5.06836 121.629 5.60742 121.52 6.17773 121.52H7.37305C7.94336 121.52 8.47852 121.629 8.97852 121.848C9.47852 122.059 9.91602 122.352 10.291 122.727C10.666 123.102 10.959 123.539 11.1699 124.039C11.3887 124.539 11.498 125.074 11.498 125.645V126.324L9.98633 126.559V125.645C9.98633 125.27 9.91602 124.922 9.77539 124.602C9.63477 124.273 9.44336 123.988 9.20117 123.746C8.95898 123.504 8.67383 123.312 8.3457 123.172C8.02539 123.031 7.67773 122.961 7.30273 122.961H6.24805C5.87305 122.961 5.52148 123.031 5.19336 123.172C4.87305 123.312 4.58789 123.504 4.33789 123.746C4.0957 123.988 3.9043 124.273 3.76367 124.602C3.62305 124.922 3.55273 125.27 3.55273 125.645V134.668C3.55273 135.043 3.62305 135.395 3.76367 135.723C3.9043 136.043 4.0957 136.328 4.33789 136.578C4.58789 136.82 4.87305 137.012 5.19336 137.152C5.52148 137.293 5.87305 137.363 6.24805 137.363H7.30273C7.67773 137.363 8.02539 137.293 8.3457 137.152C8.67383 137.012 8.95898 136.82 9.20117 136.578C9.44336 136.328 9.63477 136.043 9.77539 135.723C9.91602 135.395 9.98633 135.043 9.98633 134.668V133.754L11.498 134V134.668Z" fill="#38383D"/>
<path d="M11.7441 103.434C11.7441 104.004 11.6348 104.539 11.416 105.039C11.2051 105.539 10.9121 105.977 10.5371 106.352C10.1621 106.727 9.7207 107.023 9.21289 107.242C8.71289 107.453 8.17773 107.559 7.60742 107.559H2.28711V90.7539H7.60742C8.17773 90.7539 8.71289 90.8633 9.21289 91.082C9.7207 91.293 10.1621 91.5859 10.5371 91.9609C10.9121 92.3359 11.2051 92.7773 11.416 93.2852C11.6348 93.7852 11.7441 94.3203 11.7441 94.8906V95.0547C11.7441 95.4531 11.6895 95.8359 11.5801 96.2031C11.4785 96.5625 11.3301 96.8984 11.1348 97.2109C10.9395 97.5234 10.709 97.8086 10.4434 98.0664C10.1777 98.3164 9.88086 98.5273 9.55273 98.6992C9.88086 98.8711 10.1777 99.0859 10.4434 99.3438C10.709 99.5938 10.9395 99.8789 11.1348 100.199C11.3301 100.512 11.4785 100.852 11.5801 101.219C11.6895 101.578 11.7441 101.957 11.7441 102.355V103.434ZM10.2324 102.109C10.2324 101.734 10.1621 101.387 10.0215 101.066C9.88086 100.738 9.68555 100.453 9.43555 100.211C9.19336 99.9688 8.9082 99.7773 8.58008 99.6367C8.25977 99.4961 7.91211 99.4258 7.53711 99.4258H3.79883V106.117H7.53711C7.91211 106.117 8.25977 106.047 8.58008 105.906C8.9082 105.766 9.19336 105.574 9.43555 105.332C9.68555 105.09 9.88086 104.809 10.0215 104.488C10.1621 104.16 10.2324 103.809 10.2324 103.434V102.109ZM10.2324 94.8906C10.2324 94.5156 10.1621 94.168 10.0215 93.8477C9.88086 93.5195 9.68555 93.2344 9.43555 92.9922C9.19336 92.7422 8.9082 92.5469 8.58008 92.4062C8.25977 92.2656 7.91211 92.1953 7.53711 92.1953H3.79883V97.9844H7.53711C7.91211 97.9844 8.25977 97.9141 8.58008 97.7734C8.9082 97.6328 9.19336 97.4414 9.43555 97.1992C9.68555 96.9492 9.88086 96.6641 10.0215 96.3438C10.1621 96.0156 10.2324 95.6641 10.2324 95.2891V94.8906Z" fill="#38383D"/>
<path d="M8.5918 72.6445H3.27148L2.16992 76.5586H0.599609L5.52148 59.7539H6.31836L11.2637 76.5586H9.70508L8.5918 72.6445ZM3.68164 71.2031H8.19336L5.97852 63.457L5.93164 62.8359L5.88477 63.457L3.68164 71.2031Z" fill="#38383D"/>
<path d="M362.416 134.668C362.416 135.238 362.307 135.773 362.088 136.273C361.877 136.773 361.584 137.211 361.209 137.586C360.834 137.961 360.396 138.258 359.896 138.477C359.396 138.688 358.861 138.793 358.291 138.793H357.576C357.006 138.793 356.467 138.688 355.959 138.477C355.459 138.258 355.021 137.961 354.646 137.586C354.271 137.211 353.975 136.773 353.756 136.273C353.545 135.773 353.439 135.238 353.439 134.668V125.645C353.439 125.074 353.545 124.539 353.756 124.039C353.975 123.539 354.271 123.102 354.646 122.727C355.021 122.352 355.459 122.059 355.959 121.848C356.467 121.629 357.006 121.52 357.576 121.52H358.291C358.861 121.52 359.396 121.629 359.896 121.848C360.396 122.059 360.834 122.352 361.209 122.727C361.584 123.102 361.877 123.539 362.088 124.039C362.307 124.539 362.416 125.074 362.416 125.645V134.668ZM360.904 125.645C360.904 125.27 360.834 124.922 360.693 124.602C360.553 124.273 360.361 123.988 360.119 123.746C359.877 123.504 359.592 123.312 359.264 123.172C358.943 123.031 358.596 122.961 358.221 122.961H357.646C357.271 122.961 356.92 123.031 356.592 123.172C356.271 123.312 355.986 123.504 355.736 123.746C355.494 123.988 355.303 124.273 355.162 124.602C355.021 124.922 354.951 125.27 354.951 125.645V134.668C354.951 135.043 355.021 135.395 355.162 135.723C355.303 136.043 355.494 136.328 355.736 136.578C355.986 136.82 356.271 137.012 356.592 137.152C356.92 137.293 357.271 137.363 357.646 137.363H358.221C358.596 137.363 358.943 137.293 359.264 137.152C359.592 137.012 359.877 136.82 360.119 136.578C360.361 136.328 360.553 136.043 360.693 135.723C360.834 135.395 360.904 135.043 360.904 134.668V125.645Z" fill="#38383D"/>
<path d="M348.963 138.559V136.754H350.768V138.559H348.963Z" fill="#38383D"/>
<path d="M346.268 134.668C346.268 135.238 346.158 135.773 345.939 136.273C345.729 136.773 345.436 137.211 345.061 137.586C344.686 137.961 344.248 138.258 343.748 138.477C343.248 138.688 342.713 138.793 342.143 138.793H341.428C340.857 138.793 340.318 138.688 339.811 138.477C339.311 138.258 338.873 137.961 338.498 137.586C338.123 137.211 337.826 136.773 337.607 136.273C337.396 135.773 337.291 135.238 337.291 134.668V134.41H338.803V134.668C338.803 135.043 338.873 135.395 339.014 135.723C339.154 136.043 339.346 136.328 339.588 136.578C339.838 136.82 340.123 137.012 340.443 137.152C340.771 137.293 341.123 137.363 341.498 137.363H342.072C342.447 137.363 342.795 137.293 343.115 137.152C343.443 137.012 343.729 136.82 343.971 136.578C344.213 136.328 344.404 136.043 344.545 135.723C344.686 135.395 344.756 135.043 344.756 134.668V131.41C344.756 131.035 344.686 130.688 344.545 130.367C344.404 130.039 344.213 129.754 343.971 129.512C343.729 129.262 343.443 129.066 343.115 128.926C342.795 128.785 342.447 128.715 342.072 128.715H341.498C341.123 128.715 340.771 128.785 340.443 128.926C340.123 129.066 339.838 129.262 339.588 129.512C339.346 129.754 339.154 130.039 339.014 130.367C338.873 130.688 338.803 131.035 338.803 131.41H337.291L338.252 121.754H345.436V123.195H339.67L339.119 128.363C339.479 128.02 339.896 127.754 340.373 127.566C340.85 127.371 341.361 127.273 341.908 127.273H342.143C342.713 127.273 343.248 127.383 343.748 127.602C344.248 127.812 344.686 128.105 345.061 128.48C345.436 128.855 345.729 129.297 345.939 129.805C346.158 130.305 346.268 130.84 346.268 131.41V134.668Z" fill="#38383D"/>
<path d="M334.15 134.668C334.15 135.238 334.041 135.773 333.822 136.273C333.611 136.773 333.318 137.211 332.943 137.586C332.568 137.961 332.131 138.258 331.631 138.477C331.131 138.688 330.596 138.793 330.025 138.793H329.311C328.74 138.793 328.201 138.688 327.693 138.477C327.193 138.258 326.756 137.961 326.381 137.586C326.006 137.211 325.709 136.773 325.49 136.273C325.279 135.773 325.174 135.238 325.174 134.668V134.41H326.686V134.668C326.686 135.043 326.756 135.395 326.896 135.723C327.037 136.043 327.229 136.328 327.471 136.578C327.721 136.82 328.006 137.012 328.326 137.152C328.654 137.293 329.006 137.363 329.381 137.363H329.955C330.33 137.363 330.678 137.293 330.998 137.152C331.326 137.012 331.611 136.82 331.854 136.578C332.096 136.328 332.287 136.043 332.428 135.723C332.568 135.395 332.639 135.043 332.639 134.668V131.41C332.639 131.035 332.568 130.688 332.428 130.367C332.287 130.039 332.096 129.754 331.854 129.512C331.611 129.262 331.326 129.066 330.998 128.926C330.678 128.785 330.33 128.715 329.955 128.715H329.381C329.006 128.715 328.654 128.785 328.326 128.926C328.006 129.066 327.721 129.262 327.471 129.512C327.229 129.754 327.037 130.039 326.896 130.367C326.756 130.688 326.686 131.035 326.686 131.41H325.174L326.135 121.754H333.318V123.195H327.553L327.002 128.363C327.361 128.02 327.779 127.754 328.256 127.566C328.732 127.371 329.244 127.273 329.791 127.273H330.025C330.596 127.273 331.131 127.383 331.631 127.602C332.131 127.812 332.568 128.105 332.943 128.48C333.318 128.855 333.611 129.297 333.822 129.805C334.041 130.305 334.15 130.84 334.15 131.41V134.668Z" fill="#38383D"/>
<path d="M317.604 122.961C317.229 122.961 316.877 123.031 316.549 123.172C316.229 123.312 315.947 123.504 315.705 123.746C315.463 123.988 315.271 124.273 315.131 124.602C314.99 124.922 314.92 125.27 314.92 125.645V126.324L313.408 126.078V125.645C313.408 125.074 313.514 124.539 313.725 124.039C313.943 123.539 314.24 123.102 314.615 122.727C314.99 122.352 315.428 122.059 315.928 121.848C316.428 121.629 316.963 121.52 317.533 121.52H318.248C318.818 121.52 319.354 121.621 319.854 121.824C320.361 122.027 320.803 122.32 321.178 122.703C321.553 123.086 321.846 123.547 322.057 124.086C322.275 124.617 322.385 125.219 322.385 125.891C322.385 126.555 322.283 127.223 322.08 127.895C321.885 128.566 321.623 129.227 321.295 129.875C320.975 130.523 320.604 131.152 320.182 131.762C319.768 132.371 319.342 132.945 318.904 133.484C317.881 134.742 316.721 135.953 315.424 137.117H322.502V138.559H313.045V137.363C314.506 136.16 315.811 134.914 316.959 133.625C317.451 133.07 317.932 132.48 318.4 131.855C318.869 131.23 319.287 130.59 319.654 129.934C320.021 129.27 320.314 128.598 320.533 127.918C320.76 127.23 320.873 126.555 320.873 125.891C320.873 125.398 320.799 124.969 320.65 124.602C320.502 124.234 320.303 123.93 320.053 123.688C319.803 123.445 319.514 123.266 319.186 123.148C318.865 123.023 318.529 122.961 318.178 122.961H317.604Z" fill="#38383D"/>
<path d="M308.604 138.559V136.754H310.408V138.559H308.604Z" fill="#38383D"/>
<path d="M305.908 134.668C305.908 135.238 305.799 135.773 305.58 136.273C305.369 136.773 305.076 137.211 304.701 137.586C304.326 137.961 303.889 138.258 303.389 138.477C302.889 138.688 302.354 138.793 301.783 138.793H301.068C300.498 138.793 299.959 138.688 299.451 138.477C298.951 138.258 298.514 137.961 298.139 137.586C297.764 137.211 297.467 136.773 297.248 136.273C297.037 135.773 296.932 135.238 296.932 134.668V134.41H298.443V134.668C298.443 135.043 298.514 135.395 298.654 135.723C298.795 136.043 298.986 136.328 299.229 136.578C299.479 136.82 299.764 137.012 300.084 137.152C300.412 137.293 300.764 137.363 301.139 137.363H301.713C302.088 137.363 302.436 137.293 302.756 137.152C303.084 137.012 303.369 136.82 303.611 136.578C303.854 136.328 304.045 136.043 304.186 135.723C304.326 135.395 304.396 135.043 304.396 134.668V131.41C304.396 131.035 304.326 130.688 304.186 130.367C304.045 130.039 303.854 129.754 303.611 129.512C303.369 129.262 303.084 129.066 302.756 128.926C302.436 128.785 302.088 128.715 301.713 128.715H301.139C300.764 128.715 300.412 128.785 300.084 128.926C299.764 129.066 299.479 129.262 299.229 129.512C298.986 129.754 298.795 130.039 298.654 130.367C298.514 130.688 298.443 131.035 298.443 131.41H296.932L297.893 121.754H305.076V123.195H299.311L298.76 128.363C299.119 128.02 299.537 127.754 300.014 127.566C300.49 127.371 301.002 127.273 301.549 127.273H301.783C302.354 127.273 302.889 127.383 303.389 127.602C303.889 127.812 304.326 128.105 304.701 128.48C305.076 128.855 305.369 129.297 305.58 129.805C305.799 130.305 305.908 130.84 305.908 131.41V134.668Z" fill="#38383D"/>
<path d="M293.791 134.668C293.791 135.238 293.682 135.773 293.463 136.273C293.252 136.773 292.959 137.211 292.584 137.586C292.209 137.961 291.771 138.258 291.271 138.477C290.771 138.688 290.236 138.793 289.666 138.793H288.951C288.381 138.793 287.842 138.688 287.334 138.477C286.834 138.258 286.396 137.961 286.021 137.586C285.646 137.211 285.35 136.773 285.131 136.273C284.92 135.773 284.814 135.238 284.814 134.668V134.41H286.326V134.668C286.326 135.043 286.396 135.395 286.537 135.723C286.678 136.043 286.869 136.328 287.111 136.578C287.361 136.82 287.646 137.012 287.967 137.152C288.295 137.293 288.646 137.363 289.021 137.363H289.596C289.971 137.363 290.318 137.293 290.639 137.152C290.967 137.012 291.252 136.82 291.494 136.578C291.736 136.328 291.928 136.043 292.068 135.723C292.209 135.395 292.279 135.043 292.279 134.668V131.41C292.279 131.035 292.209 130.688 292.068 130.367C291.928 130.039 291.736 129.754 291.494 129.512C291.252 129.262 290.967 129.066 290.639 128.926C290.318 128.785 289.971 128.715 289.596 128.715H289.021C288.646 128.715 288.295 128.785 287.967 128.926C287.646 129.066 287.361 129.262 287.111 129.512C286.869 129.754 286.678 130.039 286.537 130.367C286.396 130.688 286.326 131.035 286.326 131.41H284.814L285.775 121.754H292.959V123.195H287.193L286.643 128.363C287.002 128.02 287.42 127.754 287.896 127.566C288.373 127.371 288.885 127.273 289.432 127.273H289.666C290.236 127.273 290.771 127.383 291.271 127.602C291.771 127.812 292.209 128.105 292.584 128.48C292.959 128.855 293.252 129.297 293.463 129.805C293.682 130.305 293.791 130.84 293.791 131.41V134.668Z" fill="#38383D"/>
<path d="M277.244 122.961C276.869 122.961 276.518 123.031 276.189 123.172C275.869 123.312 275.588 123.504 275.346 123.746C275.104 123.988 274.912 124.273 274.771 124.602C274.631 124.922 274.561 125.27 274.561 125.645V126.324L273.049 126.078V125.645C273.049 125.074 273.154 124.539 273.365 124.039C273.584 123.539 273.881 123.102 274.256 122.727C274.631 122.352 275.068 122.059 275.568 121.848C276.068 121.629 276.604 121.52 277.174 121.52H277.889C278.459 121.52 278.994 121.621 279.494 121.824C280.002 122.027 280.443 122.32 280.818 122.703C281.193 123.086 281.486 123.547 281.697 124.086C281.916 124.617 282.025 125.219 282.025 125.891C282.025 126.555 281.924 127.223 281.721 127.895C281.525 128.566 281.264 129.227 280.936 129.875C280.615 130.523 280.244 131.152 279.822 131.762C279.408 132.371 278.982 132.945 278.545 133.484C277.521 134.742 276.361 135.953 275.064 137.117H282.143V138.559H272.686V137.363C274.146 136.16 275.451 134.914 276.6 133.625C277.092 133.07 277.572 132.48 278.041 131.855C278.51 131.23 278.928 130.59 279.295 129.934C279.662 129.27 279.955 128.598 280.174 127.918C280.4 127.23 280.514 126.555 280.514 125.891C280.514 125.398 280.439 124.969 280.291 124.602C280.143 124.234 279.943 123.93 279.693 123.688C279.443 123.445 279.154 123.266 278.826 123.148C278.506 123.023 278.17 122.961 277.818 122.961H277.244Z" fill="#38383D"/>
<path d="M268.244 138.559V136.754H270.049V138.559H268.244Z" fill="#38383D"/>
<path d="M265.549 134.668C265.549 135.238 265.439 135.773 265.221 136.273C265.01 136.773 264.717 137.211 264.342 137.586C263.967 137.961 263.529 138.258 263.029 138.477C262.529 138.688 261.994 138.793 261.424 138.793H260.709C260.139 138.793 259.6 138.688 259.092 138.477C258.592 138.258 258.154 137.961 257.779 137.586C257.404 137.211 257.107 136.773 256.889 136.273C256.678 135.773 256.572 135.238 256.572 134.668V134.41H258.084V134.668C258.084 135.043 258.154 135.395 258.295 135.723C258.436 136.043 258.627 136.328 258.869 136.578C259.119 136.82 259.404 137.012 259.725 137.152C260.053 137.293 260.404 137.363 260.779 137.363H261.354C261.729 137.363 262.076 137.293 262.396 137.152C262.725 137.012 263.01 136.82 263.252 136.578C263.494 136.328 263.686 136.043 263.826 135.723C263.967 135.395 264.037 135.043 264.037 134.668V131.41C264.037 131.035 263.967 130.688 263.826 130.367C263.686 130.039 263.494 129.754 263.252 129.512C263.01 129.262 262.725 129.066 262.396 128.926C262.076 128.785 261.729 128.715 261.354 128.715H260.779C260.404 128.715 260.053 128.785 259.725 128.926C259.404 129.066 259.119 129.262 258.869 129.512C258.627 129.754 258.436 130.039 258.295 130.367C258.154 130.688 258.084 131.035 258.084 131.41H256.572L257.533 121.754H264.717V123.195H258.951L258.4 128.363C258.76 128.02 259.178 127.754 259.654 127.566C260.131 127.371 260.643 127.273 261.189 127.273H261.424C261.994 127.273 262.529 127.383 263.029 127.602C263.529 127.812 263.967 128.105 264.342 128.48C264.717 128.855 265.01 129.297 265.221 129.805C265.439 130.305 265.549 130.84 265.549 131.41V134.668Z" fill="#38383D"/>
<path d="M253.432 134.668C253.432 135.238 253.322 135.773 253.104 136.273C252.893 136.773 252.6 137.211 252.225 137.586C251.85 137.961 251.412 138.258 250.912 138.477C250.412 138.688 249.877 138.793 249.307 138.793H248.592C248.021 138.793 247.482 138.688 246.975 138.477C246.475 138.258 246.037 137.961 245.662 137.586C245.287 137.211 244.99 136.773 244.771 136.273C244.561 135.773 244.455 135.238 244.455 134.668V134.41H245.967V134.668C245.967 135.043 246.037 135.395 246.178 135.723C246.318 136.043 246.51 136.328 246.752 136.578C247.002 136.82 247.287 137.012 247.607 137.152C247.936 137.293 248.287 137.363 248.662 137.363H249.236C249.611 137.363 249.959 137.293 250.279 137.152C250.607 137.012 250.893 136.82 251.135 136.578C251.377 136.328 251.568 136.043 251.709 135.723C251.85 135.395 251.92 135.043 251.92 134.668V131.41C251.92 131.035 251.85 130.688 251.709 130.367C251.568 130.039 251.377 129.754 251.135 129.512C250.893 129.262 250.607 129.066 250.279 128.926C249.959 128.785 249.611 128.715 249.236 128.715H248.662C248.287 128.715 247.936 128.785 247.607 128.926C247.287 129.066 247.002 129.262 246.752 129.512C246.51 129.754 246.318 130.039 246.178 130.367C246.037 130.688 245.967 131.035 245.967 131.41H244.455L245.416 121.754H252.6V123.195H246.834L246.283 128.363C246.643 128.02 247.061 127.754 247.537 127.566C248.014 127.371 248.525 127.273 249.072 127.273H249.307C249.877 127.273 250.412 127.383 250.912 127.602C251.412 127.812 251.85 128.105 252.225 128.48C252.6 128.855 252.893 129.297 253.104 129.805C253.322 130.305 253.432 130.84 253.432 131.41V134.668Z" fill="#38383D"/>
<path d="M236.885 122.961C236.51 122.961 236.158 123.031 235.83 123.172C235.51 123.312 235.229 123.504 234.986 123.746C234.744 123.988 234.553 124.273 234.412 124.602C234.271 124.922 234.201 125.27 234.201 125.645V126.324L232.689 126.078V125.645C232.689 125.074 232.795 124.539 233.006 124.039C233.225 123.539 233.521 123.102 233.896 122.727C234.271 122.352 234.709 122.059 235.209 121.848C235.709 121.629 236.244 121.52 236.814 121.52H237.529C238.1 121.52 238.635 121.621 239.135 121.824C239.643 122.027 240.084 122.32 240.459 122.703C240.834 123.086 241.127 123.547 241.338 124.086C241.557 124.617 241.666 125.219 241.666 125.891C241.666 126.555 241.564 127.223 241.361 127.895C241.166 128.566 240.904 129.227 240.576 129.875C240.256 130.523 239.885 131.152 239.463 131.762C239.049 132.371 238.623 132.945 238.186 133.484C237.162 134.742 236.002 135.953 234.705 137.117H241.783V138.559H232.326V137.363C233.787 136.16 235.092 134.914 236.24 133.625C236.732 133.07 237.213 132.48 237.682 131.855C238.15 131.23 238.568 130.59 238.936 129.934C239.303 129.27 239.596 128.598 239.814 127.918C240.041 127.23 240.154 126.555 240.154 125.891C240.154 125.398 240.08 124.969 239.932 124.602C239.783 124.234 239.584 123.93 239.334 123.688C239.084 123.445 238.795 123.266 238.467 123.148C238.146 123.023 237.811 122.961 237.459 122.961H236.885Z" fill="#38383D"/>
<path d="M338.205 103.668C338.205 104.238 338.096 104.773 337.877 105.273C337.666 105.773 337.373 106.211 336.998 106.586C336.623 106.961 336.186 107.258 335.686 107.477C335.186 107.688 334.65 107.793 334.08 107.793H333.365C332.795 107.793 332.256 107.688 331.748 107.477C331.248 107.258 330.811 106.961 330.436 106.586C330.061 106.211 329.764 105.773 329.545 105.273C329.334 104.773 329.229 104.238 329.229 103.668V94.6445C329.229 94.0742 329.334 93.5391 329.545 93.0391C329.764 92.5391 330.061 92.1016 330.436 91.7266C330.811 91.3516 331.248 91.0586 331.748 90.8477C332.256 90.6289 332.795 90.5195 333.365 90.5195H334.08C334.65 90.5195 335.186 90.6289 335.686 90.8477C336.186 91.0586 336.623 91.3516 336.998 91.7266C337.373 92.1016 337.666 92.5391 337.877 93.0391C338.096 93.5391 338.205 94.0742 338.205 94.6445V103.668ZM336.693 94.6445C336.693 94.2695 336.623 93.9219 336.482 93.6016C336.342 93.2734 336.15 92.9883 335.908 92.7461C335.666 92.5039 335.381 92.3125 335.053 92.1719C334.732 92.0312 334.385 91.9609 334.01 91.9609H333.436C333.061 91.9609 332.709 92.0312 332.381 92.1719C332.061 92.3125 331.775 92.5039 331.525 92.7461C331.283 92.9883 331.092 93.2734 330.951 93.6016C330.811 93.9219 330.74 94.2695 330.74 94.6445V103.668C330.74 104.043 330.811 104.395 330.951 104.723C331.092 105.043 331.283 105.328 331.525 105.578C331.775 105.82 332.061 106.012 332.381 106.152C332.709 106.293 333.061 106.363 333.436 106.363H334.01C334.385 106.363 334.732 106.293 335.053 106.152C335.381 106.012 335.666 105.82 335.908 105.578C336.15 105.328 336.342 105.043 336.482 104.723C336.623 104.395 336.693 104.043 336.693 103.668V94.6445Z" fill="#38383D"/>
<path d="M324.752 107.559V105.754H326.557V107.559H324.752Z" fill="#38383D"/>
<path d="M322.057 103.668C322.057 104.238 321.947 104.773 321.729 105.273C321.518 105.773 321.225 106.211 320.85 106.586C320.475 106.961 320.037 107.258 319.537 107.477C319.037 107.688 318.502 107.793 317.932 107.793H317.217C316.646 107.793 316.107 107.688 315.6 107.477C315.1 107.258 314.662 106.961 314.287 106.586C313.912 106.211 313.615 105.773 313.396 105.273C313.186 104.773 313.08 104.238 313.08 103.668V94.6445C313.08 94.0742 313.186 93.5391 313.396 93.0391C313.615 92.5391 313.912 92.1016 314.287 91.7266C314.662 91.3516 315.1 91.0586 315.6 90.8477C316.107 90.6289 316.646 90.5195 317.217 90.5195H317.932C318.502 90.5195 319.037 90.6289 319.537 90.8477C320.037 91.0586 320.475 91.3516 320.85 91.7266C321.225 92.1016 321.518 92.5391 321.729 93.0391C321.947 93.5391 322.057 94.0742 322.057 94.6445V103.668ZM320.545 94.6445C320.545 94.2695 320.475 93.9219 320.334 93.6016C320.193 93.2734 320.002 92.9883 319.76 92.7461C319.518 92.5039 319.232 92.3125 318.904 92.1719C318.584 92.0312 318.236 91.9609 317.861 91.9609H317.287C316.912 91.9609 316.561 92.0312 316.232 92.1719C315.912 92.3125 315.627 92.5039 315.377 92.7461C315.135 92.9883 314.943 93.2734 314.803 93.6016C314.662 93.9219 314.592 94.2695 314.592 94.6445V103.668C314.592 104.043 314.662 104.395 314.803 104.723C314.943 105.043 315.135 105.328 315.377 105.578C315.627 105.82 315.912 106.012 316.232 106.152C316.561 106.293 316.912 106.363 317.287 106.363H317.861C318.236 106.363 318.584 106.293 318.904 106.152C319.232 106.012 319.518 105.82 319.76 105.578C320.002 105.328 320.193 105.043 320.334 104.723C320.475 104.395 320.545 104.043 320.545 103.668V94.6445Z" fill="#38383D"/>
<path d="M308.604 107.559V105.754H310.408V107.559H308.604Z" fill="#38383D"/>
<path d="M305.908 103.668C305.908 104.238 305.799 104.773 305.58 105.273C305.369 105.773 305.076 106.211 304.701 106.586C304.326 106.961 303.889 107.258 303.389 107.477C302.889 107.688 302.354 107.793 301.783 107.793H301.068C300.498 107.793 299.959 107.688 299.451 107.477C298.951 107.258 298.514 106.961 298.139 106.586C297.764 106.211 297.467 105.773 297.248 105.273C297.037 104.773 296.932 104.238 296.932 103.668V103.41H298.443V103.668C298.443 104.043 298.514 104.395 298.654 104.723C298.795 105.043 298.986 105.328 299.229 105.578C299.479 105.82 299.764 106.012 300.084 106.152C300.412 106.293 300.764 106.363 301.139 106.363H301.713C302.088 106.363 302.436 106.293 302.756 106.152C303.084 106.012 303.369 105.82 303.611 105.578C303.854 105.328 304.045 105.043 304.186 104.723C304.326 104.395 304.396 104.043 304.396 103.668V100.41C304.396 100.035 304.326 99.6875 304.186 99.3672C304.045 99.0391 303.854 98.7539 303.611 98.5117C303.369 98.2617 303.084 98.0664 302.756 97.9258C302.436 97.7852 302.088 97.7148 301.713 97.7148H301.139C300.764 97.7148 300.412 97.7852 300.084 97.9258C299.764 98.0664 299.479 98.2617 299.229 98.5117C298.986 98.7539 298.795 99.0391 298.654 99.3672C298.514 99.6875 298.443 100.035 298.443 100.41H296.932L297.893 90.7539H305.076V92.1953H299.311L298.76 97.3633C299.119 97.0195 299.537 96.7539 300.014 96.5664C300.49 96.3711 301.002 96.2734 301.549 96.2734H301.783C302.354 96.2734 302.889 96.3828 303.389 96.6016C303.889 96.8125 304.326 97.1055 304.701 97.4805C305.076 97.8555 305.369 98.2969 305.58 98.8047C305.799 99.3047 305.908 99.8398 305.908 100.41V103.668Z" fill="#38383D"/>
<path d="M293.791 103.668C293.791 104.238 293.682 104.773 293.463 105.273C293.252 105.773 292.959 106.211 292.584 106.586C292.209 106.961 291.771 107.258 291.271 107.477C290.771 107.688 290.236 107.793 289.666 107.793H288.951C288.381 107.793 287.842 107.688 287.334 107.477C286.834 107.258 286.396 106.961 286.021 106.586C285.646 106.211 285.35 105.773 285.131 105.273C284.92 104.773 284.814 104.238 284.814 103.668V103.41H286.326V103.668C286.326 104.043 286.396 104.395 286.537 104.723C286.678 105.043 286.869 105.328 287.111 105.578C287.361 105.82 287.646 106.012 287.967 106.152C288.295 106.293 288.646 106.363 289.021 106.363H289.596C289.971 106.363 290.318 106.293 290.639 106.152C290.967 106.012 291.252 105.82 291.494 105.578C291.736 105.328 291.928 105.043 292.068 104.723C292.209 104.395 292.279 104.043 292.279 103.668V100.41C292.279 100.035 292.209 99.6875 292.068 99.3672C291.928 99.0391 291.736 98.7539 291.494 98.5117C291.252 98.2617 290.967 98.0664 290.639 97.9258C290.318 97.7852 289.971 97.7148 289.596 97.7148H289.021C288.646 97.7148 288.295 97.7852 287.967 97.9258C287.646 98.0664 287.361 98.2617 287.111 98.5117C286.869 98.7539 286.678 99.0391 286.537 99.3672C286.396 99.6875 286.326 100.035 286.326 100.41H284.814L285.775 90.7539H292.959V92.1953H287.193L286.643 97.3633C287.002 97.0195 287.42 96.7539 287.896 96.5664C288.373 96.3711 288.885 96.2734 289.432 96.2734H289.666C290.236 96.2734 290.771 96.3828 291.271 96.6016C291.771 96.8125 292.209 97.1055 292.584 97.4805C292.959 97.8555 293.252 98.2969 293.463 98.8047C293.682 99.3047 293.791 99.8398 293.791 100.41V103.668Z" fill="#38383D"/>
<path d="M277.244 91.9609C276.869 91.9609 276.518 92.0312 276.189 92.1719C275.869 92.3125 275.588 92.5039 275.346 92.7461C275.104 92.9883 274.912 93.2734 274.771 93.6016C274.631 93.9219 274.561 94.2695 274.561 94.6445V95.3242L273.049 95.0781V94.6445C273.049 94.0742 273.154 93.5391 273.365 93.0391C273.584 92.5391 273.881 92.1016 274.256 91.7266C274.631 91.3516 275.068 91.0586 275.568 90.8477C276.068 90.6289 276.604 90.5195 277.174 90.5195H277.889C278.459 90.5195 278.994 90.6211 279.494 90.8242C280.002 91.0273 280.443 91.3203 280.818 91.7031C281.193 92.0859 281.486 92.5469 281.697 93.0859C281.916 93.6172 282.025 94.2188 282.025 94.8906C282.025 95.5547 281.924 96.2227 281.721 96.8945C281.525 97.5664 281.264 98.2266 280.936 98.875C280.615 99.5234 280.244 100.152 279.822 100.762C279.408 101.371 278.982 101.945 278.545 102.484C277.521 103.742 276.361 104.953 275.064 106.117H282.143V107.559H272.686V106.363C274.146 105.16 275.451 103.914 276.6 102.625C277.092 102.07 277.572 101.48 278.041 100.855C278.51 100.23 278.928 99.5898 279.295 98.9336C279.662 98.2695 279.955 97.5977 280.174 96.918C280.4 96.2305 280.514 95.5547 280.514 94.8906C280.514 94.3984 280.439 93.9688 280.291 93.6016C280.143 93.2344 279.943 92.9297 279.693 92.6875C279.443 92.4453 279.154 92.2656 278.826 92.1484C278.506 92.0234 278.17 91.9609 277.818 91.9609H277.244Z" fill="#38383D"/>
<path d="M268.244 107.559V105.754H270.049V107.559H268.244Z" fill="#38383D"/>
<path d="M265.549 103.668C265.549 104.238 265.439 104.773 265.221 105.273C265.01 105.773 264.717 106.211 264.342 106.586C263.967 106.961 263.529 107.258 263.029 107.477C262.529 107.688 261.994 107.793 261.424 107.793H260.709C260.139 107.793 259.6 107.688 259.092 107.477C258.592 107.258 258.154 106.961 257.779 106.586C257.404 106.211 257.107 105.773 256.889 105.273C256.678 104.773 256.572 104.238 256.572 103.668V103.41H258.084V103.668C258.084 104.043 258.154 104.395 258.295 104.723C258.436 105.043 258.627 105.328 258.869 105.578C259.119 105.82 259.404 106.012 259.725 106.152C260.053 106.293 260.404 106.363 260.779 106.363H261.354C261.729 106.363 262.076 106.293 262.396 106.152C262.725 106.012 263.01 105.82 263.252 105.578C263.494 105.328 263.686 105.043 263.826 104.723C263.967 104.395 264.037 104.043 264.037 103.668V100.41C264.037 100.035 263.967 99.6875 263.826 99.3672C263.686 99.0391 263.494 98.7539 263.252 98.5117C263.01 98.2617 262.725 98.0664 262.396 97.9258C262.076 97.7852 261.729 97.7148 261.354 97.7148H260.779C260.404 97.7148 260.053 97.7852 259.725 97.9258C259.404 98.0664 259.119 98.2617 258.869 98.5117C258.627 98.7539 258.436 99.0391 258.295 99.3672C258.154 99.6875 258.084 100.035 258.084 100.41H256.572L257.533 90.7539H264.717V92.1953H258.951L258.4 97.3633C258.76 97.0195 259.178 96.7539 259.654 96.5664C260.131 96.3711 260.643 96.2734 261.189 96.2734H261.424C261.994 96.2734 262.529 96.3828 263.029 96.6016C263.529 96.8125 263.967 97.1055 264.342 97.4805C264.717 97.8555 265.01 98.2969 265.221 98.8047C265.439 99.3047 265.549 99.8398 265.549 100.41V103.668Z" fill="#38383D"/>
<path d="M253.432 103.668C253.432 104.238 253.322 104.773 253.104 105.273C252.893 105.773 252.6 106.211 252.225 106.586C251.85 106.961 251.412 107.258 250.912 107.477C250.412 107.688 249.877 107.793 249.307 107.793H248.592C248.021 107.793 247.482 107.688 246.975 107.477C246.475 107.258 246.037 106.961 245.662 106.586C245.287 106.211 244.99 105.773 244.771 105.273C244.561 104.773 244.455 104.238 244.455 103.668V103.41H245.967V103.668C245.967 104.043 246.037 104.395 246.178 104.723C246.318 105.043 246.51 105.328 246.752 105.578C247.002 105.82 247.287 106.012 247.607 106.152C247.936 106.293 248.287 106.363 248.662 106.363H249.236C249.611 106.363 249.959 106.293 250.279 106.152C250.607 106.012 250.893 105.82 251.135 105.578C251.377 105.328 251.568 105.043 251.709 104.723C251.85 104.395 251.92 104.043 251.92 103.668V100.41C251.92 100.035 251.85 99.6875 251.709 99.3672C251.568 99.0391 251.377 98.7539 251.135 98.5117C250.893 98.2617 250.607 98.0664 250.279 97.9258C249.959 97.7852 249.611 97.7148 249.236 97.7148H248.662C248.287 97.7148 247.936 97.7852 247.607 97.9258C247.287 98.0664 247.002 98.2617 246.752 98.5117C246.51 98.7539 246.318 99.0391 246.178 99.3672C246.037 99.6875 245.967 100.035 245.967 100.41H244.455L245.416 90.7539H252.6V92.1953H246.834L246.283 97.3633C246.643 97.0195 247.061 96.7539 247.537 96.5664C248.014 96.3711 248.525 96.2734 249.072 96.2734H249.307C249.877 96.2734 250.412 96.3828 250.912 96.6016C251.412 96.8125 251.85 97.1055 252.225 97.4805C252.6 97.8555 252.893 98.2969 253.104 98.8047C253.322 99.3047 253.432 99.8398 253.432 100.41V103.668Z" fill="#38383D"/>
<path d="M236.885 91.9609C236.51 91.9609 236.158 92.0312 235.83 92.1719C235.51 92.3125 235.229 92.5039 234.986 92.7461C234.744 92.9883 234.553 93.2734 234.412 93.6016C234.271 93.9219 234.201 94.2695 234.201 94.6445V95.3242L232.689 95.0781V94.6445C232.689 94.0742 232.795 93.5391 233.006 93.0391C233.225 92.5391 233.521 92.1016 233.896 91.7266C234.271 91.3516 234.709 91.0586 235.209 90.8477C235.709 90.6289 236.244 90.5195 236.814 90.5195H237.529C238.1 90.5195 238.635 90.6211 239.135 90.8242C239.643 91.0273 240.084 91.3203 240.459 91.7031C240.834 92.0859 241.127 92.5469 241.338 93.0859C241.557 93.6172 241.666 94.2188 241.666 94.8906C241.666 95.5547 241.564 96.2227 241.361 96.8945C241.166 97.5664 240.904 98.2266 240.576 98.875C240.256 99.5234 239.885 100.152 239.463 100.762C239.049 101.371 238.623 101.945 238.186 102.484C237.162 103.742 236.002 104.953 234.705 106.117H241.783V107.559H232.326V106.363C233.787 105.16 235.092 103.914 236.24 102.625C236.732 102.07 237.213 101.48 237.682 100.855C238.15 100.23 238.568 99.5898 238.936 98.9336C239.303 98.2695 239.596 97.5977 239.814 96.918C240.041 96.2305 240.154 95.5547 240.154 94.8906C240.154 94.3984 240.08 93.9688 239.932 93.6016C239.783 93.2344 239.584 92.9297 239.334 92.6875C239.084 92.4453 238.795 92.2656 238.467 92.1484C238.146 92.0234 237.811 91.9609 237.459 91.9609H236.885Z" fill="#38383D"/>
<path d="M313.994 72.668C313.994 73.2383 313.885 73.7734 313.666 74.2734C313.455 74.7734 313.162 75.2109 312.787 75.5859C312.412 75.9609 311.975 76.2578 311.475 76.4766C310.975 76.6875 310.439 76.793 309.869 76.793H309.154C308.584 76.793 308.045 76.6875 307.537 76.4766C307.037 76.2578 306.6 75.9609 306.225 75.5859C305.85 75.2109 305.553 74.7734 305.334 74.2734C305.123 73.7734 305.018 73.2383 305.018 72.668V63.6445C305.018 63.0742 305.123 62.5391 305.334 62.0391C305.553 61.5391 305.85 61.1016 306.225 60.7266C306.6 60.3516 307.037 60.0586 307.537 59.8477C308.045 59.6289 308.584 59.5195 309.154 59.5195H309.869C310.439 59.5195 310.975 59.6289 311.475 59.8477C311.975 60.0586 312.412 60.3516 312.787 60.7266C313.162 61.1016 313.455 61.5391 313.666 62.0391C313.885 62.5391 313.994 63.0742 313.994 63.6445V72.668ZM312.482 63.6445C312.482 63.2695 312.412 62.9219 312.271 62.6016C312.131 62.2734 311.939 61.9883 311.697 61.7461C311.455 61.5039 311.17 61.3125 310.842 61.1719C310.521 61.0312 310.174 60.9609 309.799 60.9609H309.225C308.85 60.9609 308.498 61.0312 308.17 61.1719C307.85 61.3125 307.564 61.5039 307.314 61.7461C307.072 61.9883 306.881 62.2734 306.74 62.6016C306.6 62.9219 306.529 63.2695 306.529 63.6445V72.668C306.529 73.043 306.6 73.3945 306.74 73.7227C306.881 74.043 307.072 74.3281 307.314 74.5781C307.564 74.8203 307.85 75.0117 308.17 75.1523C308.498 75.293 308.85 75.3633 309.225 75.3633H309.799C310.174 75.3633 310.521 75.293 310.842 75.1523C311.17 75.0117 311.455 74.8203 311.697 74.5781C311.939 74.3281 312.131 74.043 312.271 73.7227C312.412 73.3945 312.482 73.043 312.482 72.668V63.6445Z" fill="#38383D"/>
<path d="M300.541 76.5586V74.7539H302.346V76.5586H300.541Z" fill="#38383D"/>
<path d="M297.846 72.668C297.846 73.2383 297.736 73.7734 297.518 74.2734C297.307 74.7734 297.014 75.2109 296.639 75.5859C296.264 75.9609 295.826 76.2578 295.326 76.4766C294.826 76.6875 294.291 76.793 293.721 76.793H293.006C292.436 76.793 291.896 76.6875 291.389 76.4766C290.889 76.2578 290.451 75.9609 290.076 75.5859C289.701 75.2109 289.404 74.7734 289.186 74.2734C288.975 73.7734 288.869 73.2383 288.869 72.668V63.6445C288.869 63.0742 288.975 62.5391 289.186 62.0391C289.404 61.5391 289.701 61.1016 290.076 60.7266C290.451 60.3516 290.889 60.0586 291.389 59.8477C291.896 59.6289 292.436 59.5195 293.006 59.5195H293.721C294.291 59.5195 294.826 59.6289 295.326 59.8477C295.826 60.0586 296.264 60.3516 296.639 60.7266C297.014 61.1016 297.307 61.5391 297.518 62.0391C297.736 62.5391 297.846 63.0742 297.846 63.6445V72.668ZM296.334 63.6445C296.334 63.2695 296.264 62.9219 296.123 62.6016C295.982 62.2734 295.791 61.9883 295.549 61.7461C295.307 61.5039 295.021 61.3125 294.693 61.1719C294.373 61.0312 294.025 60.9609 293.65 60.9609H293.076C292.701 60.9609 292.35 61.0312 292.021 61.1719C291.701 61.3125 291.416 61.5039 291.166 61.7461C290.924 61.9883 290.732 62.2734 290.592 62.6016C290.451 62.9219 290.381 63.2695 290.381 63.6445V72.668C290.381 73.043 290.451 73.3945 290.592 73.7227C290.732 74.043 290.924 74.3281 291.166 74.5781C291.416 74.8203 291.701 75.0117 292.021 75.1523C292.35 75.293 292.701 75.3633 293.076 75.3633H293.65C294.025 75.3633 294.373 75.293 294.693 75.1523C295.021 75.0117 295.307 74.8203 295.549 74.5781C295.791 74.3281 295.982 74.043 296.123 73.7227C296.264 73.3945 296.334 73.043 296.334 72.668V63.6445Z" fill="#38383D"/>
<path d="M284.393 76.5586V74.7539H286.197V76.5586H284.393Z" fill="#38383D"/>
<path d="M281.697 72.668C281.697 73.2383 281.588 73.7734 281.369 74.2734C281.158 74.7734 280.865 75.2109 280.49 75.5859C280.115 75.9609 279.678 76.2578 279.178 76.4766C278.678 76.6875 278.143 76.793 277.572 76.793H276.857C276.287 76.793 275.748 76.6875 275.24 76.4766C274.74 76.2578 274.303 75.9609 273.928 75.5859C273.553 75.2109 273.256 74.7734 273.037 74.2734C272.826 73.7734 272.721 73.2383 272.721 72.668V63.6445C272.721 63.0742 272.826 62.5391 273.037 62.0391C273.256 61.5391 273.553 61.1016 273.928 60.7266C274.303 60.3516 274.74 60.0586 275.24 59.8477C275.748 59.6289 276.287 59.5195 276.857 59.5195H277.572C278.143 59.5195 278.678 59.6289 279.178 59.8477C279.678 60.0586 280.115 60.3516 280.49 60.7266C280.865 61.1016 281.158 61.5391 281.369 62.0391C281.588 62.5391 281.697 63.0742 281.697 63.6445V72.668ZM280.186 63.6445C280.186 63.2695 280.115 62.9219 279.975 62.6016C279.834 62.2734 279.643 61.9883 279.4 61.7461C279.158 61.5039 278.873 61.3125 278.545 61.1719C278.225 61.0312 277.877 60.9609 277.502 60.9609H276.928C276.553 60.9609 276.201 61.0312 275.873 61.1719C275.553 61.3125 275.268 61.5039 275.018 61.7461C274.775 61.9883 274.584 62.2734 274.443 62.6016C274.303 62.9219 274.232 63.2695 274.232 63.6445V72.668C274.232 73.043 274.303 73.3945 274.443 73.7227C274.584 74.043 274.775 74.3281 275.018 74.5781C275.268 74.8203 275.553 75.0117 275.873 75.1523C276.201 75.293 276.553 75.3633 276.928 75.3633H277.502C277.877 75.3633 278.225 75.293 278.545 75.1523C278.873 75.0117 279.158 74.8203 279.4 74.5781C279.643 74.3281 279.834 74.043 279.975 73.7227C280.115 73.3945 280.186 73.043 280.186 72.668V63.6445Z" fill="#38383D"/>
<path d="M268.244 76.5586V74.7539H270.049V76.5586H268.244Z" fill="#38383D"/>
<path d="M265.549 72.668C265.549 73.2383 265.439 73.7734 265.221 74.2734C265.01 74.7734 264.717 75.2109 264.342 75.5859C263.967 75.9609 263.529 76.2578 263.029 76.4766C262.529 76.6875 261.994 76.793 261.424 76.793H260.709C260.139 76.793 259.6 76.6875 259.092 76.4766C258.592 76.2578 258.154 75.9609 257.779 75.5859C257.404 75.2109 257.107 74.7734 256.889 74.2734C256.678 73.7734 256.572 73.2383 256.572 72.668V72.4102H258.084V72.668C258.084 73.043 258.154 73.3945 258.295 73.7227C258.436 74.043 258.627 74.3281 258.869 74.5781C259.119 74.8203 259.404 75.0117 259.725 75.1523C260.053 75.293 260.404 75.3633 260.779 75.3633H261.354C261.729 75.3633 262.076 75.293 262.396 75.1523C262.725 75.0117 263.01 74.8203 263.252 74.5781C263.494 74.3281 263.686 74.043 263.826 73.7227C263.967 73.3945 264.037 73.043 264.037 72.668V69.4102C264.037 69.0352 263.967 68.6875 263.826 68.3672C263.686 68.0391 263.494 67.7539 263.252 67.5117C263.01 67.2617 262.725 67.0664 262.396 66.9258C262.076 66.7852 261.729 66.7148 261.354 66.7148H260.779C260.404 66.7148 260.053 66.7852 259.725 66.9258C259.404 67.0664 259.119 67.2617 258.869 67.5117C258.627 67.7539 258.436 68.0391 258.295 68.3672C258.154 68.6875 258.084 69.0352 258.084 69.4102H256.572L257.533 59.7539H264.717V61.1953H258.951L258.4 66.3633C258.76 66.0195 259.178 65.7539 259.654 65.5664C260.131 65.3711 260.643 65.2734 261.189 65.2734H261.424C261.994 65.2734 262.529 65.3828 263.029 65.6016C263.529 65.8125 263.967 66.1055 264.342 66.4805C264.717 66.8555 265.01 67.2969 265.221 67.8047C265.439 68.3047 265.549 68.8398 265.549 69.4102V72.668Z" fill="#38383D"/>
<path d="M253.432 72.668C253.432 73.2383 253.322 73.7734 253.104 74.2734C252.893 74.7734 252.6 75.2109 252.225 75.5859C251.85 75.9609 251.412 76.2578 250.912 76.4766C250.412 76.6875 249.877 76.793 249.307 76.793H248.592C248.021 76.793 247.482 76.6875 246.975 76.4766C246.475 76.2578 246.037 75.9609 245.662 75.5859C245.287 75.2109 244.99 74.7734 244.771 74.2734C244.561 73.7734 244.455 73.2383 244.455 72.668V72.4102H245.967V72.668C245.967 73.043 246.037 73.3945 246.178 73.7227C246.318 74.043 246.51 74.3281 246.752 74.5781C247.002 74.8203 247.287 75.0117 247.607 75.1523C247.936 75.293 248.287 75.3633 248.662 75.3633H249.236C249.611 75.3633 249.959 75.293 250.279 75.1523C250.607 75.0117 250.893 74.8203 251.135 74.5781C251.377 74.3281 251.568 74.043 251.709 73.7227C251.85 73.3945 251.92 73.043 251.92 72.668V69.4102C251.92 69.0352 251.85 68.6875 251.709 68.3672C251.568 68.0391 251.377 67.7539 251.135 67.5117C250.893 67.2617 250.607 67.0664 250.279 66.9258C249.959 66.7852 249.611 66.7148 249.236 66.7148H248.662C248.287 66.7148 247.936 66.7852 247.607 66.9258C247.287 67.0664 247.002 67.2617 246.752 67.5117C246.51 67.7539 246.318 68.0391 246.178 68.3672C246.037 68.6875 245.967 69.0352 245.967 69.4102H244.455L245.416 59.7539H252.6V61.1953H246.834L246.283 66.3633C246.643 66.0195 247.061 65.7539 247.537 65.5664C248.014 65.3711 248.525 65.2734 249.072 65.2734H249.307C249.877 65.2734 250.412 65.3828 250.912 65.6016C251.412 65.8125 251.85 66.1055 252.225 66.4805C252.6 66.8555 252.893 67.2969 253.104 67.8047C253.322 68.3047 253.432 68.8398 253.432 69.4102V72.668Z" fill="#38383D"/>
<path d="M236.885 60.9609C236.51 60.9609 236.158 61.0312 235.83 61.1719C235.51 61.3125 235.229 61.5039 234.986 61.7461C234.744 61.9883 234.553 62.2734 234.412 62.6016C234.271 62.9219 234.201 63.2695 234.201 63.6445V64.3242L232.689 64.0781V63.6445C232.689 63.0742 232.795 62.5391 233.006 62.0391C233.225 61.5391 233.521 61.1016 233.896 60.7266C234.271 60.3516 234.709 60.0586 235.209 59.8477C235.709 59.6289 236.244 59.5195 236.814 59.5195H237.529C238.1 59.5195 238.635 59.6211 239.135 59.8242C239.643 60.0273 240.084 60.3203 240.459 60.7031C240.834 61.0859 241.127 61.5469 241.338 62.0859C241.557 62.6172 241.666 63.2188 241.666 63.8906C241.666 64.5547 241.564 65.2227 241.361 65.8945C241.166 66.5664 240.904 67.2266 240.576 67.875C240.256 68.5234 239.885 69.1523 239.463 69.7617C239.049 70.3711 238.623 70.9453 238.186 71.4844C237.162 72.7422 236.002 73.9531 234.705 75.1172H241.783V76.5586H232.326V75.3633C233.787 74.1602 235.092 72.9141 236.24 71.625C236.732 71.0703 237.213 70.4805 237.682 69.8555C238.15 69.2305 238.568 68.5898 238.936 67.9336C239.303 67.2695 239.596 66.5977 239.814 65.918C240.041 65.2305 240.154 64.5547 240.154 63.8906C240.154 63.3984 240.08 62.9688 239.932 62.6016C239.783 62.2344 239.584 61.9297 239.334 61.6875C239.084 61.4453 238.795 61.2656 238.467 61.1484C238.146 61.0234 237.811 60.9609 237.459 60.9609H236.885Z" fill="#38383D"/>
</svg>
