<svg width="455" height="94" viewBox="0 0 455 94" fill="none" xmlns="http://www.w3.org/2000/svg">
<path d="M308.494 7.76489V34.9555L292.964 49.8219L277.435 65.3515V85.4406H261.905V7.76489H308.522H308.494ZM292.964 15.5297H277.435V54.3813L292.964 38.8517V15.5297Z" fill="white"/>
<path d="M135.375 7.76489V85.4406H119.845V49.8219L104.316 65.3515V85.4406H88.7861V7.76489H135.403H135.375ZM119.845 15.5297H104.316V54.3813L119.845 38.8517V15.5297Z" fill="white"/>
<path d="M193.099 7.76489V34.2923L183.041 44.3507L193.099 54.409V85.4682H146.482V7.76489H193.099ZM177.569 15.5297H162.04V54.3813L177.569 38.8517V15.5297ZM177.569 49.8219L162.04 65.3515V77.6758H177.569V49.8219Z" fill="white"/>
<path d="M250.795 7.76489V85.4406H204.179V7.76489H250.795ZM235.266 15.5297H219.736V77.6758H235.266V15.5297Z" fill="white"/>
<path d="M366.218 85.4406H350.688V49.8219L335.159 65.3515V85.4406H319.629V7.76489H335.159V54.3813L350.688 38.8517V7.76489H366.218V85.4406Z" fill="white"/>
<path d="M46.6194 7.7648V0H31.0898V7.7648H0.00292969V85.4405H31.0621V93.2053H46.5917V85.4405H77.6509V7.7648H46.5917H46.6194ZM15.5325 77.6757V15.5296H31.0621V77.6757H15.5325ZM62.149 77.6757H46.6194V15.5296H62.149V77.6757Z" fill="white"/>
<path d="M377.325 7.76489V85.4406H392.855V15.5297H408.384V85.4406L423.914 70.2425V15.5297H439.444V85.4406H455.001V7.76489H377.325Z" fill="white"/>
</svg>
