<svg width="1405" height="288" viewBox="0 0 1405 288" fill="none" xmlns="http://www.w3.org/2000/svg">
<path d="M903.95 153.124L903.942 153.132L903.934 153.14L855.98 201.094L855.687 201.387V201.801V262.835H809.732V24.9775H951.595V107.513L903.95 153.124ZM905.641 47.9547V46.9547H904.641H856.687H855.687V47.9547V167.926V170.34L857.394 168.633L905.348 120.679L905.641 120.386V119.972V47.9547Z" stroke="#222225" stroke-width="2"/>
<path d="M321.11 201.801V262.835H275.156V24.9775H417.019V262.835H371.064V153.847V151.433L369.357 153.14L321.403 201.094L321.11 201.387V201.801ZM371.064 47.9547V46.9547H370.064H322.11H321.11V47.9547V167.926V170.34L322.817 168.633L370.772 120.679L371.064 120.386V119.972V47.9547Z" stroke="#222225" stroke-width="2"/>
<path d="M564.499 136.245L563.792 136.952L564.499 137.659L595.266 168.425V262.92H453.317V24.9775H595.266V105.478L564.499 136.245ZM549.311 47.9547V46.9547H548.311H500.357H499.357V47.9547V167.926V170.34L501.064 168.633L549.019 120.679L549.311 120.386V119.972V47.9547ZM549.311 153.847V151.433L547.604 153.14L499.65 201.094L499.357 201.387V201.801V239.857V240.857H500.357H548.311H549.311V239.857V153.847Z" stroke="#222225" stroke-width="2"/>
<path d="M727.473 47.9547V46.9547H726.473H678.518H677.518V47.9547V239.857V240.857H678.518H726.473H727.473V239.857V47.9547ZM773.427 24.9775V262.835H631.479V24.9775H773.427Z" stroke="#222225" stroke-width="2"/>
<path d="M1083.89 119.972V24.9775H1129.84V262.835H1083.89V153.847V151.433L1082.18 153.14L1034.23 201.094L1033.93 201.387V201.801V262.835H987.98V24.9775H1033.93V167.926V170.34L1035.64 168.633L1083.6 120.679L1083.89 120.386V119.972Z" stroke="#222225" stroke-width="2"/>
<path d="M143.948 24.9771H144.948H238.771V262.834H143.863H142.863V263.834V286.811H96.9085V263.834V262.834H95.9085H1V24.9771H95.9939H96.9939V23.9771V1H142.948V23.9771H143.863V24.9771H143.948ZM46.9543 239.857V240.857H47.9543H95.9085H96.9085V239.857V47.9543V46.9543H95.9085H47.9543H46.9543V47.9543V239.857ZM191.902 240.857H192.902V239.857V47.9543V46.9543H191.902H143.948H142.948V47.9543V239.857V240.857H143.948H191.902Z" stroke="#222225" stroke-width="2"/>
<path d="M1213.1 46.9547H1212.1V47.9547V262.835H1166.14V24.9775H1404V262.835H1357.96V47.9547V46.9547H1356.96H1309.01H1308.01V47.9547V216.484L1262.05 261.457V47.9547V46.9547H1261.05H1213.1Z" stroke="#222225" stroke-width="2"/>
</svg>
