<svg width="117" height="63" viewBox="0 0 117 63" fill="none" xmlns="http://www.w3.org/2000/svg">
<path d="M33.5125 61.3536H34.1898L34.5732 60.7952L54.0076 32.4885L54.5076 31.7603L54.0076 31.032L34.5732 2.72535L34.1898 2.16695H33.5125H5.34668H2.95247L4.27365 4.16363L22.5341 31.7603L4.27365 59.3569L2.95247 61.3536H5.34668H33.5125ZM93.9922 61.3536H94.6695L95.0529 60.7952L114.487 32.4885L114.987 31.7603L114.487 31.032L104.77 16.8787L95.0529 2.72535L94.6695 2.16695H93.9922H65.8263H63.4321L64.7533 4.16363L83.0138 31.7603L64.7533 59.3569L63.4321 61.3536H65.8263H93.9922Z" stroke="#808389" stroke-width="2.57333"/>
</svg>
