<svg width="89" height="23" viewBox="0 0 89 23" fill="none" xmlns="http://www.w3.org/2000/svg">
<path d="M88.6289 22.464H82.1489V19.536H84.8849V2.928H82.1489V0H88.6289V22.464Z" fill="#38383D"/>
<path d="M67.4227 19.2881C66.1267 19.2881 64.9187 19.0801 63.7987 18.6641C62.6947 18.2321 61.7347 17.6241 60.9187 16.8401C60.1027 16.0561 59.4627 15.1361 58.9987 14.0801C58.5507 13.0241 58.3267 11.8641 58.3267 10.6001C58.3267 9.33611 58.5507 8.17611 58.9987 7.12011C59.4627 6.06411 60.1027 5.14411 60.9187 4.36011C61.7507 3.57611 62.7187 2.97611 63.8227 2.56011C64.9267 2.12811 66.1347 1.91211 67.4467 1.91211C68.9027 1.91211 70.2147 2.16811 71.3827 2.68011C72.5667 3.17611 73.5587 3.91211 74.3587 4.88811L71.8627 7.19211C71.2867 6.53611 70.6467 6.04811 69.9427 5.72811C69.2387 5.39211 68.4707 5.22411 67.6387 5.22411C66.8547 5.22411 66.1347 5.35211 65.4787 5.60811C64.8227 5.86411 64.2547 6.23211 63.7747 6.71211C63.2947 7.19211 62.9187 7.76011 62.6467 8.41611C62.3907 9.07211 62.2627 9.80011 62.2627 10.6001C62.2627 11.4001 62.3907 12.1281 62.6467 12.7841C62.9187 13.4401 63.2947 14.0081 63.7747 14.4881C64.2547 14.9681 64.8227 15.3361 65.4787 15.5921C66.1347 15.8481 66.8547 15.9761 67.6387 15.9761C68.4707 15.9761 69.2387 15.8161 69.9427 15.4961C70.6467 15.1601 71.2867 14.6561 71.8627 13.9841L74.3587 16.2881C73.5587 17.2641 72.5667 18.0081 71.3827 18.5201C70.2147 19.0321 68.8947 19.2881 67.4227 19.2881Z" fill="#38383D"/>
<path d="M46.8573 8.9682H54.9452V11.9922H46.8573V8.9682ZM47.1452 15.8802H56.2892V19.0002H43.2812V2.2002H55.9772V5.3202H47.1452V15.8802Z" fill="#38383D"/>
<path d="M25.6328 19.0002V2.2002H32.9048C34.4088 2.2002 35.7048 2.4482 36.7928 2.9442C37.8808 3.4242 38.7208 4.1202 39.3128 5.0322C39.9048 5.9442 40.2008 7.0322 40.2008 8.2962C40.2008 9.5442 39.9048 10.6242 39.3128 11.5362C38.7208 12.4322 37.8808 13.1202 36.7928 13.6002C35.7048 14.0802 34.4088 14.3202 32.9048 14.3202H27.7928L29.5208 12.6162V19.0002H25.6328ZM36.3128 19.0002L32.1128 12.9042H36.2648L40.5128 19.0002H36.3128ZM29.5208 13.0482L27.7928 11.2242H32.6888C33.8888 11.2242 34.7848 10.9682 35.3768 10.4562C35.9688 9.9282 36.2648 9.2082 36.2648 8.2962C36.2648 7.3682 35.9688 6.6482 35.3768 6.1362C34.7848 5.6242 33.8888 5.3682 32.6888 5.3682H27.7928L29.5208 3.5202V13.0482Z" fill="#38383D"/>
<path d="M0 22.464V0H6.504V2.928H3.744V19.536H6.504V22.464H0Z" fill="#38383D"/>
</svg>
