<svg width="232" height="60" viewBox="0 0 232 60" fill="none" xmlns="http://www.w3.org/2000/svg">
<path d="M0 25.0679V3.80091C3.22776 5.24888 4.79639 8.47663 4.79639 13.5445C4.79639 15.3243 4.64556 17.2549 4.19307 20.362H8.71796L8.56713 14.5098C8.47663 12.3982 8.14481 7.87332 8.14481 7.23983C8.14481 4.52489 9.17045 2.11162 11.1011 0C13.0317 2.11162 14.0573 4.52489 14.0573 7.23983C14.0573 7.87332 13.7255 12.3982 13.635 14.5098L13.4842 20.362H18.0091C17.5566 17.2549 17.4058 15.3243 17.4058 13.5445C17.4058 8.47663 18.9744 5.27904 22.2021 3.80091V25.0679H13.816C13.2429 26.727 12.3077 28.4465 11.0709 29.8945C9.86427 28.4465 8.92912 26.727 8.3258 25.0679" fill="#808389"/>
<path d="M43.5303 19.608V18.8237H47.2105V19.2762C47.2105 21.1767 48.5982 22.1118 51.2226 22.1118C53.847 22.1118 54.8727 21.2973 54.8727 19.4572V19.065C54.8727 17.6171 53.6359 16.7121 51.5544 16.7121H48.5077V14.4497L53.6057 9.11028H44.1638V5.73169H58.1004V8.74829L53.1532 13.9368C56.5318 14.0877 58.6434 15.9881 58.6434 18.9444V19.6382C58.6434 23.3486 55.7173 25.3999 51.0416 25.3999C46.3659 25.3999 43.5303 23.2581 43.5303 19.608Z" fill="#808389"/>
<path d="M65.4895 6.84768L73.8153 4.5249V7.93366L66.3945 9.95478C65.1275 10.3168 64.494 11.0709 64.494 12.3077V13.5144C65.5498 12.2172 67.1486 11.4631 69.0793 11.4631C72.8802 11.4631 75.1125 13.8763 75.1125 18.0694V18.5521C75.1125 22.6546 72.3674 25.3394 68.1139 25.3394C63.8605 25.3394 61.1758 22.8658 61.1758 18.5521V12.8809C61.1758 9.89444 62.6841 7.60183 65.4895 6.84768ZM68.1441 22.1117C70.2256 22.1117 71.402 20.9955 71.402 19.0046V17.7678C71.402 15.7466 70.2256 14.6607 68.1441 14.6607C66.0627 14.6607 64.856 15.7768 64.856 17.7678V19.0046C64.856 21.0257 66.0325 22.1117 68.1441 22.1117Z" fill="#808389"/>
<path d="M82.3838 23.7706V29.7435H78.6733V9.8943H81.8709L82.1123 11.6138C83.1379 10.3468 84.6462 9.6228 86.5768 9.6228C90.1967 9.6228 92.5497 12.0361 92.5497 16.0482V18.9139C92.5497 22.8053 90.1364 25.3393 86.4562 25.3393C84.7367 25.3393 83.4094 24.7963 82.4139 23.7706M85.5512 22.1115C87.6326 22.1115 88.8091 20.9954 88.8091 19.0044V16.018C88.8091 14.027 87.6326 12.9109 85.5512 12.9109C83.4697 12.9109 82.2933 14.027 82.2933 16.018V19.0044C82.2933 20.9954 83.4396 22.1115 85.5512 22.1115Z" fill="#808389"/>
<path d="M95.4453 18.5519V16.4101C95.4453 12.3076 98.2507 9.6228 102.655 9.6228C107.059 9.6228 109.865 12.0964 109.865 16.4101V18.5519C109.865 22.6545 107.059 25.3393 102.655 25.3393C98.2507 25.3393 95.4453 22.8657 95.4453 18.5519ZM102.655 22.0512C104.857 22.0512 106.094 20.8747 106.094 18.7933V16.199C106.094 14.1175 104.857 12.9411 102.655 12.9411C100.453 12.9411 99.2161 14.1175 99.2161 16.199V18.7933C99.2161 20.8747 100.453 22.0512 102.655 22.0512Z" fill="#808389"/>
<path d="M113.424 9.89449H117.105V19.3666L123.258 9.89449H126.909V25.068H123.228V15.5657L117.074 25.068H113.424V9.89449ZM114.812 3.16748L120.151 5.2791L125.34 3.16748V6.30474L120.061 8.44652L114.782 6.36507V3.16748H114.812Z" fill="#808389"/>
<path d="M134.751 9.89441V15.8371H140.543V9.89441H144.284V25.0679H140.543V19.1554H134.751V25.0679H131.041V9.89441H134.751Z" fill="#808389"/>
<path d="M148.538 3.8916H152.459V7.42102H148.538V3.8916ZM152.369 25.0681H148.658V9.89463H152.369V25.0681Z" fill="#808389"/>
<path d="M171.975 5.42998C176.923 5.42998 179.969 7.99408 179.969 12.4586V12.9413H176.108V12.5793C176.108 10.2867 174.57 8.89906 172.036 8.89906C169.502 8.89906 167.752 10.5884 167.752 13.2731V17.5265C167.752 20.1208 169.381 21.9006 172.036 21.9006C174.509 21.9006 176.108 20.5733 176.108 18.2203V17.8584H179.969V18.341C179.969 22.5642 176.862 25.3395 172.006 25.3395C167.149 25.3395 163.861 22.2626 163.861 17.1645V13.5145C163.861 8.65773 166.968 5.33948 171.975 5.33948" fill="#808389"/>
<path d="M183.561 9.89441H187.211V19.3665L193.364 9.89441H197.015V25.0679H193.334V15.5958L187.18 25.0679H183.561V9.89441Z" fill="#808389"/>
<path d="M199.668 21.7798H200.754C201.418 21.7798 201.84 21.3876 201.901 20.724L202.112 18.6425C202.293 16.7722 202.414 14.6908 202.414 12.8205V9.89441H214.208V25.0679H210.498V13.1825H205.973C205.973 14.9321 205.822 16.8627 205.611 18.6124L205.34 21.2066C205.038 23.7104 203.831 25.0679 201.84 25.0679H199.668V21.7798Z" fill="#808389"/>
<path d="M218.372 9.89441H222.022V19.3665L228.176 9.89441H231.826V25.0679H228.146V15.5958L221.992 25.0679H218.372V9.89441Z" fill="#808389"/>
<path d="M47.5717 36.0183L51.4933 46.9987H53.9066V46.8479C54.5099 44.7363 55.264 42.4135 56.0182 40.3019L57.5566 35.9882H61.4782L59.5174 41.418C58.7633 43.4995 58.0393 45.8223 57.436 47.964L55.3847 55.2944H51.5838L52.9111 50.498H48.8387L43.439 35.9882H47.5717V36.0183Z" fill="#808389"/>
<path d="M62.8359 40.151H66.5162V46.1239H68.2055L72.308 40.151H76.29L72.0064 46.154L76.7424 55.3245H72.67L69.5328 49.3215H66.5162V55.3245H62.8359V40.151Z" fill="#808389"/>
<path d="M82.9253 54.0272V60.0001H79.2148V40.1509H82.4124L82.6538 41.8703C83.6794 40.6034 85.1877 39.8794 87.1183 39.8794C90.7382 39.8794 93.0912 42.2927 93.0912 46.3047V49.1705C93.0912 53.0619 90.6779 55.5959 86.9977 55.5959C85.2782 55.5959 83.9509 55.0529 82.9554 54.0272M86.0927 52.3379C88.1741 52.3379 89.3506 51.2218 89.3506 49.2308V46.2444C89.3506 44.2535 88.1741 43.1373 86.0927 43.1373C84.0112 43.1373 82.8348 44.2535 82.8348 46.2444V49.2308C82.8348 51.2218 83.9811 52.3379 86.0927 52.3379Z" fill="#808389"/>
<path d="M95.2948 51.2822V51.0711C95.2948 48.7785 96.8333 47.1495 99.88 46.6668L104.616 45.8825V43.3788H96.7428V40.151H108.236V55.3245H105.038L104.797 53.5447C103.711 54.8418 102.082 55.596 100.152 55.596C97.1048 55.596 95.2646 53.9972 95.2646 51.2822M100.906 52.6095C103.078 52.6095 104.616 51.4029 104.616 49.6533V48.5975L101.268 49.0801C99.699 49.2913 98.9147 49.8946 98.9147 50.8599V51.1012C98.9147 52.0967 99.6387 52.6095 100.906 52.6095Z" fill="#808389"/>
<path d="M109.441 34.1179H113.212V37.6473H109.441V34.1179ZM116.349 55.3246H112.639V40.1511H116.349V55.3246ZM115.746 34.1179H119.516V37.6473H115.746V34.1179Z" fill="#808389"/>
<path d="M124.464 40.151V46.0635H130.256V40.151H133.996V55.3245H130.256V49.3818H124.464V55.3245H120.753V40.151H124.464Z" fill="#808389"/>
<path d="M138.13 40.151H141.78V49.5929L147.934 40.151H151.584V55.3245H147.904V45.8222L141.75 55.3245H138.13V40.151Z" fill="#808389"/>
</svg>
